<?xml version="1.0" standalone="no"?>
<!DOCTYPE svg PUBLIC "-//W3C//DTD SVG 1.1//EN" "http://www.w3.org/Graphics/SVG/1.1/DTD/svg11.dtd" >
<svg xmlns="http://www.w3.org/2000/svg">
<metadata></metadata>
<defs>
<font id="stretchy_pantsregular" horiz-adv-x="2023" >
<font-face units-per-em="2048" ascent="1638" descent="-410" />
<missing-glyph horiz-adv-x="1012" />
<glyph horiz-adv-x="0" />
<glyph horiz-adv-x="0" />
<glyph unicode="&#xd;" horiz-adv-x="550" />
<glyph unicode=" "  horiz-adv-x="1012" />
<glyph unicode="&#x09;" horiz-adv-x="1012" />
<glyph unicode="&#xa0;" horiz-adv-x="1012" />
<glyph unicode="!" horiz-adv-x="912" d="M166 -474q74 128 124 147v11q165 0 204 -136q-34 -169 -113 -169q0 -11 -12 -11h-45q-91 0 -147 90h-11v23q0 11 11 11l-11 23v11zM256 -11v34q0 25 12 45q-12 22 -12 34l12 45q0 11 -12 11q37 292 57 328q-23 46 -23 68q23 0 23 22v79q3 57 22 57l-11 23q0 121 45 463 l-11 22q11 79 23 79l-12 23q23 0 46 576h11l-11 23v22q33 0 33 34h68q0 -30 113 -90l-11 -113l11 -57q-34 -99 -34 -327l-34 -23l12 -113v-79h-23l11 -22v-34q0 -49 -22 -91q22 -96 22 -113q-34 0 -56 -169q-11 0 -11 -11v-12q0 -30 22 -68h-22q0 -12 11 -33l-11 -46v-45 h-12l12 -113l-12 -101l12 -23l-23 -169q11 -45 11 -80l-11 -22v-34q-70 -25 -90 -68q-12 0 -34 -11q-54 0 -91 79z" />
<glyph unicode="&#x22;" horiz-adv-x="1256" d="M231 1514q92 158 113 158q45 224 68 271q48 150 68 158v12q-12 19 -12 45v22q31 0 45 80l-45 79v11q27 0 57 45q11 0 11 -11q61 34 102 34l22 -12l23 12q22 -12 34 -12l22 12q22 -12 34 -12q22 12 34 12q34 -61 34 -102q-90 -94 -158 -237q-50 -79 -57 -79q0 -12 12 -12 q-46 -159 -113 -316q-78 -203 -91 -203q0 -15 -90 -23v12l-23 -12h-34q0 19 -56 68zM717 1480q0 11 11 11l-11 23q37 52 45 147q31 14 102 237l-12 23q43 64 91 214q54 204 67 204q0 11 57 34l23 -12q37 23 67 23h45q68 -30 136 -91q0 -47 -45 -113v-11l-23 11 q-117 -315 -180 -361q-32 -43 -46 -113q-17 0 -56 -113q-31 0 -68 -113q-23 0 -68 -90h-67q-27 0 -68 90z" />
<glyph unicode="#" horiz-adv-x="2277" d="M125 723v68l23 34q152 -15 180 -23l23 12l23 -12q11 0 11 12l56 -12h181l57 -11q79 243 79 260q0 22 33 22l-11 23v11q0 31 23 68q-20 0 -57 23l12 -23v-11q-29 0 -102 22q-11 0 -11 -11q-12 0 -34 11q-153 -11 -226 -11q-140 11 -147 11q0 -11 -11 -11q0 16 -79 57 l-23 33v12q40 68 56 68q161 -31 396 -57q11 0 11 11q85 -22 102 -22q22 11 34 11l45 -23v23l56 -11q57 90 113 384h34l34 -23q4 23 23 23h11q0 -59 56 -79l34 -45v-12q0 -25 -11 -45q11 -22 11 -34q-45 -74 -45 -169h11q6 0 46 11q11 0 11 -11l56 11l68 -11q19 11 57 11 q11 0 11 -11q73 0 113 147q15 0 68 226q135 64 135 124h57q56 -39 56 -124q-16 -15 -68 -125q-52 -127 -79 -147l-11 -79v-11q113 -11 113 -23l57 12h22q96 0 237 -23q12 0 12 11q135 -11 135 -45v-11h-22l11 -79v-23h-34q-136 46 -147 46q-39 -12 -45 -12q-78 12 -102 23 l-67 -11q-12 0 -12 11l-22 -11l-79 11l-23 -11q-20 11 -45 11h-45q0 -30 -113 -373h90q11 0 11 -11l23 11h113q105 0 192 -11q49 11 169 11q23 0 34 -68q-11 -62 -11 -90q-57 0 -57 22q-11 0 -11 -11q-113 23 -203 23h-11q-12 0 -12 11l-22 -11h-12l-34 22h-11v-22h-68 l-67 11q-20 -11 -46 -11v11l-22 -11q-11 0 -11 11l-23 -11q-22 11 -34 11q-56 -79 -56 -124q11 0 11 -11q-27 0 -57 -68v-12l12 -79q-17 0 -34 -34q0 -11 11 -11q-21 -147 -45 -147h-57v-11h-22q-26 5 -91 226q34 68 34 79l-11 23q34 92 34 158l23 -12q0 26 11 46h-11 l-12 -23q-90 11 -90 23q-11 0 -11 -12q-63 12 -91 12l-56 -12l11 -22q-68 -182 -124 -373q-27 -68 -45 -68q-19 -11 -57 -11q-45 8 -79 90q-56 0 -56 79v57q33 47 67 214q12 0 12 12l-102 22q0 -22 -34 -22q-11 0 -11 11q-12 0 -34 -11l-181 11q-12 0 -34 -11q-22 11 -34 11 l-22 -11q-47 15 -68 56zM961 848q11 -20 11 -46h45q34 0 34 -11l170 23q0 -12 11 -12q41 158 57 158l-12 23v34h23v90q45 0 45 68h-11q-73 0 -158 23v-23l-23 11l-23 -11q-34 11 -34 23q-65 0 -101 -260h-23l12 -23v-11q0 -56 -23 -56z" />
<glyph unicode="$" horiz-adv-x="1660" d="M24 667v56l68 12q56 -65 56 -102q0 -17 181 -260q65 -157 226 -226q0 45 11 45l-11 23l68 215l-12 22l34 124v34h12v34q0 41 45 91v11q-23 0 -23 11q23 70 79 418q-30 0 -68 23q0 -23 -22 -23l-57 34q0 -11 -11 -11l-34 45q-64 0 -147 90q-34 51 -79 91v11q0 11 12 11 l-34 113l11 23l-11 45q40 260 124 260q0 42 124 147q42 22 170 56l158 -22l22 33q-22 0 -22 23q22 37 22 68l-11 56q11 20 11 45q0 12 -11 12q0 120 68 169q11 0 11 -11l23 11q15 0 45 -68v-67q0 -12 -11 -12l11 -22v-12q0 -22 -23 -22l12 -23v-11q0 -11 -12 -11 q12 -22 12 -34q0 -65 -23 -136q29 0 136 -79q21 -17 56 -102q28 0 57 -124q-23 -37 -23 -56h-68q-23 8 -68 158q-42 0 -56 68l-34 22q-30 0 -79 -384h-11l-34 23l11 -23q0 -78 -22 -214l11 -57q-11 0 -11 -11h22l57 11q0 -23 113 -34l11 -22l22 11q52 -22 57 -45l23 11 q21 -11 33 -11l-11 -23h11q0 11 12 11q282 -242 282 -429q0 -51 11 -68q-79 -299 -180 -372l-136 -125h-11l-23 12q0 -26 -90 -79q-170 -68 -384 -113q0 -23 -45 -23q0 -34 11 -34l-11 -56v-46l11 -22q-45 0 -45 -136q0 -12 11 -34q-11 -21 -11 -33h-23q-8 56 -34 56h-11 q-8 -56 -34 -56q-22 11 -34 11v11q0 11 11 11q0 12 -11 12q23 178 23 282q-12 0 -12 11q34 0 34 79q-94 0 -214 159q-64 73 -113 180q-161 215 -170 215l12 23v11zM634 1491q34 0 34 -22l-11 -57l67 -101l46 -12l33 136l-11 23l11 22l-11 23q23 135 57 260l-12 22 q31 113 46 113q-12 20 -12 45q-46 -22 -68 -22q0 11 -11 11l-34 -45q-78 0 -101 -136q0 -68 -23 -68l11 -22v-57q12 0 12 -11l-12 -23l12 -22zM690 125l181 67q2 21 237 215q23 65 68 339l-11 22l11 23q-42 260 -113 260q0 87 -203 113q-45 -294 -45 -384q0 -12 11 -34 l-23 -45l12 -23q-34 -71 -68 -316q-57 -175 -57 -204v-33z" />
<glyph unicode="%" horiz-adv-x="2042" d="M53 -124q16 69 192 271q28 0 68 91q29 0 113 124h11l-11 22q45 32 135 170q110 158 136 158q0 57 260 384q0 23 45 45q0 34 135 226q36 68 57 68l260 373q12 0 56 67q45 0 45 34h102q25 -20 102 -34l34 -56q-12 -20 -12 -45l23 -34v-11q-54 0 -79 -46q-91 -75 -181 -225 l-56 -68q0 -24 -57 -68q0 -30 -68 -79q-34 -102 -56 -102q-71 -90 -102 -90q-28 -96 -135 -215q0 -31 -170 -248q0 -27 -45 -91q-45 -28 -68 -101q-48 -3 -113 -136q-20 0 -67 -79v-11l11 -23q-37 0 -113 -124q-30 0 -124 -136q-102 -87 -102 -135q-12 0 -34 -12h-34v-11 q-49 42 -147 79q0 9 -11 68zM234 1729v158q0 46 56 90q0 79 158 124q160 0 249 -135q0 -65 11 -79l-11 -23l11 -22q-51 -195 -113 -238q0 -11 -34 -22l-22 11q-45 -23 -79 -23v12l-23 -12h-34q-58 0 -68 34l-22 -11q-79 57 -79 136zM358 1717q26 0 45 -22q147 26 147 90 q11 0 11 11v12h-22v34h22v11q0 10 -22 90h-12l-56 -11v23h-23l-79 -80q-11 -141 -11 -158zM1284 12q17 1 57 135q78 204 226 260h34q192 -47 192 -102l22 12q22 -12 34 -12l-11 -45q31 -87 68 -113q-17 -45 -34 -45l11 -57v-33h-23l12 -23q-51 -132 -125 -215l-22 12 q-70 -46 -215 -57v11l-22 -11l-23 11q-22 -11 -34 -11q-124 102 -124 136q-14 121 -23 147zM1454 -113q45 -22 79 -22q154 0 214 203v11q-11 0 -11 12h23l-23 79q11 0 11 11q-14 0 -79 68l-45 -23q-22 12 -34 12q-82 -53 -90 -136q-38 0 -45 -215z" />
<glyph unicode="&#x26;" horiz-adv-x="1950" d="M63 328h11l-11 22v260q4 23 23 23l-12 22q49 168 125 260q64 113 124 113q0 31 147 136v45h11l23 -11v11q-102 219 -102 463l34 181v34q26 0 34 68q26 67 45 67h11l-11 23q158 93 158 124l56 -11h12q31 27 90 45v11h23q0 -22 11 -22q22 11 34 11v-11q58 22 90 22 q82 -11 102 -22q20 11 45 11h23q0 -54 113 -102q0 -45 22 -45q43 0 68 -260v-22l-68 -124q0 -66 -147 -192q0 -43 -79 -102v-34l-22 11q0 -34 -23 -34h-11l-23 12q0 -38 -79 -79q0 -18 -135 -147q0 -34 -46 -34v-57q37 0 147 -192q335 -363 407 -395h23q135 205 135 418v68 l11 56h80q22 -3 22 -22v-57h34v-22q-34 0 -34 -23v-23l11 -79q-15 0 -45 -169q-8 0 -34 -57q12 -19 12 -45q-19 0 -79 -169q124 -68 282 -192q124 -38 124 -125v-11l-11 -22q-127 2 -316 169q-113 56 -113 79v11h-46q0 -72 -203 -226q-155 -124 -237 -124q-167 -68 -271 -68 v12l-23 -12l-181 57l-22 -11l-124 45q0 15 -113 113q-57 98 -102 350zM312 350q22 -79 33 -169h-11q45 -98 79 -113q0 -54 102 -102q11 0 11 -11q28 11 113 23q79 -27 79 -45q260 68 260 112q36 0 181 136q79 65 79 124q-49 0 -429 407q-76 121 -170 226q-112 -83 -135 -158 q-27 -1 -181 -271l11 -23q-22 -58 -22 -90l11 -23zM526 1525q14 -104 34 -135q-11 -22 -11 -34l56 -91q60 0 237 193q37 67 68 67q0 19 147 238q34 75 57 169q0 99 -68 113q0 11 -12 11h-33q-34 16 -34 23l-23 -11h-11q-11 0 -11 11q-232 -68 -283 -158q-34 -10 -79 -136 l-23 -22l12 -23v-34q0 -31 -23 -68l11 -22l-11 -23l11 -45z" />
<glyph unicode="'" horiz-adv-x="712" d="M222 1683q102 155 215 791l34 23h22l34 -23q56 0 56 68h23q0 -34 45 -57l23 12h56q12 0 12 -12l22 12q57 0 91 -113q-32 0 -91 -68l12 -23q-71 -154 -125 -214q-90 -154 -90 -192l-23 11q-34 -107 -34 -113q-36 -62 -79 -90l-79 -125h-90q-34 40 -34 113z" />
<glyph unicode="(" horiz-adv-x="1441" d="M274 1051q23 270 79 429l-11 23q45 66 68 192q26 82 146 293q0 31 79 147q0 27 204 192q58 79 124 79q0 -33 68 -56q0 -90 -91 -124q-64 -42 -79 -158q-74 0 -158 -396h-11l-23 11q0 -11 12 -11q0 -12 -12 -34l12 -79q-19 -90 -34 -90l11 -23v-11l-34 -45q0 -12 11 -12 q-11 -135 -22 -135q0 -11 11 -11q-14 -101 -22 -125l11 -22l-11 -45q11 -22 11 -34q-11 -34 -23 -34q12 -22 12 -34q0 -11 -12 -11q14 -101 23 -125q-11 -24 -23 -101q12 -20 12 -46l-12 -22l12 -23l-12 -135q12 -22 12 -34h-12l12 -23l-23 -34q58 -372 147 -372 q124 -226 237 -226q0 -14 45 -23q20 11 45 11q4 -22 23 -22h23q0 34 22 34q79 -29 79 -91h-11q-22 12 -34 12v-57h23v-11q0 -16 -34 -34q-26 0 -45 11h-34v12h-23q-147 0 -395 225q-99 0 -158 136l11 23q0 47 -90 282q-23 173 -34 192l11 23l-79 305l11 22z" />
<glyph unicode=")" horiz-adv-x="1399" d="M125 -293q173 101 226 101q135 110 135 125q136 62 136 214l23 11l-12 23v11q47 0 68 91q0 22 23 22v12l-12 22q20 0 68 124q0 12 -11 12l11 56v102q23 22 34 158v45h11l-11 23v11q0 11 11 11l-11 23v113q0 11 11 11l-11 23v22q0 34 11 34q-14 106 -22 136q22 57 22 79 q-11 45 -11 79q11 0 11 11q-22 0 -22 23v34q0 11 11 11q0 42 -56 203h22v57q-50 271 -68 271q-85 226 -146 226q-12 22 -12 34l-22 -11q-42 33 -79 33q0 -11 -12 -11q-22 37 -22 57h-23l-22 -12q-24 46 -57 46v11q0 11 11 11l-11 23v11q30 56 45 56h12q11 0 11 -11l22 11h12 q22 0 22 -33l23 11l147 -79q11 0 11 -11l57 11h45q0 -20 34 -68q0 -51 135 -192q76 -65 113 -237q16 -23 34 -23v-11q0 -11 -11 -11q22 -34 45 -204q26 0 34 -373q0 -12 -12 -33q5 -57 34 -57v-11l-34 -45q23 -47 23 -68q-11 -77 -11 -124l11 -23l-23 -56q12 -20 12 -46 l-23 -34v-101q0 -12 -11 -12l11 -22v-34q-25 -26 -34 -147q-17 0 -45 -102q-29 0 -102 -180q-105 -157 -203 -226q-20 -86 -305 -260q-23 0 -169 -79l-68 -11q-34 72 -34 113z" />
<glyph unicode="*" horiz-adv-x="1598" d="M220 1661q16 102 169 102q0 22 46 22v-11q292 79 372 79q-180 141 -180 271v56q0 91 67 91l68 -91q0 -104 79 -192q0 -67 79 -67q15 181 23 203q-11 22 -11 34q22 37 22 56q-22 0 -22 23v23q0 60 34 180v45q8 0 67 12q79 -65 79 -79q0 -50 -45 -113q0 -12 12 -34 q0 -68 -34 -68v-79q108 142 237 384q59 11 68 11q56 -51 56 -101q-34 -88 -124 -158q0 -17 -102 -147q0 -42 -79 -102q0 -18 -56 -90v-23q147 45 395 68q68 0 68 -57l-12 -22q12 -20 12 -45q-97 -23 -124 -23v11q-21 -11 -113 -22q-12 0 -12 11l-56 -11h-34q-11 0 -11 11 q-41 -23 -102 -23v-22q111 -72 147 -147q34 0 90 -79h57q45 -75 45 -102q-20 -11 -45 -11q11 -22 11 -34q-17 -45 -34 -45h-23q-57 36 -90 113q-7 0 -135 135h-12v-45q0 -25 12 -45q-12 -20 -12 -45q0 -113 68 -181v-45q-56 0 -56 -45h-80l-11 45h11l-45 215q12 19 12 45 q-12 22 -12 34h12q-23 36 -23 146h-11q0 -41 -79 -146l-34 -113h-45v22h-23l-34 -22q-45 18 -45 79v22q30 0 79 68h11l-11 23l68 147q-294 -37 -294 -68l-56 11h-12v-11h23q0 -46 -226 -102z" />
<glyph unicode="+" horiz-adv-x="2010" d="M186 1017q31 68 136 68h22q0 30 113 45h23q45 -18 56 -68l23 11h11q11 0 11 -11l23 11q34 0 34 -11l56 11h158q34 0 102 407q0 28 91 260h90q0 -38 56 -45l46 -68v-11q0 -79 -23 -79q11 -15 11 -57q-56 -249 -101 -361q112 -12 169 -12h34l56 12q0 -19 68 -34 q68 11 68 22l56 -11h12q135 14 135 45h34q0 -41 45 -56l-22 -91q11 -22 11 -34l-34 -22h-11q-23 0 -23 22q-112 -11 -169 -11h-23q-25 0 -45 11l-23 -11q-11 0 -11 11l-56 -11h-34q-170 0 -170 23q-34 -12 -34 -23l-56 11h-11q-27 0 -113 -338h-12l12 -23l-23 -34v-68 q-30 0 -56 -180q-15 -4 -46 -113q12 -20 12 -46q-39 -90 -57 -90h-34l-79 23q0 -23 -22 -23h-23q-23 5 -45 57q68 130 68 158v34q22 1 68 113l-12 22v11q31 32 79 260l-11 23q23 45 45 192l-22 11q-12 0 -12 -11q-21 0 -90 22q-75 -33 -102 -33v11l-22 -11q-57 0 -57 22 q-91 -34 -192 -34h-34q-124 0 -124 102z" />
<glyph unicode="," horiz-adv-x="945" d="M-87 -768q0 73 68 79q0 21 56 91q68 83 102 169q27 0 90 181l-11 22l11 23l-11 45l34 102q-11 0 -11 11q36 0 67 237q19 0 46 79h33q32 0 125 -67q169 -34 169 -125q0 -47 -56 -79q0 -29 -57 -79q0 -41 -101 -124q0 -56 -170 -305q-207 -319 -260 -350h-22v22l-57 -11 q-27 79 -45 79z" />
<glyph unicode="-" d="M187 960q40 46 79 46v22h11l23 -11q0 11 11 11v-22l23 11q106 -23 169 -23h34q23 -3 23 -22q37 22 68 22q30 0 67 -22q4 22 23 22h79q144 0 294 23v-11l22 11h23l22 -11q0 18 181 56v-11q87 22 463 45q12 -22 12 -34q-27 -135 -91 -135q0 -23 -22 -23h-12q0 34 -33 34 v-23l-80 12h-33q-249 -18 -249 -46l-56 12h-23q-25 0 -45 -12q-20 12 -45 12v-23l-57 11h-11l-45 -33h-12l-22 11l-12 -23l-192 23q-96 -23 -113 -23q-79 8 -79 23l-56 -11h-34l-79 22q0 -22 -34 -22l-45 11q-20 -11 -45 -11v11l-23 -11h-23q-56 25 -56 112z" />
<glyph unicode="." horiz-adv-x="912" d="M188 -180q79 192 260 192q108 0 158 -91q34 0 56 -147q-25 -124 -56 -124q-90 -68 -226 -68q-156 0 -192 238z" />
<glyph unicode="/" horiz-adv-x="1666" d="M178 45l124 170h23l-11 23l67 112q62 142 125 226q-12 22 -12 34q57 32 57 102q61 58 158 248q45 53 45 80l90 124v11h12l22 -11q0 89 91 169q93 176 192 249l101 169q8 0 57 45q-23 0 -23 23q64 49 91 136q22 0 124 158q73 72 192 237l45 68q12 0 34 11q30 0 68 -79v-23 q-160 -194 -316 -452q-130 -171 -159 -180q0 -34 -237 -350q-129 -220 -203 -317q-118 -170 -203 -350q-46 -17 -68 -135q-109 -147 -170 -305q-46 0 -147 -272l-45 -45h-34v57l-56 -34q-34 0 -34 101z" />
<glyph unicode="0" horiz-adv-x="1697" d="M223 622l11 45q-11 98 -11 169q3 57 23 57l-12 56q146 658 384 847q48 71 159 125q0 22 11 22l22 -11q34 0 34 34q136 -6 136 -23l22 12q243 0 385 -125q146 -194 146 -339q12 0 12 -158q0 -25 11 -45q-8 -14 -23 -158l12 -45q-14 -113 -34 -113l11 -23 q-25 -161 -79 -282q0 -12 11 -12q-11 -79 -45 -79q0 -11 11 -11l-11 -56q11 -22 11 -34q-47 0 -79 -170q-102 -207 -180 -226q0 -36 -260 -124v-22h-34q-11 0 -90 -23h-34q-195 0 -373 147q0 26 -79 158q0 49 -23 102q11 19 11 45q-28 0 -56 260zM370 644q11 -24 22 -101 q-11 -45 -11 -80q23 0 23 -33q-12 -22 -12 -34q13 0 80 -226q0 -51 203 -125h68q0 26 169 170q61 91 147 373q45 243 124 406q-22 58 -22 79q22 0 22 23v136q0 11 11 11q-11 22 -11 34q27 90 34 90q-11 34 -23 34l12 57v56l-12 68q12 22 12 34q-31 169 -170 169l-158 -45v11 q-89 -34 -113 -34v23q-166 -180 -237 -350l-124 -317l11 -22v-45l-34 -79h-11v-68l11 -68q-11 -22 -11 -34l11 -22l-11 -23l11 -68h-11z" />
<glyph unicode="1" horiz-adv-x="1353" d="M142 -293q0 90 68 90q25 0 45 11l56 -11q58 0 204 34l-12 22l12 80l-12 79q9 169 23 169q7 0 23 34l-12 23v33q4 170 23 170l-11 22l11 23l-11 23q18 72 45 90l-11 56q22 190 45 215l-12 23q23 41 23 90q0 12 -11 34q11 102 22 102q0 11 -11 11q0 12 11 34 q-11 113 -11 169q11 34 23 34q-12 20 -12 45h-11q-87 -101 -102 -101l12 -23v-23q-81 0 -147 -180h-11l-23 11q0 -16 -34 -34q-67 0 -113 68q0 90 147 215q142 164 215 282q20 0 67 68l125 101h11v79q72 23 90 23l79 -68q-34 -320 -56 -395l11 -57v-56q0 -23 -22 -23l11 -56 v-34l-11 -68q0 -11 11 -11l-11 -79v-79q0 -26 11 -45q-30 -181 -45 -181l11 -79v-23l-11 -68q0 -11 11 -11l-11 -56v-34q0 -26 11 -45l-11 -23l11 -45q-23 -45 -23 -79l12 -45q-23 -79 -23 -136v-11h23v-12q0 -22 -34 -22l11 -57q0 -28 -23 -101q12 0 12 11l56 -11 q28 0 158 22q12 0 12 -11l56 11h11q64 0 80 -68q15 -22 33 -22q0 -65 -79 -79q-113 11 -113 22l-271 -67v-12l-56 12h-57q-70 0 -271 -68l-22 11q-102 -22 -147 -22l-57 45q12 0 12 11q-23 0 -23 23z" />
<glyph unicode="2" horiz-adv-x="1631" d="M66 -90q34 0 181 181q28 0 305 316q113 179 113 192q46 0 67 56v57q50 0 68 68h34l-11 22v34q37 0 68 91q237 442 237 519q22 0 22 23q-11 20 -11 45l23 11q0 12 -12 12l12 56l-23 34l11 23q-102 62 -113 79l-22 -12h-11q-34 7 -34 79q-188 -26 -215 -45 q-188 -67 -282 -203q-12 0 -12 11q-56 -5 -56 -34q-79 0 -79 91v79q11 0 11 -12q20 0 113 80q131 62 215 124q22 -12 34 -12q0 31 158 57l22 -11q53 22 102 22q169 -5 169 -22q125 -38 125 -79l22 11q61 -24 125 -203h-12q12 -22 12 -34q0 -226 -46 -226q-13 0 -22 -45 l11 -23q-55 -164 -90 -203h-12l12 -23q0 -23 -34 -23v-56q-136 -237 -170 -249q12 -21 12 -33q-46 0 -91 -136q-174 -215 -192 -215q0 -79 -113 -158q-156 -236 -282 -384v-34q19 0 68 -22l22 11q57 0 57 -23q11 0 11 12q290 -46 407 -46h67v-22l34 22l23 -11q20 11 45 11 q11 0 11 -11l147 23v-12q30 9 136 23q90 -18 90 -45v-23h-11l-23 12v-57h23v23q23 -4 23 -23v-22q0 -23 -125 -34v11l-22 -11l-79 11q-100 -11 -125 -11l-79 22q-22 -11 -34 -11l-56 23q0 -23 -34 -23l-23 11q-19 -11 -45 -11v11q-11 0 -11 -11l-136 23q-22 -12 -34 -12 q-180 23 -180 45l-45 -11q-141 0 -339 90q-102 46 -102 170z" />
<glyph unicode="3" horiz-adv-x="1945" d="M156 147v45q19 0 56 34q44 0 102 -56l-11 -57v-22q0 -41 11 -102q-11 -22 -11 -34l11 -22q-11 -22 -11 -34q20 0 45 -113q53 -63 215 -91q11 0 11 12l136 -12h22q55 91 249 91q99 22 180 90q13 26 102 90q98 181 113 181l-11 23q22 33 67 248q12 0 12 12q-12 21 -12 33 q37 0 46 317q-29 90 -68 90q-44 0 -113 79l-23 11l-22 -11q-54 34 -170 34h-22q-26 0 -45 -11q-20 11 -46 11q-21 0 -90 -34q-22 11 -34 11q0 -22 -23 -22q-22 0 -22 22l-57 -11h-22q-68 45 -68 102q-23 0 -45 90l135 181q152 65 362 192q-11 0 -11 11q78 0 158 113 q68 36 68 57l101 45v11l-22 34q-22 -11 -34 -11l-68 11q-12 0 -34 -11q-62 11 -90 11q-12 0 -34 -11l-124 22l-23 -11l-45 11l-23 -11q-11 0 -11 11q-101 -13 -124 -22q-12 0 -12 11q-96 -22 -113 -22q-124 0 -124 101v34q7 34 90 34h23q25 0 45 -11l23 11q11 0 11 -11 l79 11h11q38 0 57 -11l68 11h22q23 -4 23 -23q37 23 56 23l57 -11v22q12 0 102 -34q3 23 22 23l23 -11h34q0 -12 56 -23l23 11h79q11 0 11 -11q11 0 11 11l57 -11q11 0 11 11l57 -11q18 0 135 11q0 -11 57 -79q0 -131 -396 -474l-22 11q0 -59 -181 -124q0 -11 -136 -102v-11 q12 0 12 11q257 -37 293 -79q22 11 34 11q119 -41 181 -124q188 -212 215 -418q0 -11 -12 -11q23 -96 23 -113l-23 -11l12 -23l-12 -68l12 -22q-105 -355 -260 -463q-33 -80 -215 -170v-11h-56q-161 -26 -271 -68q-12 0 -12 11l-56 -11h-11q-12 0 -12 11q-19 -11 -135 -22 l-23 11q-11 0 -11 -11q-422 22 -429 135q-81 0 -113 204l11 22l-23 79l12 23q-23 44 -23 124z" />
<glyph unicode="4" horiz-adv-x="2114" d="M162 836l56 91q74 113 91 113q0 45 102 113q0 33 33 33l-11 23q68 76 68 102q-11 22 -11 34l22 11l45 -23q1 51 192 237l113 136q-11 0 -11 11q37 0 170 181q85 102 112 102q0 25 136 147q184 113 192 113h11q59 0 147 -91q48 -22 57 -22v-113h22v-57q0 -11 -11 -11 l11 -23q-25 -56 -34 -56l12 -23v-11q-23 -15 -57 -249l12 -56l-46 -102q23 -3 23 -22v-46l-23 12q0 -76 -34 -181v-11l12 -79h-23v-57q-22 -109 -22 -124v-34l237 23l22 -12q57 5 57 34q22 -11 34 -11q100 11 124 11l11 -22v-12l-22 -34v-45q34 0 34 -34q-85 -22 -159 -22 h-22v-23l-57 11h-101q-12 0 -12 12q-73 -34 -180 -34q0 -42 -91 -531l12 -23q-23 -36 -23 -56q11 0 11 -11h-22q0 -12 11 -34l-11 -57q0 -11 11 -11q-68 -472 -90 -520l-23 -11h-68l-79 79h-45q0 -34 -23 -34q-11 45 -45 45v46q0 25 -11 45q20 36 34 135l-11 23v34h33v90 l-22 34l22 11q0 -11 12 -11q0 100 67 361q-22 37 -22 57q22 0 68 260q-12 20 -12 45l-22 -11h-23q-11 0 -11 11q-26 -9 -147 -23q-37 23 -68 23h-45l-34 -23q-34 0 -34 12l-56 -12h-79q0 34 -23 34q0 -9 -34 -34l-56 12q-12 0 -34 -12q-170 42 -339 147zM388 881 q0 -14 79 -45q11 0 11 12l136 -12h147q112 0 271 12l22 -12q159 26 159 34l56 384l-11 23v11q0 23 34 23l-12 22q0 12 12 12l-12 22v45q20 26 46 147q-57 74 -57 113v45q0 12 11 12l-11 22v12q4 22 23 22l-12 23l12 45l-12 22l12 68h-23q0 -42 -271 -305q0 -52 -113 -124 q-97 -143 -226 -260q0 -46 -45 -101q-79 -63 -79 -91q-48 0 -136 -181h-11z" />
<glyph unicode="5" horiz-adv-x="1969" d="M150 1006v34q6 90 45 135l-22 45l45 283q0 34 22 34l-11 22v45l11 68q-22 46 -22 68q22 41 22 90v23h23v11h-23v34l12 23q-23 0 -23 22v57q58 45 113 45l23 -11q7 34 90 34q0 -12 11 -12q0 56 238 91q38 56 474 90l23 -11q21 11 33 11l23 -11q20 11 45 11q45 0 91 -68 v-11q-31 -79 -46 -79h-56v22q-62 0 -158 12q-41 -23 -102 -23l-22 11q-9 0 -102 -45v12q11 21 11 33h-45q0 -57 -169 -79q-17 0 -113 -56q11 -59 11 -68q-27 -90 -34 -90l11 -23v-11q-56 -130 -68 -294q-15 -34 -22 -34l11 -22v-12l-22 -34h22v-11q0 -11 -11 -11l11 -23v-11 q-34 0 -34 -68q37 -22 57 -22q0 14 79 45h11l23 -12q0 34 11 34q24 0 328 68h22q20 -11 45 -11q4 22 23 22q11 0 11 -11l23 11h45q11 0 11 -11q77 34 91 34l11 -23l23 12h22q339 -136 339 -226q18 0 45 -45q26 0 34 -68q8 -57 34 -57q0 -45 23 -45q34 -44 34 -214 q0 -26 -12 -46l12 -67v-34q0 -192 -23 -192l11 -23v-11q-52 -1 -68 -170q-15 0 -79 -147l-90 -79q0 -47 -68 -67l12 -23v-11q-19 0 -68 -57q-182 -158 -373 -158q0 -22 -68 -22q-20 11 -45 11q0 -23 -23 -23h-79q-22 0 -22 23q-9 0 -68 -11q-201 0 -361 135q-44 0 -102 102 q-113 158 -113 192q0 61 56 79q11 0 79 -57q0 12 12 12q9 -97 135 -249q185 -102 350 -102q22 12 34 12v-12q37 23 57 23l45 -11q124 22 158 45q0 11 -11 11q0 71 79 91q130 107 158 192q63 0 90 214h12q0 12 -12 12l23 113h-23v22l34 57q-11 22 -11 34l11 22q-11 22 -11 34 q23 39 34 113q-11 126 -11 226v68l-46 113q-145 124 -192 124q-41 -23 -90 -23q-11 0 -11 12l-102 -23q-22 11 -34 11q-18 0 -192 -45v11l-22 -11q-22 11 -34 11q0 -11 -12 -11l12 -22v-12h-91q-161 -77 -237 -135q-30 0 -68 -34h-113l12 -23h-23q0 20 -79 57z" />
<glyph unicode="6" horiz-adv-x="1967" d="M221 373l11 102q0 14 -11 113l23 11q-23 57 -23 79h23v23q0 25 -12 45q29 135 45 135l-22 113q19 0 45 68l-11 23q26 68 45 68q0 11 -11 11l11 56q-11 22 -11 34q32 0 79 192h22v23q0 86 215 384v34q22 0 113 124q68 24 68 90q67 16 67 57q23 0 147 113q0 37 113 56 q57 -8 57 -34q0 -11 -12 -11l12 -22v-46q-102 -92 -136 -169q-53 0 -68 -57q-45 -30 -45 -67l-22 11h-12q-180 -329 -180 -599q-34 0 -34 -34q11 -19 11 -45l-23 -34v-11l23 -34l-23 -34l12 -22q-12 -20 -12 -46l12 -22q-26 -147 -34 -147q0 -11 11 -11q-22 -206 -22 -249 q8 -45 22 -45l-11 -79v-45q0 -26 11 -45q-11 -20 -11 -46l22 -34l-11 -22q43 -120 68 -237q34 0 34 -23q-11 0 -11 -11h11q0 11 11 11l-22 68l11 56l-11 68h11l-11 23q67 298 135 350v56q39 0 68 91q46 0 56 68q20 0 102 90q23 0 102 56q22 0 22 23q12 0 12 -11 q120 34 180 34h34q11 0 11 -12q12 0 12 12q120 0 282 -204q37 -135 68 -135v-46q0 -11 -11 -11l11 -22v-34q0 -12 -11 -12l11 -22v-11q0 -12 -11 -12q11 -22 11 -34l-11 -45l11 -22q-11 -20 -23 -102q12 0 12 -11q-10 0 -46 -79l12 -23q-37 -61 -79 -170q-11 0 -113 -124 q-43 -43 -204 -135v-23l-45 11q-140 -64 -339 -101q-350 45 -508 147q-192 203 -237 440q-38 112 -68 113zM933 147q25 -192 67 -192q34 0 34 -11q231 34 475 203q41 26 113 124q90 0 90 136q15 0 23 90q-23 0 -23 12q34 55 34 146v12q-12 103 -192 226q-45 0 -45 11 q-270 0 -475 -350q-45 -98 -90 -294l-11 -22l11 -68z" />
<glyph unicode="7" horiz-adv-x="1655" d="M93 1921q11 19 11 45q-11 22 -11 34h56q34 0 34 11q143 -14 170 -23l22 12q124 -23 170 -23q34 11 34 23l56 -23q20 11 45 11h12q11 0 11 -11l23 11h22q11 0 11 -11q22 11 34 11l46 -11q11 0 11 11l79 -11h56l260 34l23 -11l22 11q20 -11 46 -11l11 22l56 -11h12l45 34 q37 -23 68 -23q45 29 45 46q37 -23 68 -23l79 11q0 -22 45 -22l-11 -79h33q0 -72 -113 -192q0 -49 -112 -215q0 -31 -57 -68q-85 -221 -226 -429q-97 -199 -316 -542q-16 0 -34 -68q-164 -204 -226 -373q-45 -116 -192 -271q0 -13 -68 -68q0 -45 -90 -45h-23q0 16 -90 102 l-23 56l23 45q-11 20 -11 46l22 -12h23q0 42 68 124l22 12l-11 22v12q32 0 101 158q23 0 113 181q33 93 102 203q0 -11 11 -11l57 101v34q45 0 45 34q-11 0 -11 11l22 12l-11 22v12q81 46 124 180q26 0 34 57l91 147q-12 0 -12 11q35 0 79 124h23l-11 23v22q30 0 90 147 q68 79 79 124q-11 0 -11 12q79 70 101 180h-11l-158 -33q-11 0 -11 11q-126 -14 -158 -23q-22 12 -34 12l-23 -12q-45 9 -45 23q-11 0 -11 -11q-12 0 -34 11q-78 -11 -125 -11h-22q-11 0 -11 11l-23 -11h-11q-26 0 -45 11l-23 -11q-116 11 -181 11l-135 -11l-79 22 q0 -22 -23 -22h-45q-68 36 -68 79z" />
<glyph unicode="8" horiz-adv-x="1844" d="M148 12l34 180l-11 23v11q67 132 67 158v34q28 0 79 125q118 158 147 158q0 30 -113 90q-120 131 -124 237v125q3 135 23 135l-12 23q83 318 294 542q211 153 429 181q0 11 12 11l22 -11q12 0 34 11q222 0 441 -249q67 0 67 -67q125 -79 125 -226q11 0 11 -34 q0 -277 -124 -407q-52 -87 -215 -203q-90 -44 -90 -57q276 0 440 -271q0 -28 12 -90q-12 -22 -12 -34q12 -22 12 -34l-23 -11l11 -23q-7 -169 -45 -169l11 -23q-39 -96 -214 -305q-66 -49 -91 -90q-25 0 -158 -102q-165 -34 -192 -56h-68l-22 11q0 -18 -79 -45 q-201 0 -486 124q-119 136 -136 136q-18 56 -45 192h-11zM306 0q11 -118 124 -226l23 12h23q0 -37 124 -68q70 14 113 45l22 -11l79 22v-11l23 11h57q0 23 11 23q229 0 339 158q0 37 135 339l-11 56v80q-228 237 -418 237h-124q-249 -38 -339 -136q-63 -85 -113 -214 q-14 -34 -34 -34v-23q-34 -227 -34 -260zM363 1040q41 -117 90 -147q56 -54 56 -68h23q147 -34 192 -34q172 0 339 192q149 117 215 305l11 23v124q3 56 23 56l-12 46l12 79q-6 77 -91 169h-68q0 34 -101 68l-136 -23q-68 15 -68 34q-160 -63 -305 -214q-114 -238 -135 -238 l11 -22l-45 -136q0 -11 11 -11z" />
<glyph unicode="9" horiz-adv-x="1707" d="M155 -293q59 50 249 101q300 160 316 215q27 38 79 56q82 88 158 192q34 2 124 159q13 0 91 203l-158 -34q-22 11 -34 11l-23 -11q-11 0 -11 11l-57 -11h-79q-11 0 -11 11l-23 -11q-82 0 -101 34l-23 -11q-316 87 -316 180q-51 0 -68 102q-11 0 -11 11l11 23 q-20 90 -45 90q42 393 90 452l68 181q37 0 90 90q27 0 136 91q124 45 192 45h22v22l57 -11h102q0 34 56 34q47 -16 68 -57l22 12q144 -31 181 -57q142 -70 237 -361l57 -158q0 -65 -23 -136q23 -3 23 -22q-34 -107 -34 -113q11 -22 11 -34q-22 -12 -34 -12l12 -79v-11 q0 -52 -57 -136l12 -22q0 -22 -91 -147h23q0 -45 -124 -215q0 -23 -34 -67v-12l22 -11q-11 -45 -56 -45l11 -23v-11q-49 -57 -90 -147q-42 -46 -113 -90q0 -26 -192 -147q-147 -46 -147 -79v-12l-23 12q-83 -73 -226 -113q-16 -24 -101 -45q0 -18 -46 -46h-56 q-77 68 -113 68v91zM381 1141q17 -282 90 -282q0 -60 328 -147q57 23 79 23q45 -9 45 -23l57 45v-22q116 0 158 33h22l23 -11q0 45 68 45q0 113 22 170l-11 22l11 79l-11 23q11 57 23 57q0 11 -12 11l12 79q0 173 -102 373q-127 113 -147 113q-11 0 -34 45l-22 -11 q-12 0 -12 11l-22 -11q-12 0 -12 11q-107 -23 -135 -23v12q-316 -128 -316 -272q-38 -67 -46 -67l12 -23q-43 -67 -68 -260z" />
<glyph unicode=":" horiz-adv-x="613" d="M106 79v23q83 113 147 136l11 22q158 -34 158 -68q57 -56 57 -158q-25 -90 -91 -90l-56 -57l-34 23h-113q-79 57 -79 169zM196 1232q31 135 57 135q22 0 45 45q6 0 124 34q4 -22 23 -22h34q45 -105 45 -125v-11q0 -131 -90 -181v-11l-23 11l-79 -34q0 12 -11 34l-68 -22 q0 27 -45 90z" />
<glyph unicode=";" horiz-adv-x="935" d="M-63 -406q212 214 237 316q29 0 45 102q49 0 125 271q17 0 90 158q45 30 45 56q68 -11 68 -34l23 12l56 -23q22 11 34 11q0 -11 45 -33l23 11h11q79 -53 79 -136h-56l11 -22v-12q-109 -172 -181 -237q0 -44 -113 -135l-34 -46q-71 -97 -147 -158q-33 -22 -33 -45l-23 11 q-90 -113 -102 -113q-41 -56 -56 -56l-68 -11q-79 72 -79 113zM468 1469q38 135 124 135q0 12 23 12l22 -12q20 12 46 12q98 -91 135 -91v-79l-11 -22q22 0 22 -12q-33 -81 -33 -113q-87 -72 -204 -101q-113 43 -113 135q0 56 -11 136z" />
<glyph unicode="&#x3c;" horiz-adv-x="1746" d="M32 1040q0 101 90 101q0 25 249 237q8 46 102 113q386 375 598 543q1 23 79 67l226 181v23q106 0 147 -79q-11 -45 -11 -79h-23q-11 0 -11 11q-205 -147 -249 -147q-49 -69 -146 -113q-81 -121 -192 -169q0 -42 -238 -238q0 -16 -90 -101q0 -23 -136 -158l57 -23l22 11 q20 0 136 -90l339 -147q18 0 45 -23h57q0 -33 135 -67q124 -98 339 -125q0 -11 23 -11v-22q0 -12 -12 -12q34 -74 34 -101h-22v-12q33 0 33 -22v-23q-7 0 -45 -22v-23q45 0 45 -23q-11 -22 -11 -34h-11q-11 0 -11 12l-23 -12q-118 23 -136 46q-21 -12 -33 -12 q-76 63 -452 170q-151 48 -158 68l-23 -12h-45q-30 23 -170 45q0 23 -90 34v-22q-32 34 -90 45q-85 68 -91 68h-56q0 33 -181 147z" />
<glyph unicode="=" horiz-adv-x="1650" d="M27 689q0 84 305 102l316 45v-11l23 11h68v-22h11q0 45 181 45h203l68 11q116 -14 169 -22q45 0 45 45h12q39 0 68 -125v-11h-46v-45h-34q-11 0 -11 11l-22 -11h-12q-11 0 -11 11l-23 -11q-38 0 -90 34v-23q-11 0 -11 12l-23 -12l-68 12l-22 -12l-23 12l-22 -12l-23 12 q-40 -12 -45 -12l-45 23q-46 -23 -79 -23l-23 12q-37 -23 -57 -23v11l-22 -11l-57 11l-45 -22l-56 11l-57 -34h-11l-23 11l-11 -22l-56 11q-112 -23 -125 -23h-22q-12 0 -12 12q-38 -23 -203 -57h-45q-19 0 -34 79zM151 1311q38 55 136 67q34 0 34 -11l226 34q11 0 11 -11 q289 22 497 68v-12l23 12h11q11 0 11 -12q34 0 34 45l57 -11h22q34 23 79 34q11 0 11 -11q125 22 159 45q0 -29 45 -45q11 -61 11 -102q0 -23 -68 -34q-22 11 -34 11l-22 -11q-12 0 -34 11q-96 -11 -147 -11l-45 11l11 -22l-135 -23v12q-34 0 -34 -34h-124q0 -34 -113 -34 h-34l-136 11v-23h-11q-11 0 -11 12l-23 -12h-102l-34 -22h-90l-23 11q0 -28 -45 -34q-113 0 -113 91z" />
<glyph unicode="&#x3e;" horiz-adv-x="1779" d="M22 520q0 86 113 124q68 23 429 283q0 29 226 169q0 39 102 79q98 87 282 181v11q-198 147 -214 147q-117 114 -317 226q0 16 -56 34q0 14 -249 226v79h-22v22q34 0 79 12q33 0 158 -136l248 -203q150 -87 362 -249q74 -24 102 -90l56 11h11q156 -124 271 -124 q78 -32 102 -79v-11q-29 0 -34 -57h23v-22q0 -23 -23 -23l-22 11q0 -32 -136 -68l-102 -79q-52 -44 -113 -67q-2 -26 -112 -57q0 -18 -46 -45q-22 11 -34 11q0 -12 -67 -56q0 -23 -91 -34q0 -31 -56 -57q-11 0 -11 12q-74 0 -181 -136q-91 -20 -91 -45q-128 -34 -282 -102 q-32 0 -124 -113q-125 26 -125 57v90q-22 0 -56 68z" />
<glyph unicode="?" horiz-adv-x="1350" d="M69 1537v45q149 201 305 271q229 90 350 90v-11l23 11l22 -11q22 11 34 11v-11q12 0 12 11l135 -22q4 22 23 22h34q226 -127 226 -271l45 -124l-12 -45l12 -57q-12 -59 -12 -113q-18 0 -56 -68q-140 -190 -282 -248q0 -32 -80 -57q-135 -80 -135 -180q0 -79 -23 -79 l12 -23v-34q0 -22 -34 -22v-23h22q0 -11 -11 -11l11 -79v-23q0 -23 -22 -23q22 -46 22 -67q-18 0 -45 -68q0 -11 11 -11l-45 -226l12 -23q-12 -20 -12 -45q34 0 34 -45q-45 -52 -90 -192h-12q-62 0 -90 90l-34 -23h-11v23h-68q-22 73 -22 102v11l22 34v68q39 248 57 248 q0 11 -12 11l91 396h11v22q29 215 79 215l79 90q26 0 45 -11h34v-11h11q215 119 215 192q0 14 45 79l-11 23q45 121 45 169q-15 169 -56 169q-23 28 -23 46l11 56l-124 34l-56 -11q0 11 -12 11v-23l-56 12h-68l-34 -23h-34v-11h-22v22h-12q0 -33 -101 -56q0 -18 -158 -113 q0 -23 -57 -102q0 -31 -79 -90h-11v45l-23 -11h-11q-34 11 -34 68zM272 -542q90 113 102 113q19 11 56 11q80 -53 80 -67q-12 0 -12 -12l23 12h11v-46q-18 -72 -124 -135l-57 11h-11l-22 -11q-46 76 -46 124z" />
<glyph unicode="@" horiz-adv-x="2315" d="M111 1017q18 102 34 102q-23 36 -23 56q23 0 23 23l-11 67l33 80q-11 19 -11 45l23 11l-12 23q12 34 23 34q0 11 -11 11q45 147 68 147q44 152 169 282q39 79 68 79q45 97 192 215l22 -12q127 80 226 80q44 25 192 67v-11q15 14 159 23q0 -12 11 -12q0 28 113 34v-11 l22 11q22 0 79 -22q22 11 34 11q76 -53 260 -124q0 -31 192 -158q124 -194 124 -249v-23q34 0 34 -22v-23l-22 -34v-22h22v-79l23 -34v-23l-11 -22h22v-46q0 -11 -11 -11l11 -22v-68q0 -26 -11 -45q23 -47 23 -68q-23 0 -46 -102l12 -22q-50 -146 -102 -159q0 -22 -11 -22 l11 -23q-86 -160 -113 -181q-48 -67 -79 -67q-71 -88 -192 -136v-11q-26 8 -147 22q-22 -11 -34 -11q0 16 -102 113q-11 150 -33 170l11 22q-167 -124 -203 -124q0 -35 -226 -91v-22q-147 22 -147 34q-79 75 -124 248q11 0 11 12h-23q0 33 12 33l-12 57q0 97 23 158 q-11 22 -11 34q25 10 90 169q166 362 497 362q156 -48 248 -124l23 11q108 0 136 -68q0 -87 -57 -237q11 -22 11 -34q-22 -37 -22 -68l11 -56q-27 -102 -34 -102q23 -138 57 -203q-12 -22 -12 -34q50 -57 57 -57h11q0 34 68 57q106 90 136 147q15 0 56 79q23 0 45 90 q32 100 68 113l-11 57q0 53 11 113l-23 135h12q-23 70 -23 91h11q-22 61 -45 203q11 0 11 11q-17 0 -135 158q-262 192 -373 192h-113q-47 0 -124 12q-41 -23 -90 -23h-23q-11 0 -11 11q-34 0 -68 -90l-57 11h-11q0 -26 -147 -67q-282 -235 -282 -317l-45 -45l11 -23v-11 q-30 0 -79 -158q-13 -5 -45 -102q11 -19 11 -45q-16 0 -45 -90q0 -12 11 -12q-34 -110 -45 -305q23 -36 23 -56h-12q117 -479 317 -610q106 -38 158 -79l22 11h12q76 -56 158 -56h101q12 0 12 -12q59 23 237 23h34v23h11q84 0 237 45q0 22 158 101q12 22 12 34l22 -11 q12 15 12 79q66 0 90 -203q-30 0 -79 -34q0 11 -11 11l11 -22v-12q-353 -169 -531 -169v11l-23 -11h-79q-11 0 -11 11q-65 -16 -102 -34q-37 23 -67 23l-46 -11q0 22 -214 67v-22h-34q0 8 -23 45h-67q-35 42 -159 90q-96 161 -146 204q-93 107 -181 327q-45 138 -57 237 q12 22 12 34q-23 0 -23 23zM789 994q30 -203 101 -203h12l56 11v-11q88 23 226 124q34 0 34 34l23 -11q0 34 56 56l68 102q0 11 -11 11q14 181 33 181q0 11 -11 11l11 113v34l-22 -11h-11v11q0 9 11 68q-11 22 -11 34q11 0 11 11q-119 57 -124 57q-229 -52 -317 -204 q-19 -75 -90 -135q-45 -195 -45 -249v-34z" />
<glyph unicode="A" horiz-adv-x="2038" d="M100 -497q20 0 45 102l-11 23v11q34 0 34 34q169 359 395 949h11l-11 22q23 37 23 68h-23v23q47 0 57 67q29 87 67 147l204 565l-12 23q23 31 46 135h11l-11 23v11q22 28 22 45l-11 23q23 45 23 79q25 0 45 -11q19 11 45 11q56 -102 79 -102v-56q68 -155 68 -170 q169 -455 282 -666q34 -165 136 -396q0 -56 34 -56l-12 -23q66 -106 79 -203q14 0 91 -181q31 -90 68 -90v-23l-23 12q79 -170 158 -441q34 0 34 -11q-20 -91 -79 -91h-23q-90 12 -90 79q-40 196 -181 509q0 33 -56 124q-29 122 -113 249l-57 11q0 -20 -101 -34l-23 11 q-26 0 -169 -22l-23 11l-68 -11v11l-22 -11h-136q-25 0 -45 11q-34 0 -34 -34q-45 17 -45 34q-85 0 -136 -192q-26 -98 -90 -158q-57 -121 -91 -249q-24 -28 -45 -101l-56 -113q-66 -77 -113 -158l-57 -12q-70 0 -79 57q12 19 12 45l-23 34l11 22q-11 22 -11 34zM778 430 q12 0 34 -12q44 12 79 12l22 -12q20 12 46 12h22q26 0 45 -12q22 12 34 12l23 -12q11 0 11 12q12 0 34 -12q213 14 316 45l12 23q-50 189 -125 328q0 24 -101 259q0 38 -68 113v12q0 11 11 11q-56 158 -68 158l-113 -361v-34q-60 0 -79 -158q-22 -4 -22 -23l11 -23 q-18 -90 -56 -90l11 -45l-45 -79q11 -20 11 -45q-29 -46 -45 -46v-33z" />
<glyph unicode="B" horiz-adv-x="1645" d="M111 1706h11l45 23q265 -23 407 -23v-11l23 11q32 -19 158 -45v-11q11 0 11 11q68 -8 68 -23l23 12h11v-23h34q41 0 135 -57q96 0 192 -158q17 -70 46 -101q0 -68 22 -68l-11 -57l11 -45q-18 -68 -34 -68l12 -56q0 -71 -57 -158q0 -26 -56 -102q49 0 90 -56q98 0 147 -91 q36 0 56 -67q28 -23 45 -23l-11 -23q68 -130 68 -192v-79q0 -266 -68 -350l11 -23q-33 -29 -79 -135q-48 -79 -90 -79l-34 -45q-60 -103 -373 -226v11q-222 -79 -429 -79q-11 0 -11 11q-104 -25 -136 -45q-68 0 -68 192v11q0 12 12 12l-12 22l12 23h-23q-11 152 -11 226v68 l-11 79l22 11l-22 203q11 34 22 34q-14 122 -22 147q22 46 22 68q-22 0 -22 22q0 203 -46 373q23 0 23 23v11h-23v11q0 12 12 12l-12 22q0 12 12 12q-23 69 -23 90h11l-11 22q11 20 11 46q-22 0 -22 22v79q0 12 11 12q-23 50 -23 146l12 46q-23 52 -23 113q0 11 11 11 q-11 159 -56 271zM439 1299l22 -90q-11 -22 -11 -34l11 -45l-11 -68q0 -12 11 -34l-11 -68l11 -45l-11 -22l11 -68v-45q0 -12 -11 -12q22 -57 22 -90l23 11h11l23 -11l34 45l79 -11h45q0 30 113 45h11q0 -11 12 -11q11 34 22 34q60 -12 68 -12q181 76 181 147q36 13 79 294 q-27 0 -68 181q-20 33 -113 79v11h-45l-282 79q-12 0 -12 -11q-181 11 -214 34v-79l11 -113q-11 0 -11 -12q16 0 33 -33v-12q-20 0 -33 -34zM484 362q11 -90 34 -170q-23 -3 -23 -22q26 0 79 -396q23 0 23 -113v-146l11 -57q-11 0 -11 -11h11q136 0 441 113q372 262 372 655 l-11 23l11 22q-24 196 -113 271q-133 88 -226 102q0 14 -45 22q0 -22 -90 -33v11q-112 -57 -170 -57v12q-90 -34 -101 -34q-9 0 -68 11q-124 -19 -124 -90l11 -57h-11l11 -22q0 -12 -11 -34z" />
<glyph unicode="C" horiz-adv-x="1426" d="M45 384q11 102 34 192h-23q12 102 23 102q0 11 -11 11q65 381 135 486q65 152 271 395q0 -11 12 -11v11q-12 0 -12 12q17 0 91 79q212 135 406 135h34q204 -45 204 -124q21 0 67 -79h12v-135l-68 -12q-75 98 -91 170q-100 56 -158 56h-34q-53 -45 -67 -45l22 -34v-11h-56 l-34 -23q-11 0 -11 11q-80 -39 -80 -90q-41 0 -90 -113q-54 -87 -79 -90q-90 -141 -90 -215l-23 11v-11h11q-31 -59 -67 -237q-54 -63 -79 -339l11 -23v-67q0 -12 -11 -12l22 -56l-11 -68q22 -3 22 -22l-11 -23l45 -170q53 -180 113 -180v-12l-22 -33q78 -125 101 -125h23 l-23 -34q76 -105 113 -124q0 -53 125 -113q90 14 90 45l23 -11h11q0 14 101 79q110 121 125 192q37 79 101 113q46 -17 46 -34v-34q0 -11 -12 -11q12 -22 12 -34q0 -140 -181 -316l-45 -34q-34 -28 -34 -45h-68q0 -37 -124 -45q-34 -26 -34 -34q-328 50 -328 113 q-92 0 -237 260l-11 56q11 0 11 11l-23 -11h-11q0 66 -34 102v56q-31 0 -56 124h11q-23 49 -45 159q11 21 11 33h-22v23l-12 79h12q-9 24 -23 124z" />
<glyph unicode="D" horiz-adv-x="1396" d="M135 -734q23 102 23 147v68q0 37 -12 56l12 68v192q0 34 -12 34l12 56v249q0 40 11 102l-11 22l11 68q-11 22 -11 34h11q0 11 -11 11l22 136q-11 22 -11 34q11 77 22 101l-22 11l11 57q0 34 -11 34l11 79v102q0 25 11 45q0 11 -11 11l11 57v79q0 53 -11 113q11 44 11 79 q-11 22 -11 34h11l-22 101q11 20 11 45q0 12 -11 12q11 85 22 113q-11 19 -11 45v11l11 79h12q47 0 124 -11q71 34 102 34q196 0 372 -136q259 -289 328 -463l-23 -56q20 -12 46 -12v-11q0 -11 -12 -11q34 -58 34 -113v-12l-11 -22h23v-45l11 -57h-11l11 -22v-12h-23v-45 q23 0 57 -79l-12 -56v-12l12 -56h-12l12 -23q-12 -61 -12 -101l23 -34q-23 -59 -90 -351l11 -22l-136 -339q-24 -58 -79 -113q-76 -126 -124 -136q-202 -181 -350 -203q0 -6 -124 -34v12q-51 -23 -147 -23q-21 0 -68 79zM429 -79v-79l22 -34q-22 -73 -22 -101v-68l34 -57 q-8 -79 -23 -79q0 -11 11 -11l-11 -57v-56q194 57 260 169q38 0 113 102q134 156 214 429q0 79 23 79l-11 23q34 79 56 260q0 11 -11 11l11 57v11q0 474 -169 779q-16 0 -91 125q-19 0 -90 101q-123 91 -169 91l-80 11l12 -23v-11q0 -11 -12 -11q12 -24 23 -102h-23l12 -22 q-12 -93 -23 -113l11 -46q-6 -113 -22 -113q0 -11 11 -11q-11 -86 -22 -113l11 -45q-11 -81 -11 -90l11 -57q-14 -101 -23 -124l12 -68v-79q0 -11 -12 -11q23 -45 23 -79l-11 -23q0 -11 11 -11l-11 -57v-22l11 -57q-23 -3 -23 -22v-147q0 -66 -11 -181q11 -20 11 -45 q-22 -4 -22 -23z" />
<glyph unicode="E" horiz-adv-x="1277" d="M127 1367q8 27 23 170l-23 79q18 0 45 22q102 0 102 -56q14 0 113 11q11 0 11 -11l57 11h101l68 11q19 -11 57 -11q0 34 56 34q59 -11 68 -11l22 11q22 -11 34 -11q4 22 23 22h22q181 0 181 -79h11v-34q0 -15 -56 -56q-82 11 -102 22q-19 -11 -45 -11h-11q-11 0 -11 11 l-23 -11h-124l-57 -11v11l-22 -11h-57q-38 0 -158 -23v-68q0 -25 11 -45q-11 -20 -11 -45q0 -11 11 -11l-11 -57v-79q0 -11 -11 -11l11 -23v-34q0 -11 -11 -11l11 -22v-46q0 -11 -11 -11q11 -22 11 -34l-11 -45q11 -20 11 -45h-11l11 -23q0 -11 -11 -11l11 -23v-67 q0 -12 -11 -12l11 -22v-46q0 -11 -11 -11q13 -77 34 -101h-12q12 -20 12 -46q28 0 101 23v-11q37 22 68 22h57v23l79 -11h11q0 22 11 22l23 -11l22 11l23 -11q20 11 45 11q11 0 11 -11l23 11h11q68 -7 68 -34v-34l-22 -34h11q0 12 11 12v-34q-74 -23 -158 -34q-22 11 -34 11 q-188 -26 -373 -90l-11 -23l11 -22l-11 -23q23 -41 23 -102l-12 -22q12 -20 12 -45q0 -12 -12 -12q9 -29 23 -135l-11 -68l11 -79h-11l11 -23l-11 -45q11 -61 11 -101l-11 -23l22 -113q-11 -20 -11 -45v-34h113q168 34 192 34v-12l22 12h102q23 0 23 22l56 -11l79 11v-11 l113 34q50 -14 79 -68v-68q-64 -33 -361 -56q0 11 -11 11l-12 -22q-27 11 -113 22q0 -34 -45 -34v12l-22 -12h-12q-91 0 -214 -11l-23 11l-45 -22q-37 22 -68 22q-22 -11 -34 -11q0 15 -102 45q0 79 -33 79q0 12 11 12l-11 79q0 12 11 34q-14 121 -23 146l12 68l11 362 q11 22 11 34h-22q14 156 22 192q-8 14 -22 158q0 11 11 11q-14 101 -23 124l12 23l-12 45l12 23q0 11 -12 11l12 56v57q0 62 -12 158q0 11 12 11l-12 57v271q0 25 -11 45z" />
<glyph unicode="F" horiz-adv-x="1145" d="M58 1525v34h23v102q0 16 33 34h57q37 -34 56 -34q67 0 238 11q72 -22 90 -22q15 11 57 11v-11q25 0 45 11q11 0 11 -11l56 11q12 0 34 -11q12 0 12 11l214 -34l23 11q51 -22 56 -45l-22 -34v-22l22 -34q-11 -34 -67 -34q-29 22 -125 45q-11 0 -11 -11q-84 22 -113 22 l-23 -11q-37 23 -67 23h-102l-23 11v-23h-124q-25 0 -45 -11l-23 11q-45 -9 -45 -22l12 -57l-12 -56l12 -23q0 -12 -12 -34q12 -176 34 -305q-11 -22 -11 -34q45 -93 45 -214h23q25 0 45 11l22 -11q183 22 283 45v-23l79 12h113v-46h-23v-11h23v-34l-102 -45q0 -23 -11 -23 l-45 23q-22 -11 -34 -11q-23 0 -23 11q-158 -11 -237 -34h-45l-23 11q-26 -67 -34 -67q26 -31 34 -170h-11q28 -124 34 -124l-12 -56v-46q0 -25 12 -45q-12 -20 -12 -45v-34q23 -27 23 -45l-11 -57q22 -3 22 -22v-79q0 -26 -11 -45q14 -77 34 -102q-9 -45 -23 -45l23 -226 q-4 -31 -45 -57q0 -34 -23 -34l-22 34l-23 -11q-22 11 -34 11q0 -11 -11 -11q0 23 -23 23q-22 -26 -22 -68h-34q-31 0 -57 294q-11 0 -11 11q11 68 23 68q-23 45 -34 135l11 23q-8 79 -23 79l12 56l-12 113h12l-12 23v56l-11 136h11q-11 34 -22 34l11 56l-11 57q11 0 11 11 q-23 0 -23 11q0 12 12 12q-23 106 -34 519q-11 0 -11 12q11 19 11 45v11q0 23 -23 23l12 56v158q0 26 -12 45l12 23q0 11 -12 11l12 57v22z" />
<glyph unicode="G" horiz-adv-x="1538" d="M74 271q9 46 23 46l-12 22v79q0 26 -11 45q11 20 11 46q0 22 -11 22q23 124 23 215l-12 22q12 22 12 34q-12 22 -12 34h12q0 12 -12 12q27 203 34 203q0 11 -11 11q43 282 135 429q0 27 46 57q72 117 135 169q39 61 181 125v11q25 0 45 -11q22 11 34 11l45 -11l57 11 q88 0 237 -124q34 -37 34 -102l-45 -45q-91 14 -91 90q-45 0 -56 34q-68 0 -68 23l-23 -12h-56l-23 12q0 -22 -147 -102q-56 -109 -56 -158q11 -20 11 -45q-55 0 -68 -136q0 -12 -11 -34q11 -22 11 -34q-22 0 -33 -113l11 -22q-23 -141 -23 -226q0 -34 23 -91l-23 -113 q23 -3 23 -22l-11 -57l11 -22q-11 -57 -23 -57l23 -124q-11 -20 -11 -45q0 -12 11 -34q-11 -45 -11 -79q22 -37 22 -68v-11q0 -11 -11 -11l11 -23q-11 -20 -11 -45q22 -4 22 -23v-11q0 -11 -11 -11q23 -51 23 -147h-12q41 -193 125 -305v-23l-12 -56q80 0 80 -34 q112 -12 169 -12h23q22 23 135 34q0 34 113 79l90 181v23h-22v22q45 0 45 57q-23 0 -23 22v12q46 0 46 79l-12 22q12 20 12 46l-12 22l12 23l-12 22l12 23q-23 41 -23 90q0 12 11 12q0 11 -11 11q14 121 23 147l-12 22q23 60 34 159q-10 0 -90 11q-7 0 -124 -23v12l-23 -12 h-23q-11 0 -11 12q-121 -46 -203 -57l-12 23l-22 -12h-11q-17 0 -34 34v68q113 30 169 68h11q12 0 12 -12q97 34 293 34q192 -7 192 -56v-45l-11 -23h23v-45l-12 -23h23l-68 -124v-11q34 0 34 -12l-11 -22q0 -11 11 -11q-11 -78 -22 -102q11 -20 11 -45q0 -20 -23 -68 q17 0 34 -34v-11q0 -23 -22 -23l45 -135q-26 0 -45 -125h-12l12 -22q-6 -45 -34 -45q11 -22 11 -34q-90 -260 -192 -260q0 -63 -226 -90q0 -23 -56 -23q-12 0 -12 11l-22 -11h-12q-11 0 -11 11l-23 -11q-14 11 -56 11v-11q-18 0 -45 45l-45 -11q-87 0 -305 158 q-73 131 -159 418q12 0 12 11h-23v34q0 26 -11 45q0 12 11 12q-22 164 -45 259z" />
<glyph unicode="H" horiz-adv-x="1631" d="M138 0l11 57q-11 22 -11 34l11 22q-11 45 -11 79q23 37 23 68v203q0 26 11 46q-11 19 -11 45v101q0 26 11 46q0 11 -11 11l11 79v68q0 25 -11 45q22 37 22 68v34q0 25 -11 45q11 20 11 45v45l-11 57q22 0 22 22l-22 34v79q0 26 -11 45l11 23q-11 22 -11 34l11 23l-11 22 q11 61 11 102q0 25 -11 45q11 20 11 45h-23q0 102 102 102h45q0 -45 23 -45h11q23 0 23 34h11l34 -23h34q45 -57 45 -113h-11q11 -59 11 -68l-11 -22q0 -12 11 -34q-11 -148 -11 -238v-45l11 -79q-34 0 -34 -68q11 -59 11 -113l-22 -11q22 -37 22 -56h-11l11 -23v-11h-22 l11 -23v-79h11l68 11l23 -11q78 23 135 23q12 0 34 -12l79 23l23 -11l22 11l23 -11q121 11 147 22q23 -11 203 -34l57 12l-12 22v23q0 91 -11 215l11 22l-22 45q0 12 11 34q-23 159 -23 215q12 22 12 34l-23 11l11 57v101l-11 136q53 34 79 34q45 0 68 -46v-11 q0 -11 -11 -11l11 -23v-68h-23v-11l23 -34v-11l-23 -34q23 -165 23 -181v-11q0 -11 -11 -11l11 -23l-11 -22q22 -58 22 -79l-11 -46q11 -59 11 -113h-11q34 -293 56 -293l-22 -181q13 -18 22 -113q0 -11 -11 -11l11 -79v-226q0 -12 -11 -12q23 -57 23 -79h-23 q23 -85 45 -226q-7 -180 -67 -180q-46 0 -46 -46q-14 0 -45 68l12 113q-23 177 -23 305v91q0 25 -11 45q11 20 11 45l-11 23q11 21 11 33l-11 46l11 56q0 11 -11 11l11 57q0 38 -11 192q11 0 11 11h-11q-40 -11 -46 -11q-33 11 -33 22l-23 -11h-45q-28 0 -102 23 q-11 0 -11 -12l-79 12h-68l-57 -12v12l-22 -12h-11l-113 12q0 -23 -34 -23l-23 11q-136 -37 -169 -56l11 -113v-124q0 -12 -11 -12l22 -79l-11 -67q0 -79 23 -79l-12 -57l12 -79h-12l23 -56q0 -39 -34 -91q34 0 34 -56v-12q-34 0 -34 -79q11 -22 11 -34l-11 -22 q11 -20 11 -45q-41 -110 -67 -147l-57 34l-68 -12q-22 12 -34 12l12 -23h-12q-90 0 -90 68v11l11 68q-11 19 -11 56q0 12 11 12l-11 22v12q0 46 11 90l-11 56q0 26 11 46q-11 61 -11 101z" />
<glyph unicode="I" horiz-adv-x="1139" d="M42 1683q68 99 68 113l79 -22q0 22 271 56v-11l23 11l22 -11q22 11 34 11v23l-11 22h11q11 0 11 -11l79 23l12 -23q-12 0 -12 -11q12 0 12 -11q148 14 169 22q45 -9 45 -22q57 14 57 33q74 0 113 -67l-23 -34v-11h23v-34q-17 0 -45 -34h-12q0 31 -214 56l11 -22 q-90 0 -90 -46l-12 -45q0 -11 12 -11l-34 -192q22 -46 22 -68l-11 -68q11 -96 11 -158l-11 -45q23 -59 34 -147h-11l11 -22v-12q0 -11 -11 -11q0 -11 11 -11l-11 -57v-11l11 -113h-11l11 -23v-34q0 -25 -11 -45q11 -22 11 -34h-11q11 -21 11 -33q-11 -60 -11 -68l11 -23 q-11 -34 -23 -34l12 -56q0 -20 -23 -68q23 -45 23 -79q-23 -45 -23 -79q0 -11 11 -11l-11 -57v-192q0 -25 11 -45q-11 -20 -11 -45q0 -26 11 -46q-11 -21 -11 -33l11 -46l-11 -22q23 -57 34 -57q22 12 34 12q3 -23 22 -23l79 11l46 -11l22 11q20 -11 45 -11q0 23 34 23 q45 -17 45 -34q0 -45 -22 -147h-11q-37 34 -57 34l-22 -12q-37 20 -125 34q-66 0 -203 -79q-7 34 -90 34q-12 0 -12 -11l-56 11h-12q-46 0 -124 -11q-20 11 -45 11l-23 -11q-67 16 -67 90v34q3 23 22 23h57l68 -12l22 12q11 0 11 -12q42 12 102 12v11q-20 0 -45 90 q14 106 22 136q-22 52 -22 113h11l-11 23q11 21 11 33q-11 34 -22 34l11 113v102q0 34 -11 34l11 56v181l11 68q0 11 -11 11l11 79v124l-22 34v12h22v34l-11 56h11l-11 23v158q0 25 -11 45q8 14 22 158q0 11 -11 11l11 79v159l11 67q-11 22 -11 34q11 20 11 45 q-22 -3 -22 -22l-57 11h-11l-79 -45q-22 11 -34 11q-34 0 -34 -34h-11q-113 13 -113 79z" />
<glyph unicode="J" horiz-adv-x="1461" d="M87 79q0 18 45 46h34q37 -34 57 -34v-34q0 -60 11 -102q-11 -62 -11 -90l33 -283v-11q68 -12 68 -45q62 0 158 -11q159 49 159 90h11q11 0 11 -11q45 0 124 259q-19 12 -45 12v22h34v113q0 12 -11 12q11 20 22 113l-11 22l11 68l-11 23q18 83 34 237q-11 45 -11 79l11 79 l-11 22q11 63 11 91q0 76 -23 181l12 22q0 30 -46 328l12 101q-12 22 -12 34l12 23l-12 68q27 0 57 180q-71 0 -169 -33q0 22 -23 22v-22h-170l-11 56v45q23 28 23 45h90q11 0 11 -11l23 11h79l463 57l23 -11l79 11q11 0 11 -11l57 11h45q135 0 135 -113q0 -24 -79 -68h-22 l-34 23h-102q-11 0 -11 11l-23 -11h-113v-23l12 -68q0 -45 -46 -45q12 -19 23 -135h-11q0 -12 11 -12q-8 -79 -23 -79l12 -22v-12q0 -11 -12 -11l12 -23q0 -33 -23 -90q11 -20 11 -45h-11q14 -77 34 -102q-26 -56 -34 -56q11 -15 11 -57h-11q0 -15 23 -124l-23 -11l11 -23 q12 -228 12 -316l22 -11l-34 -181v-34h-11v-23q0 -34 11 -34q-50 -530 -158 -530v-68q-36 0 -90 -68q-33 0 -169 -113q-80 0 -91 -11q-271 36 -271 79l-23 -12h-11q0 23 -56 57q-34 34 -68 181q0 11 11 11q-22 85 -22 158v23l11 56q-23 0 -23 23v11l23 34q-34 7 -34 90z" />
<glyph unicode="K" horiz-adv-x="1570" d="M126 1017h11q0 11 -11 11q11 170 11 249v124q0 11 12 11l-12 23q7 113 23 113q-11 27 -23 113h12l-12 22v12q0 34 91 45q45 -51 45 -79h11v22h45q38 0 79 -33q0 -12 -11 -34q11 -101 23 -125l-23 -90l23 -124l-12 -23l12 -22l-12 -23q12 -92 23 -113q-11 -90 -23 -90 l12 -23v-23q0 -56 -23 -56q23 -45 23 -79l-12 -79q12 -20 12 -45h11q207 215 282 327q25 0 272 294l169 192q34 90 113 90q42 -67 56 -67q0 -58 -56 -91q-26 -63 -226 -248l11 -23q0 -8 -214 -215q56 -105 135 -327q98 -215 113 -215l113 -260q0 -26 34 -67q-11 -22 -11 -34 q31 0 101 -192q147 -194 147 -226q57 0 57 -57q34 -28 34 -113q-17 -45 -34 -45q-22 11 -34 11q0 -16 -34 -33h-11q-46 126 -113 192q0 57 -57 90q-42 115 -135 237v12l11 22q-38 0 -79 170q-84 169 -113 169q0 12 11 34q0 61 -56 79q11 22 11 34q-39 75 -79 102l11 22 l-79 203q0 12 11 12q-11 20 -11 45h-45q-106 -95 -136 -158q-91 -79 -101 -79q-60 -125 -79 -125l11 -22v-34q0 -11 -11 -11l22 -102q-11 -22 -11 -34q23 -220 34 -260l-11 -67l11 -80q-11 0 -11 -11q22 -3 22 -22v-80l-22 -33q21 -12 33 -12v-11q0 -11 -11 -11l11 -23v-11 l-11 -68q11 -20 11 -45q0 -11 -11 -11l23 -204q-49 0 -113 -45h-34l-34 23q-20 -12 -45 -12q0 29 -45 34q-12 226 -34 305h11l-11 23q11 22 11 34q0 11 -11 11l11 56v125q0 11 11 11q-13 18 -22 113q0 11 11 11q-11 187 -34 373h11l-11 23q0 11 11 11q-22 127 -45 463h12 q-23 51 -23 147z" />
<glyph unicode="L" horiz-adv-x="1074" d="M96 1627l11 56l-11 57q73 56 113 56q12 0 34 -11l22 11q102 -13 102 -45q-18 -169 -45 -169l11 -23q0 -25 -11 -45q23 -33 34 -215l-11 -56q11 -20 11 -45q-9 -45 -23 -45l23 -46q-15 -166 -23 -180q12 -20 12 -46v-33q0 -12 -12 -12l23 -135q-11 -20 -11 -46v-22 q0 -45 22 -147l-11 -23q11 -85 22 -113q-11 -21 -11 -33q11 -15 11 -57h-11q0 -47 23 -113q0 -11 -12 -11q15 -153 23 -181l-11 -22l11 -23q0 -11 -11 -11q11 -51 34 -249h-12l12 -22l-12 -80h23v23q269 -34 305 -34q19 11 56 11v-11l57 45q0 -16 34 -34q35 0 158 23l45 -79 h11v-34q-26 -49 -56 -56q-11 0 -11 11l-57 -11h-248q-26 0 -46 -12q-19 12 -45 12h-11q-25 0 -45 -12q-50 23 -181 34q0 -22 -23 -22h-33q-12 0 -12 11q-22 -11 -34 -11q-10 0 -90 11v34q0 10 -23 90l23 11q-11 34 -23 34q0 23 12 23q-12 223 -34 294q0 11 11 11l-11 56v102 q0 47 -12 124l12 23l-12 23q12 61 12 101v11l-12 57h12l-12 23q0 11 12 11q-23 69 -23 90q6 45 34 45l-23 34v79q0 41 12 102q-12 57 -23 57l11 56v192q0 79 -22 79l11 57q-22 333 -22 384z" />
<glyph unicode="M" horiz-adv-x="2521" d="M121 -440q0 64 23 124l-12 45q7 102 23 102q0 11 -11 11q14 156 22 192q0 11 -11 11l11 113v91q0 11 11 11q-11 22 -11 34q6 147 23 147q0 11 -12 11q68 403 68 441q-11 15 -11 56q23 0 23 23v79q0 25 11 45l-11 23q11 98 33 158l-11 22q0 57 23 57l-12 22v125 q0 22 34 22v23q0 40 12 102q-12 21 -12 33q23 0 23 23h34q135 -16 135 -136q-11 0 -11 -11q23 0 90 -181h-11q30 -52 57 -214q11 0 11 -11v-12l-11 -22q40 -15 158 -384l124 -328q26 -132 79 -282q-11 -22 -11 -34q35 -119 79 -170l22 34v11l-11 57q19 0 45 79l-11 23 q68 173 124 271q-11 0 -11 11q40 3 79 136q0 22 23 22v79q25 0 56 124l91 204q-12 22 -12 34q68 14 68 147q68 112 68 158q-11 0 -11 11q42 0 146 215q-11 0 -11 11q30 0 90 147q42 0 68 22l23 -11q18 45 79 45q102 0 192 -373q-11 0 -11 -11q18 0 45 -203h-11 q20 -93 33 -271h-11q23 -72 34 -147l-11 -23q11 -22 11 -34l-11 -22q22 -45 22 -79h-11l11 -23v-11q0 -11 -11 -11q19 -115 34 -373h-11l33 -136l-11 -22l11 -57l-11 -22q11 -20 11 -46h-11l23 -45l-12 -22q2 -71 34 -159l-11 -22q28 -124 45 -124v-12q0 -11 -11 -11 q11 -11 23 -147l-23 -11h-23v22h-22v-45h-34q-63 0 -90 305q-18 0 -34 249h11q-11 24 -23 101h12q-12 22 -12 34q0 56 -34 441q12 0 12 11q-23 0 -23 23v124l-11 56h11l-11 23v34q0 59 -11 192h-23l11 56v34l-11 57h11q-45 313 -68 384v34q-11 0 -11 22q-21 0 -68 -124h-11 v-56q-74 -181 -90 -181l11 -23l-56 -113h-12v-45q0 -37 -56 -147q11 -22 11 -34q-46 -28 -102 -225l-33 -34q11 -22 11 -34q-34 -60 -124 -317l-57 -90l11 -23l-192 -440q-67 -124 -124 -124h-79q0 67 -79 124q23 46 23 68q-34 135 -57 135v34l-11 57q11 0 11 11 q-45 0 -45 34l11 22q-45 107 -56 238l-23 22q11 22 11 34q-17 45 -34 45q0 12 12 12q-41 196 -147 406q-11 82 -90 294v56l-34 -22l22 -45q-11 -214 -22 -283v-56q-12 0 -12 -12q0 -27 -11 -169q11 -20 11 -45q-22 -4 -22 -23v-101q0 -12 -12 -12q0 -11 12 -11 q-14 -101 -23 -124l11 -23q-11 -22 -11 -34q0 -11 11 -11l-11 -57v-112q0 -26 -11 -46q11 -19 11 -45v-22q0 -23 -22 -23l11 -23q0 -107 -11 -259q11 -45 11 -80q-19 0 -45 -180q-44 -34 -125 -34q-158 36 -158 181q-11 33 -11 158z" />
<glyph unicode="N" horiz-adv-x="1904" d="M95 -644l23 34v23q0 25 -12 45q17 113 34 113l-11 23v101q0 12 11 12l-11 22v79q0 12 11 12q-22 46 -22 67q22 0 22 23v34q0 25 -11 45l22 113q0 11 -11 11q0 12 11 34q-14 144 -22 158q14 207 34 283q-8 90 -23 90q23 37 34 124q0 12 -11 12q26 326 45 372q-23 0 -23 12 q23 67 34 67q0 12 -11 12q11 85 34 113l-23 11q68 178 68 260q-11 22 -11 34q33 0 68 45q124 -54 124 -124q22 0 124 -192q11 0 57 -113l169 -317q90 -234 136 -305q15 0 45 -56q-12 -22 -12 -34q52 -34 170 -237q62 -60 124 -204q29 0 113 -192q113 -166 113 -180h11v101 q0 41 12 102l-12 23l12 22q0 12 -12 34q12 130 23 147q-11 22 -11 34l11 79l-11 22q22 139 34 283l-12 22q9 46 23 46l-11 22v12q0 11 11 11l-11 22v34q3 23 22 23l-11 56v23l11 56l-22 12q11 100 22 124q-22 135 -22 373v79q0 25 11 45q-11 24 -23 102q93 90 102 90 q0 -11 11 -11l-11 -23q56 -76 56 -147q-11 -59 -11 -67l11 -23q-22 -85 -22 -102q22 -56 34 -56l-12 -57v-22q0 -26 12 -45q0 -12 -12 -12l12 -56v-57q0 -11 -12 -11l12 -23q0 -11 -12 -11q12 -22 12 -34q0 -19 -23 -68q23 -127 23 -169l-12 -23l12 -22q-23 -41 -23 -91 v-135q0 -31 -23 -68q12 -22 12 -34l-12 -22q0 -12 12 -12q-14 -290 -34 -305q11 0 11 -11h-11q0 -11 11 -11l-11 -57l11 -79q-15 0 -56 -56v-12l22 12h23l-11 -57v-34q-34 0 -34 -22q23 -45 56 -45q0 -12 -11 -34q22 -118 22 -125l-22 -11q-17 45 -34 45q-11 -17 -11 -67 h-23q-11 0 -11 11l-23 -11h-22q-23 0 -23 22q11 22 11 34q-23 0 -67 79q-95 88 -226 339q-79 167 -249 418q0 37 -271 486q0 22 -169 361q-39 102 -57 102l-23 11q0 -36 -33 -395q11 -22 11 -34h-23q0 -23 12 -23l-12 -79v-147q0 -11 -11 -11l11 -23q0 -11 -11 -11l11 -22 v-34q0 -26 -11 -45q11 -20 11 -46q0 -22 -22 -22l11 -79v-91l-11 -22h22q-22 -131 -22 -271q11 -22 11 -34h-11q11 -15 11 -57h-11q0 -11 11 -11l-11 -113v-23q0 -25 11 -45q-23 -69 -23 -90l12 -23q-27 -203 -34 -203q11 -22 11 -34q0 -102 -158 -102q0 -11 -11 -11h-12 q0 19 -56 45z" />
<glyph unicode="O" horiz-adv-x="1374" d="M73 283q0 8 11 67q0 10 -11 91q11 118 11 192q0 12 -11 34q11 20 11 45q0 38 -11 56q26 356 45 396q0 11 -11 11q34 177 102 339q118 181 146 181h12v-23h11l124 91l68 11q22 -11 34 -11q0 16 34 33l203 -90q0 -14 79 -45q0 -70 79 -124q76 -147 147 -317v-11l-11 -23 q19 0 34 -56q0 -11 -12 -11l23 -113h-11q34 -71 45 -158h-11l11 -23v-23q0 -71 -11 -169l11 -68q-23 -3 -23 -22l12 -57q-23 -226 -34 -226l11 -22v-34h-23q0 -136 -22 -136l11 -23l-22 -45l11 -22q-11 -22 -11 -34q11 -22 11 -34l-34 -23l11 -22q-99 -254 -147 -271l12 -23 q0 -34 -45 -34l11 -22q-97 -115 -249 -159v12q-52 -23 -113 -23v11l-22 -11q-170 57 -170 79l-67 57q-21 0 -57 79q-25 0 -90 169q-22 11 -34 11v23q0 11 11 11q-26 158 -45 192q0 102 -34 317zM344 475q11 -20 23 -102l-12 -23q12 -19 12 -45l-12 -22q57 -216 57 -271 q-11 -22 -11 -34q17 -4 79 -238q80 -191 135 -248l45 -11q113 67 125 67q124 117 169 305q41 90 90 407l-11 23q30 0 57 474l-12 23q12 20 12 45q-23 73 -23 102l11 56q-20 0 -67 249h-23v56q-140 314 -305 362q-87 0 -237 -215q-23 -48 -23 -57q11 -21 11 -33 q-57 0 -90 -328q11 -45 11 -79h-11q0 -11 11 -11q0 -12 -11 -34q11 -96 11 -158h-11l23 -68q-12 -20 -12 -45q0 -12 12 -34q-12 -113 -23 -113z" />
<glyph unicode="P" horiz-adv-x="1299" d="M67 1525l11 23q-11 20 -11 45q25 0 45 79l68 11q49 -45 56 -45q23 0 23 12q316 -20 316 -34q12 0 12 11q318 0 485 -215q21 0 68 -90q57 -68 57 -181h11l-11 -56v-79q0 -158 -102 -249q-69 -103 -158 -158q-164 -102 -237 -102h-57q0 -31 -226 -56v-57q0 -11 -11 -11 l11 -23l-22 -33v-46l22 -33q0 -12 -11 -12l11 -22v-23l-22 -34l22 -56l-11 -23q0 -11 11 -11l-11 -57v-11q3 -23 22 -23l-11 -56v-113q0 -11 -11 -11l11 -23v-11q0 -91 23 -204q0 -11 -12 -11l12 -56v-57h22q0 -63 -79 -113l-135 23v-23h-34q0 23 -57 68l12 56v23 q0 25 -12 45q12 20 12 45q-12 22 -12 34h12l-12 23q0 11 12 11l-34 204h34q-34 80 -34 158q0 10 11 90q-11 22 -11 34q22 0 22 23h-22l11 22l-11 23l11 22q-11 20 -11 46h11q0 11 -11 11l11 45l-11 45q0 12 11 34q-11 61 -11 102v45q0 11 11 11q-11 45 -34 79v12h23 q0 20 -23 90q0 11 11 11l-11 57v68l11 67q-11 22 -11 34h11q0 11 -11 11q0 15 11 113q0 15 -11 113l11 23l-11 23q0 12 11 33q-27 194 -45 249q-11 0 -11 11zM395 1085l22 -45l-11 -80q0 -28 11 -90q-11 -62 -11 -90l11 -57l-11 -68l11 -22l-11 -23q11 -19 11 -45 q294 40 294 90l22 -11q74 31 102 79q85 0 215 215q22 78 22 135v34q-22 28 -22 46l11 45q-66 174 -181 226q-109 41 -361 79q-20 -12 -45 -12l-57 12q0 -23 -11 -23q22 -109 22 -124l-22 -11q0 -12 11 -34l-11 -57q11 -62 11 -90q-22 -72 -22 -79z" />
<glyph unicode="Q" horiz-adv-x="1577" d="M31 463h11q0 12 -11 12l11 56v68q0 41 -11 102q23 41 23 90v34q0 25 -12 45l34 147l-11 23q73 479 147 598q84 158 192 158q37 23 68 23v-11q67 18 67 45q81 -11 91 -11l22 11q22 -11 34 -11q11 0 11 11q241 0 373 -147q0 11 12 11l113 -192q56 -88 56 -135 q45 -78 102 -407l-12 -23l57 -169q-34 -76 -34 -90q23 0 23 -34q0 -12 -12 -12l12 -56v-79q0 -41 11 -102l-11 -22q11 -20 11 -46l-23 -11l12 -56q0 -128 -91 -407h-11q11 -22 11 -34l-68 -158q36 -4 79 -136q26 0 68 -135q20 0 57 -79q34 -9 34 -102q-43 -31 -113 -45 q-40 36 -125 248q-25 0 -33 57q-12 0 -34 56q-24 0 -102 -113q-119 -33 -147 -112q-215 -23 -215 -57h-33q0 12 -12 34l-22 -11q-111 45 -136 45l-22 -11q0 33 -68 67q-69 57 -91 57q-48 30 -101 124q-23 45 -57 45q0 33 -34 124l12 23q-46 0 -79 316v12q0 11 11 11 q-23 44 -23 124v181zM313 1209q29 0 34 -45q-11 -93 -22 -113q11 -22 11 -34q-11 0 -11 -11l22 -12q-8 -67 -22 -67q11 -22 11 -34l-11 -23q11 -22 11 -34t-11 -34q0 -22 22 -79q-8 -68 -22 -68l11 -22q-11 -22 -11 -34q17 -47 45 -271h-11q0 -11 11 -11q-11 -81 -11 -91 q0 -35 22 -158h-11q11 -56 22 -56l-11 -46q0 -145 68 -305q-11 -21 -11 -33q58 -56 124 -159q19 -45 68 -45q59 11 67 11l23 -11q96 0 249 113q0 16 90 113l-11 23v11q34 0 34 45q-170 225 -170 271q11 0 11 12q-16 0 -33 33v23h11l22 -11q0 13 91 45h11v-11l-11 -23 q44 0 90 -158q34 0 34 -57h11q29 113 57 113v68l-11 23q48 0 67 260l-11 22q11 78 23 102q-12 20 -12 45v57h-22v11q22 27 22 45l-11 23q11 21 11 33q-11 63 -11 91h11l-11 22q0 12 11 12l-11 56v79q-40 40 -45 136h11q-90 419 -158 486q-45 82 -102 124l-22 -11h-12 q0 49 -192 67l-45 -22l-22 11q-45 0 -91 -56l-22 11q0 -20 -68 -57q0 -27 -68 -124q-41 -37 -56 -169l11 -23q-16 -68 -57 -68v-11z" />
<glyph unicode="R" horiz-adv-x="1669" d="M96 1932v102l56 11q12 0 12 -11q109 34 203 34h124q31 0 68 22l45 -11q22 11 34 11q0 -16 158 -45q22 11 34 11q0 -11 113 -56q22 11 34 11q395 -169 395 -282l80 -192q0 -51 -80 -170q-61 -147 -101 -147h-23l12 -56q-193 -131 -193 -170q-17 0 -45 -22q0 -66 147 -339 q131 -284 249 -633q-12 0 -12 -11q41 -16 147 -373q12 0 79 -147q12 0 12 -11v-23q-65 0 -113 -56q-16 0 -34 68h-23v11l11 23q-59 69 -135 361l-113 260q-78 268 -113 271v45q-68 116 -90 226q-26 0 -34 45q-12 0 -113 215h-12q0 -44 -395 -113q0 11 -11 11 q-12 -67 -23 -67l11 -23q0 -25 -11 -45q11 -20 11 -45l-11 -57q23 0 23 -11q-12 -34 -23 -34l11 -23v-11q0 -34 -11 -34l11 -56v-181q0 -25 12 -45l-12 -23q12 -22 12 -34l-12 -22q23 -47 23 -68q0 -11 -11 -11l11 -57v-22q0 -57 -23 -57q23 -79 34 -79l-11 -57v-79 q0 -96 34 -135q-4 -31 -45 -57v-22h-23l-79 -12q0 12 -11 12q0 -23 -23 -23h-11q-79 0 -79 113v23h-23v22q4 23 23 23q-23 206 -34 226l11 22q-22 174 -34 192l23 68l-34 170l11 22q-11 61 -11 102v23q0 25 11 45q-11 20 -11 45h11l-11 23v56q0 34 11 34l-22 215l22 45h-22 v22h22l-11 57v214q0 12 11 12l-11 22q11 93 23 113q0 12 -12 34q0 18 12 136q-20 314 -46 350h12l-12 22l12 23q-20 0 -68 34zM378 1887q23 0 23 -12q0 -127 23 -316q-12 -44 -12 -90q23 -4 23 -23q0 -22 -23 -22q0 -12 12 -34q-12 -60 -12 -68q23 -85 23 -102h-11l11 -22 v-12q0 -11 -11 -11q11 -20 33 -135q-22 -4 -22 -23h22l-11 -57v-33h11q356 51 464 158q60 15 135 101q68 0 204 260v45q7 0 45 23v68q-23 28 -45 135q-20 0 -193 125q-319 101 -361 101q-11 0 -11 -11l-57 11h-11q-25 0 -45 -11q-37 23 -57 23q0 -23 -22 -23q-12 0 -34 11 q-84 0 -91 -56z" />
<glyph unicode="S" horiz-adv-x="1906" d="M66 -180q0 16 34 33q90 -11 90 -67l-11 -23q79 -232 124 -282q359 -249 452 -249h23q19 23 180 45q70 40 147 113q40 0 91 79q63 75 90 192l23 12l-12 22v12q49 0 79 293q16 34 23 34l-11 57v203q-34 4 -79 136l-23 -12q-84 32 -113 91q-241 124 -429 169l-170 90 q-38 15 -56 46q-26 0 -158 101q-91 153 -91 328l23 45l-11 79q34 52 34 68q-12 22 -12 34q31 0 79 135q161 222 294 271q76 68 316 136q202 0 452 -158q0 -20 136 -158q0 -34 34 -34v-11l-12 -23q17 0 68 -102v-45l-79 -22q-185 345 -384 384q-65 6 -102 33q-113 0 -158 -56 l-22 11q0 -22 -23 -22h-23l-22 11q0 -15 -136 -169q-41 0 -113 -339v-136q6 -260 91 -260l22 -90h68q0 -40 271 -113q0 -12 294 -169q79 -38 260 -226q0 -24 79 -136q34 -49 56 -181l-11 -67l11 -23q-26 -201 -102 -339q-16 0 -90 -169q-214 -226 -294 -226 q-63 -68 -192 -68v11q-34 -11 -34 -22q-12 0 -33 11q-27 0 -170 -23q-157 38 -305 125q-29 0 -181 101q-171 112 -226 294q-56 169 -56 192v23z" />
<glyph unicode="T" horiz-adv-x="1861" d="M23 1875v113q0 27 79 34v-11q11 0 11 11l113 -22q4 22 23 22q68 -8 68 -22q30 8 135 22q34 -11 34 -22q36 14 316 22l23 -11q68 7 68 68h11q84 -51 249 -79q37 22 67 22h12q11 0 11 -11l102 23l124 -23q0 23 124 34q34 -11 34 -23l23 12q222 11 293 11q4 23 23 23 q0 -16 56 -57q0 -68 -33 -68v-11h11q20 11 45 11v-11q0 -16 -68 -68q-34 0 -34 34h-22q-34 0 -34 -11l-57 11h-56q-41 0 -102 -11l-22 11l-23 -11q-21 0 -90 22l-68 -11h-57l-22 11v-22h-11l-23 11v-23q-12 0 -34 12l-79 -12q-14 0 -113 12l-79 -12q-22 12 -34 12 q0 -23 -23 -23l12 -22v-46l-12 -67q23 -42 23 -91v-101q0 -66 -11 -181l11 -23q0 -11 -11 -11l22 -395h-11l11 -23v-56q0 -12 -11 -12l11 -22v-102q34 -151 34 -203l-22 -12q22 -46 22 -67h-11q0 -12 11 -12q-22 -285 -45 -316q23 -149 23 -294v-169q0 -47 11 -124l-11 -23 q11 -20 11 -45l-23 -12h-11v34h-23q-11 -59 -11 -67h-56l-57 -12q-79 68 -79 79v34h23q-14 117 -23 136q9 45 23 45q-23 58 -23 90h11l-11 23l11 23l-11 45q0 12 11 34q-11 61 -11 101v79q0 12 11 12l-11 22v23q4 22 23 22q-19 42 -34 181q11 57 22 57q-18 19 -33 226 q11 18 11 56q-11 140 -11 147h11l-34 147l11 22l-11 46q8 67 23 67l-12 23v68q0 11 12 11l-12 23q23 46 23 67q-11 99 -11 170q0 11 11 11l-23 68q12 20 12 45l-23 11l11 68l-11 68l11 56l-11 68q11 0 11 11l-34 23q-57 0 -135 -23l-57 12q-61 -12 -101 -12v12 q-246 -26 -294 -45q-107 33 -113 33z" />
<glyph unicode="U" horiz-adv-x="1537" d="M87 848q25 425 56 587l-11 23q0 48 34 327q-11 22 -11 34q33 34 192 56q0 -45 56 -45q-34 -71 -79 -384l12 -22q-26 -159 -34 -159q20 -61 34 -271l-23 -11l11 -23v-79q0 -11 -11 -11l11 -22v-23q0 -38 -11 -57q11 -85 23 -113q-12 -19 -12 -45l12 -56q-34 -57 -34 -91 v-22l34 -45q-23 -28 -23 -46q0 -11 11 -11l-22 -214q16 0 34 -57q11 0 11 -11q0 -12 -11 -12q0 -49 79 -327l-12 -57q12 -21 12 -33q-23 -4 -23 -23q36 -79 68 -79v-11l-23 -34v-12l34 -45q-11 -22 -11 -34q65 -36 79 -101q79 -19 79 -34l23 11h22q11 0 11 -11 q138 25 238 101q214 331 214 520q19 16 45 215l-11 22q23 76 45 407q0 11 -11 11l11 79v57q0 25 -11 45q11 20 11 45v57q0 25 -11 45l11 22q0 12 -11 12l11 113v135l12 23l-23 11q0 23 11 23q-11 100 -11 124q0 90 34 305q-11 20 -11 45q30 79 79 79v12h22q45 -73 45 -159 v-101h-22v-68q-23 -163 -23 -170q34 -97 34 -192l-11 -22q11 -22 11 -34l-22 -11l11 -23v-34q0 -49 -23 -90l12 -23q-12 -22 -12 -34q23 -37 23 -67v-57q0 -11 -11 -11l11 -23q0 -25 -11 -45l11 -23l-11 -79l11 -113q-23 -45 -23 -79q12 -22 12 -34q0 -11 -12 -11l12 -56 q-27 -136 -46 -192q0 -12 12 -12q-23 -204 -68 -305h-11l11 -22q-14 -91 -79 -91v-11h34v-45q-28 0 -45 -113q-125 -179 -226 -203q0 -34 -159 -68q-12 0 -33 11q-63 0 -102 -56q-82 -12 -102 -23q-113 45 -113 90l-67 102q-31 82 -80 102l-45 124l12 23q-15 67 -46 67 l12 46q-43 182 -68 519h-11l11 45q0 126 -23 226q12 20 12 45v57l-12 79h12l-12 23v169q0 38 -11 57z" />
<glyph unicode="V" horiz-adv-x="1618" d="M40 1706q0 27 79 68q0 34 45 34q4 -23 23 -23q20 11 45 11q76 -91 158 -271q-11 0 -11 -11q54 0 147 -237q-12 0 -12 -12q17 0 57 -135q39 0 102 -305q53 -171 124 -294q56 -239 68 -350q40 0 101 -271v-11h34q0 175 181 756h11l-11 23q79 207 192 780q41 157 56 169 q0 11 -11 11q0 153 102 237h22q20 0 57 -67h11v-45q-56 -146 -56 -226q-20 0 -45 -147q-27 -124 -57 -170l11 -56h-11l11 -23l-22 -34q11 -22 11 -34q-42 -40 -90 -350q-21 -3 -79 -192l11 -22q-90 -238 -158 -576v-68q-36 -93 -68 -136h23v-22q0 -52 -57 -125v-34 q-7 0 -23 -33l12 -23q-8 -68 -23 -68l11 -22q-24 -68 -112 -68q-53 21 -136 282q-45 0 -45 91q11 21 11 33q-26 0 -34 57h11l-67 237h11q-45 72 -124 373q-19 0 -57 158q-24 41 -79 203h-11v57q-34 31 -90 248q-18 16 -80 226q12 0 12 12q-15 0 -57 56h-11v11l11 23 q-24 0 -45 102q-79 114 -79 203z" />
<glyph unicode="W" horiz-adv-x="2131" d="M32 1751q53 34 113 45v12q124 0 124 -125v-11h-11q31 -99 56 -294q91 -265 147 -564v-12q-11 0 -11 -11q23 -3 23 -23q-12 -13 -12 -67q12 0 12 -12q0 -78 33 -158l-11 -45l34 -181h-11q22 -37 22 -67v-23q0 -23 -22 -23q22 -37 22 -67v-91q0 -49 -22 -90q16 0 34 -34 v-11q0 -12 -12 -12q12 -22 12 -34q103 141 214 441l125 407l22 11q102 -34 102 -57q127 -169 147 -169q11 -79 67 -158q226 -369 226 -407q41 0 91 -101l45 -68q27 0 56 -68l23 -11q18 101 34 101q0 12 -11 12q11 92 22 113l-11 22l11 23v34q11 0 11 11q57 497 57 666 q0 12 -11 12l11 56v430q0 25 11 45l-11 22l23 158q-12 20 -12 46q20 25 45 293h-22v23q34 0 56 135l-11 23q11 113 56 113q113 -16 113 -102l-22 -34v-11l11 -56q-10 0 -45 -79l11 -23v-34q-19 -39 -45 -158q11 -22 11 -34q0 -56 -22 -215l11 -112q0 -22 -23 -80 q0 -12 12 -33l-12 -113l12 -113l-12 -68l12 -45q-12 -57 -23 -57l11 -22v-204q0 -22 -22 -22l11 -23v-11q0 -54 -34 -79q9 -45 23 -45l-34 -226l11 -23l-34 -136l12 -22l-57 -271l12 -68q-45 -57 -102 -57q0 12 -11 12v-34h-46q-16 0 -34 34l-22 -12q-76 85 -181 170 q-39 79 -68 79q-41 56 -135 124q0 45 -57 45v23h23q-69 32 -181 271q-38 0 -79 158q-22 0 -34 -101q-22 0 -22 -12q0 -87 -46 -147q0 -29 -79 -158q-25 -71 -56 -101q0 -50 -113 -339l-34 -23h-11q-102 0 -102 102q0 94 -34 203h11q-4 57 -33 57q0 12 11 34q0 12 -11 33 l11 46q-8 121 -34 146v34q0 160 -56 339l11 23q-15 79 -34 79l11 45q-11 82 -22 102l11 22q-23 167 -79 373h11q-68 391 -124 486q0 11 11 11q-45 65 -45 192z" />
<glyph unicode="X" horiz-adv-x="1379" d="M91 1661q0 14 79 90q0 21 34 91q98 0 136 -102q0 -87 79 -226q124 -327 169 -508q13 -102 57 -102v-23l-12 -22q26 0 34 -57h11q0 22 125 249q124 247 203 440l79 170q113 174 124 214q26 0 34 57h57q11 0 56 -57v-45l-56 -113q-32 0 -68 -90q-74 -95 -215 -441 q-25 0 -67 -124q-30 -18 -91 -192q-18 -55 -79 -124l11 -23l-56 -113q45 -86 56 -180q91 -170 91 -226q42 0 79 -181q113 -199 169 -395q68 -40 68 -57v-11q0 -12 -11 -12l11 -22v-34q-37 0 -102 -90q-22 0 -22 -46h-23l-90 68l-79 192q-45 89 -45 147q0 30 -23 90h11 q0 17 -45 57v34q-29 0 -79 203q-90 154 -90 192h-12q0 -40 -34 -56q-81 -226 -124 -226l11 -23q-169 -367 -203 -474q11 -22 11 -34q-21 -11 -33 -11t-12 11l-56 -11h-23q-22 0 -22 22q0 103 124 407v34q38 5 124 203q93 149 124 237q15 0 46 68v11q-27 99 -68 158l11 46 l-56 67q-12 110 -57 181q0 68 -90 226q0 47 -57 68v22q4 23 23 23q-30 41 -57 203q-34 0 -45 125q-45 35 -45 45z" />
<glyph unicode="Y" horiz-adv-x="1320" d="M37 1740v68q23 27 23 45h11q11 0 11 -11q37 22 68 22q59 0 79 -45h34l-23 -45l125 -204q25 0 33 -45q57 -25 57 -79q-11 0 -11 -11q25 0 169 -203q0 -91 68 -91q0 -101 68 -101v11q185 296 519 1062q0 49 125 101q25 0 56 -67h11q0 -65 -67 -113q0 -11 -57 -79l11 -23 q-20 0 -101 -181q-125 -250 -125 -271q-26 -12 -67 -147q-16 0 -113 -169q-23 -4 -23 -23q23 -3 23 -22q-28 -78 -125 -147l23 -34q-20 -48 -34 -136q0 -11 11 -11q-22 -96 -22 -113q11 -62 11 -90l-11 -23q11 -20 11 -45v-34q0 -11 -11 -11q14 -131 34 -147l-45 -11 q0 -17 22 -102q0 -11 -11 -11q22 -116 22 -159h-11l11 -22v-79q0 -36 34 -147v-34h12q0 -31 -23 -68q11 -92 23 -113q-71 -90 -79 -90h-46q-101 105 -101 124l11 102q-11 158 -23 169l12 23q-23 41 -23 90v79l-22 34q0 10 11 91l-11 22q11 45 11 79l-11 23q11 20 11 45 q0 57 -23 57q0 20 23 90q-11 121 -23 147q9 14 23 158l-294 486q-24 0 -56 90q-26 0 -136 203z" />
<glyph unicode="Z" horiz-adv-x="1989" d="M148 -214q6 0 45 11l-11 23v45q68 0 68 101h11l-11 23v11l56 23v11h-22q0 46 101 204q86 190 204 395q69 137 124 181q0 47 124 180h11l-11 23v45q52 0 79 136q42 0 181 203q28 73 135 192q0 37 80 124q0 34 -204 46q-26 -23 -203 -34v11q-18 -14 -113 -23q-68 8 -68 23 l-22 -11h-12l-22 11q0 -34 -23 -34q-56 0 -56 23q-24 -12 -102 -23q-22 11 -34 11l-56 -22q0 11 -12 11v-11q12 0 12 -12h-12q-203 27 -203 57q-11 0 -11 11v34q3 79 22 79q70 -22 237 -34q34 12 34 23l57 -11h11l57 11q0 -11 11 -11l-11 22v11h22q23 0 23 -33h68 q30 0 67 22l23 -11q22 11 34 11v-11q25 11 147 22v-11l22 11h181q47 0 124 -11q22 11 34 11q130 -11 147 -22q57 22 79 22q0 -22 90 -33v-12q0 -25 -11 -45l11 -22q0 -44 -124 -260q-45 -23 -102 -136q-31 0 -124 -181q-22 0 -113 -158q-22 0 -68 -113q-56 0 -56 -90 q-23 0 -147 -203q11 -22 11 -34q-50 0 -113 -181q-16 0 -169 -271q-31 0 -45 -79q-66 -83 -124 -215l-57 -56l11 -23l-11 -23q109 -22 226 -22q17 0 158 11v34h23q0 -12 11 -34l57 11h11q11 0 11 -11l23 11q11 0 11 -11q45 9 45 23l57 -12h22l68 12h34v11l23 -11q38 0 90 34 q154 0 542 90q45 -59 45 -79q-11 0 -11 -11q34 0 34 -23v-68q-25 0 -45 12q-45 -9 -45 -23l-57 11q-119 0 -237 -56l-57 11q-10 0 -90 -22l-56 11q-12 -22 -12 -34q-79 8 -79 23l-90 -46l-23 12q-11 0 -11 -12l-113 12h-23l-56 -12v12q-18 -14 -113 -23q-40 11 -45 11 q-20 -11 -45 -11v11l-23 -11h-57q-11 0 -11 11l-22 -11h-23q-23 0 -23 23l-22 -12q-61 12 -102 12q-11 0 -11 -12q-113 25 -113 34q-22 -11 -34 -11q-25 0 -57 79q-28 0 -33 56q-23 0 -23 23v23z" />
<glyph unicode="[" horiz-adv-x="1100" d="M60 -271q56 52 79 531q11 0 23 90l-12 23q17 26 46 294q31 101 56 101l-23 34q8 91 34 91q0 11 -11 11q34 172 68 633h11l-11 22v23q0 22 22 113l-11 22q34 126 34 271q0 46 -11 204l11 22q-11 20 -11 46q42 33 226 79q19 -12 45 -12q47 0 203 68q79 0 79 57h34 q0 -29 57 -34q0 -18 22 -45v-68q-200 -57 -282 -68q-23 -212 -79 -542q11 -22 11 -34q-20 0 -34 -271l11 -57q-8 -45 -22 -45l11 -23l-22 -45l11 -22l-11 -23q0 -11 11 -11q-15 -170 -34 -170q0 -11 11 -11l-147 -938l12 -22q-12 -20 -12 -45l12 -45l-34 -23l11 -57v-45 q-29 0 -45 -45l11 -23v-56h11q26 0 46 11q36 -22 56 -22l23 11q11 0 11 -11q226 13 226 56h34q0 -29 45 -45l23 -34v-22h-23q0 -34 34 -34v-23l-57 -11h-22q-11 0 -11 11q-65 -23 -283 -23v12q-24 -9 -124 -23q-106 14 -136 23q-19 -12 -45 -12q0 28 -135 57z" />
<glyph unicode="\" horiz-adv-x="1710" d="M60 2000q0 25 11 45q-11 22 -11 34l45 34h57q0 -17 79 -91q183 -279 248 -440q63 -72 102 -181q189 -209 260 -418q48 -10 113 -158l124 -181q0 -28 136 -203q17 -51 158 -215q0 -25 135 -214q0 -23 57 -23v-11l-12 -23q40 -24 68 -113q-11 -22 -11 -34h-11q-23 0 -23 23 l11 22l-22 12h-23q0 -16 -34 -68q-14 0 -56 56l-23 -11q0 46 -45 113q0 26 -68 102q-115 194 -339 497q-135 206 -135 282q-12 0 -12 23l-22 -11q-56 37 -181 282q-107 203 -158 203q0 40 -113 226q-41 56 -79 147l-68 113q-98 90 -147 181h-11z" />
<glyph unicode="]" horiz-adv-x="1213" d="M60 -361q0 113 90 113q0 34 79 34q0 -79 305 -136v11q0 26 -11 46l11 22q-11 22 -11 34q11 79 34 79q-11 22 -11 34l22 45l-11 23q11 45 11 79q0 11 -11 11l11 57v45l-11 68q34 126 34 248v91l11 67l-11 23q17 26 45 294l45 135l-11 23q0 22 23 79l-12 22l57 396 q0 11 -12 11l12 57q0 37 -12 56q23 115 23 362q0 56 -79 56q0 -23 -23 -23h-33l-23 12q0 -27 -226 -57q0 23 -45 57q0 11 11 11l-11 23q11 79 34 79h90q25 0 45 11q12 0 12 -11q271 0 271 90l22 11q40 -34 136 -34q45 0 45 34h23v-22h56q66 -68 79 -68v-34q-26 0 -45 -56 l11 -23l-56 -237q11 -68 22 -68l-22 -158q22 -4 22 -23v-11q0 -11 -11 -11q0 -12 11 -12l-22 -135l11 -23q-23 -40 -34 -214q11 -22 11 -34h-22q0 -12 11 -34l-11 -45q0 -12 11 -12l-22 -169q0 -11 11 -11q-19 -154 -45 -181q11 -22 11 -34q-7 -215 -23 -215h-11l11 -79h-11 l11 -22l-33 -192v-34h-12v-12l12 -67q0 -12 -12 -12l12 -45q-20 -294 -46 -294l12 -112v-57q-34 -79 -57 -79q-25 20 -305 45q-22 -11 -34 -11q0 24 -101 45q-125 20 -125 45q-20 -11 -113 -22q-82 45 -90 45z" />
<glyph unicode="_" horiz-adv-x="1416" d="M60 -22q0 105 90 147h12q0 -23 11 -23q47 0 113 23l23 -12q73 23 101 23h57q11 0 11 -11l23 11h11q11 0 11 -11q22 11 34 11q301 0 565 56q20 -11 45 -11h23q25 0 45 11l22 -11q22 11 34 11q45 -82 45 -90q-6 -65 -33 -102l-192 34q-20 -11 -46 -11v11q-163 -22 -756 -68 q0 -17 -125 -45q-45 9 -45 23l-23 -11q-29 45 -56 45z" />
<glyph unicode="`" horiz-adv-x="601" d="M60 1363q0 31 20.5 51t53.5 20q20 0 40.5 -12t55.5 -47l291 -296h-69l-330 202q-31 20 -46.5 40t-15.5 42z" />
<glyph unicode="a" horiz-adv-x="1541" d="M67 317l11 56v124q9 238 57 238l-12 22v57q38 0 46 67q13 0 124 147q33 52 237 204q214 79 260 79h102q86 0 226 -136l22 11q0 -15 45 -56v-11q-45 -238 -67 -238q0 -11 11 -11q0 -27 -57 -169q12 0 12 -12h-23q0 -11 11 -11q-22 -143 -22 -169l11 -68h-23 q36 -215 57 -215l45 -22q45 0 45 56h23l34 -22q20 22 90 22q0 -18 45 -45q0 -124 -79 -124q-101 -28 -101 -46l-57 12q-17 0 -102 -23l-56 11q-22 -11 -34 -11q0 28 -45 34q-20 -11 -45 -11q-21 90 -45 90l-46 11q-47 -67 -79 -67q-45 -4 -45 -46l-22 12q-101 -65 -294 -91 q-79 27 -79 34l-23 -11q-135 101 -135 203q11 0 11 12h-23v79q0 34 -11 34zM214 396q8 -122 34 -147q-12 -22 -12 -34q53 -93 102 -113q350 110 441 294l-23 11l11 56v23l-11 113q31 0 68 147l-11 22l33 125q-11 19 -11 45q19 0 68 158v68q0 16 -34 34q-204 -11 -429 -238 q-81 -57 -158 -225h-12v-68q-45 -114 -45 -158l11 -46q-22 -46 -22 -67z" />
<glyph unicode="b" horiz-adv-x="1197" d="M74 57q11 34 23 34l-12 45q12 248 23 248l-11 23q31 76 56 271q45 64 45 170v22q-45 0 -45 79v23q90 60 90 169l-11 23q0 11 11 11q0 11 -11 11q11 93 23 113q0 12 -12 12q15 121 23 147q-23 69 -23 90q17 0 34 34v101q4 23 23 23l-11 23q22 157 67 259q-11 20 -11 46 l79 11q170 0 170 -158q-17 0 -34 -34v-11q0 -26 11 -46q-14 -56 -34 -56l11 -57q0 -11 -11 -11q0 -11 11 -11q-25 -242 -33 -260l11 -23q-11 -85 -34 -113l23 -11q-23 -148 -34 -181q0 -42 203 -79q188 -128 237 -180q0 -18 102 -192l11 -46q-8 -67 -22 -67l11 -23 q0 -25 -11 -45l11 -23q-54 -217 -102 -282q0 -20 -34 -68q-82 -123 -259 -192q-12 0 -12 11q-120 -67 -226 -67q-12 0 -34 11q-14 -11 -56 -11q0 22 -23 22l-45 -22q-124 53 -124 67q0 18 -23 46v22q0 11 12 11q-23 70 -23 91zM390 45q23 -37 23 -67h11q260 72 260 135h11 l23 -11q0 25 68 68q0 28 45 124q56 204 68 294q-23 46 -23 67q11 0 11 12q-18 0 -113 124q-24 0 -90 57l-23 11q-19 -11 -45 -11q-11 19 -11 45h-90l-23 11q-31 -64 -45 -361h22q0 -23 -22 -23q0 -11 11 -11q-23 -180 -23 -226q12 -22 12 -34q-34 -59 -45 -204h-12z" />
<glyph unicode="c" horiz-adv-x="1088" d="M81 452q11 143 79 384v45q27 0 90 204h34v68q19 0 158 169l181 79l68 11q104 0 237 -90q32 -2 91 -192q-23 -37 -23 -57h-79q0 35 -45 57q0 62 -79 124v11l-79 -11q0 11 -12 11q0 -7 -22 -45h-23v23h-11l-102 -215q-30 -43 -34 -68h-11l11 -22q-11 -45 -45 -45v-68 q-38 -59 -68 -226q-11 0 -11 -11q11 -22 11 -34q0 -57 -22 -57l11 -22v-12q0 -22 -23 -22q19 -23 34 -192q38 0 45 -79l34 -23h79q0 23 113 68q91 88 91 158h-12v23q57 43 57 67l23 12h45q0 -15 56 -57v-34q0 -109 -124 -237q-89 -147 -305 -147h-11q-166 24 -283 158 l-90 125v56h-23v57l12 56h-23z" />
<glyph unicode="d" horiz-adv-x="1376" d="M28 543l23 11q-12 22 -12 34q56 222 79 260q0 11 -11 11q28 138 102 248q0 34 68 68q0 44 135 136q135 101 260 101h56l23 -11q0 11 11 11q0 -22 68 -45h23q0 38 11 57q-11 19 -11 45h22l-11 22q23 37 23 57q0 12 -12 34q39 212 57 237l-12 23q0 19 23 67l-11 23l22 45 q-11 22 -11 34q34 0 34 57h90q0 -23 12 -23l56 34h11q96 0 147 -158v-12l-11 -113q11 0 11 -11q-28 0 -34 -45l12 -23q-29 -135 -46 -135v-12q0 -11 12 -11q-12 -85 -34 -113l11 -56q-22 -37 -22 -57q0 -38 11 -56q-11 -116 -11 -181v-136q0 -11 11 -11l-11 -22 q0 -12 11 -34q-11 -60 -11 -68q11 -62 11 -90l-23 -12l23 -113h-23v-67q0 -97 -22 -147h22q-8 -68 -22 -68q0 -11 11 -11q-23 -85 -23 -102l12 -23q-34 -180 -79 -180h-68q0 12 -12 33l-22 -11h-34q-16 0 -34 34q-37 -23 -68 -23h-79q-22 -3 -22 -22q11 0 11 -11h-11 q-20 11 -46 11l-22 -34q-62 11 -90 11l-68 -34q-12 0 -12 12q-96 -23 -113 -23l-146 45q-192 124 -192 260l11 23h-23v203zM186 294q12 0 34 -11l-11 -23q0 -110 135 -124v-23h-22v-11l79 -11q406 61 406 248q0 26 -11 45q11 20 11 46v11q0 22 -22 22q0 22 22 80 q0 11 -11 11l23 158q-12 22 -12 34l23 11l-11 57q3 22 22 22l-22 68h22v23l-11 135h11q-11 22 -11 34v113q-46 68 -124 90q0 -13 -136 -56q-124 -79 -124 -102q-102 -94 -102 -124q-42 -79 -79 -79v-34q0 -25 -11 -45l11 -23l-34 -56v-23l12 -56h-34v-12q0 -34 11 -34 l-34 -237q11 -22 11 -34l-11 -22l11 -23q-11 -20 -11 -45z" />
<glyph unicode="e" horiz-adv-x="1356" d="M92 418q11 113 23 113q0 12 -12 12q12 112 34 158v34q65 266 204 463q45 41 45 67l22 -11q31 65 204 124h113q25 0 45 -11l22 11q260 -105 260 -259v-57h23v-11q-17 -46 -215 -113v11q-56 -34 -169 -56q-4 -17 -249 -91v-90q-22 -28 -22 -45q0 -23 11 -23l-23 -214v-34 h-11l34 -57v-68h22l-11 -113q62 -62 91 -169q81 -45 124 -45q113 25 113 56l22 -11h12q0 23 135 68q139 198 147 293h68q0 -56 22 -56q23 -4 23 -23v-22l-147 -260q-25 -26 -260 -147q-22 11 -34 11q0 -14 -192 -56q-38 23 -113 34h-33q-79 35 -79 45l-23 -11h-11 q0 38 -102 113q-102 178 -102 282l12 68q0 90 -23 90zM510 972h11q335 124 362 124l34 45v12q-68 47 -68 79q-36 0 -91 -46h-11l11 23v11h-45l-34 -22l-22 11q0 -27 -68 -79q0 -23 -34 -23v-11l11 -56q-56 0 -56 -68z" />
<glyph unicode="f" horiz-adv-x="1156" d="M57 1175v23h34q25 0 45 -12l23 12q12 0 34 -12q146 8 169 46l-23 124q12 16 23 124q0 26 -11 45q11 61 11 102v102q0 25 -11 45q0 34 34 34l-12 45q0 68 34 68l-11 22q3 64 34 125h11l-11 22l113 203q0 16 56 91q79 79 79 101h12l22 -11q0 60 124 79q0 8 57 34h45 q11 0 11 -11l23 11h23q111 -22 124 -22h22q0 -46 68 -57q17 -96 45 -124q12 -117 12 -136q-17 0 -34 -34q-91 0 -91 68q0 83 -56 158l-23 -11l-34 23h-33v-23h-23v23q-54 -34 -102 -34v-12l12 -22q-101 -57 -204 -350q-31 -249 -45 -249l11 -22q0 -12 -11 -12q0 -11 11 -11 l-11 -79v-45l11 -68l-11 -23q23 -208 34 -260q-11 -19 -11 -45l22 -11h113q0 23 12 23q19 0 67 -23v23h79l34 22q81 0 147 -45v-79q0 -25 -90 -45l-23 11q-89 -23 -282 -34v11q-37 -22 -68 -22q-11 -133 -11 -192v-34q0 -25 -12 -45q23 -70 23 -91h-11q11 -34 22 -34 l-11 -67l11 -102l-11 -23q11 -19 11 -45q0 -12 -11 -34q11 -19 11 -45q0 -11 -11 -11l11 -23q-7 -79 -22 -79q11 -45 34 -79v-34h11v-45q0 -23 -34 -23q0 -25 11 -45q-22 -65 -79 -90q-68 18 -68 56v12h-11l-45 -34h-23q-15 0 -45 169q-11 0 -22 34l22 11l-22 181h11 q0 34 -34 34v11q0 12 11 12q-11 22 -11 34q11 33 23 33l-12 23q12 15 12 57h-12q0 11 12 11l-23 181q14 76 34 101q-23 0 -23 12q0 23 -22 158q11 22 11 34l-23 11h-90q-23 0 -23 -34q-37 23 -67 23h-91z" />
<glyph unicode="g" horiz-adv-x="1321" d="M-108 -485q0 66 102 90l22 -34v-11l-11 -23q66 0 102 -214q22 0 45 -68q32 -49 90 -68v-11q208 11 260 11q34 34 34 79l56 -11q57 88 57 135v57q56 0 56 34v22q0 26 -11 45q38 80 45 80l-11 22q17 124 34 124q-23 47 -23 68q34 60 34 192l-11 23q11 20 11 45v34h-11 q-91 -34 -91 -57l-22 12h-11q-57 0 -57 -34h-11q-33 25 -192 68q-66 79 -125 79q0 22 23 79q-45 0 -45 180q11 22 11 34q-11 22 -11 34l22 12l-11 22v11h23q0 34 -12 34q23 170 46 170l-12 22q141 407 215 407q0 45 68 79q0 45 79 57q124 113 226 113v22h11q23 -3 23 -22 l22 11q109 -23 181 -68q71 0 113 -102h11v-67q-27 0 -45 -102q0 -11 11 -11l-45 -226q11 -22 11 -34q-22 0 -22 -11q0 -64 -23 -125q12 0 12 -11h-23q0 -181 -34 -181q11 -22 11 -34q-30 -203 -45 -203q0 -11 12 -11q-9 -136 -23 -136q0 -11 11 -11l-11 -57v-34 q0 -192 -23 -192l12 -22q0 -47 -12 -124q12 -20 12 -46h-23l11 -56q0 -49 -22 -90q11 -20 11 -46q-23 0 -56 -113l-23 -11l11 -22q-85 -109 -214 -193q-12 -19 -12 -45h-22v23h-23q0 -18 -79 -45l-56 11h-34l-34 -23q-11 0 -11 12l-23 -12h-90q-26 0 -46 -11q-19 11 -45 11 h-79q0 31 -79 91q-88 126 -192 373zM378 362q36 -86 124 -147q151 21 282 102h12q0 11 -12 11l23 169l-11 23q11 78 22 102l-11 56q15 170 34 170q0 11 -11 11q0 34 56 327l-11 23q22 37 22 68v34h-11v-34h-11l-34 22q0 -28 -113 -67q-124 -102 -124 -125q11 0 11 -11 q-57 0 -57 -45q-18 0 -45 -79v-34q-16 -1 -56 -147q-11 0 -11 -11v-12l11 -22q-38 0 -68 -192q0 -34 -11 -34l11 -57v-90q0 -11 -11 -11z" />
<glyph unicode="h" horiz-adv-x="1426" d="M189 23q37 239 56 305l-11 22l23 181l-12 23l12 22q-12 61 -12 102q0 38 12 57q-15 125 -23 158q23 57 23 79l-23 45q0 12 11 34l-22 158q11 20 11 45q-11 22 -11 34q0 11 11 11l-11 46l11 101q-22 0 -22 23h22q-11 22 -11 34q0 79 22 79l-11 56v45l11 68l-11 23l68 271 v34q68 15 68 45h11l23 -11v45h11q135 0 135 -79q12 0 12 -11l-12 -23l12 -23q0 -34 -34 -34v-22h22q-25 -136 -33 -136l11 -56v-79q0 -26 -11 -45q11 -20 11 -46h-11q0 -11 11 -11l-11 -79v-113q-23 -45 -34 -45q22 -183 22 -260q-11 -59 -11 -68l11 -68l-11 -22l11 -68v-22 q0 -26 -11 -46q11 -19 11 -45v-56h12q19 0 33 56q-11 22 -11 34q30 0 102 169q44 57 68 57q59 124 372 215q0 -19 79 -34q63 0 159 -260q-23 -4 -23 -23q23 -83 34 -203l-23 -11q12 -22 12 -34l-12 -79q12 0 12 -12h-23v-67q-23 -46 -34 -46l11 -22q0 -71 -33 -181 q11 -22 11 -34h-11l11 -22v-12q0 -11 -11 -11l11 -23l-23 -33q22 -12 34 -12v-34h-34v-101q0 -26 -34 -79h-90q0 34 -45 34v11l11 22h-22v34q0 23 33 23v68q4 22 23 22q0 12 -11 12l22 203q0 11 -11 11q31 204 56 204q0 11 -11 11q20 124 45 124q-22 57 -22 79l11 57 q-11 146 -45 169v11l11 23q-56 26 -56 56q-89 -5 -181 -90h-57v-11l12 -23q-78 0 -136 -158q-41 0 -79 -158q-22 -4 -22 -23q11 -19 11 -45l-45 -45l11 -23v-11q-45 -64 -45 -79q11 -20 11 -45v-12q-26 0 -56 -146q-12 0 -23 -68q11 -20 11 -45h-22l11 -46q-23 -22 -45 -237 l-57 -11h-22q-57 0 -57 34h-11l-34 -23h-11q0 65 -68 102l11 56v12q0 25 -11 45z" />
<glyph unicode="i" horiz-adv-x="547" d="M38 102q23 102 23 147h-23v11l45 68q-11 20 -11 45q22 0 22 23v135q0 10 23 91l-11 22q42 110 101 633q-11 22 -11 34q75 124 124 124q42 0 68 23q91 -50 91 -68q0 -29 22 -57v-22q-26 0 -45 -46l23 -33q-93 -450 -125 -509q12 -22 12 -34q-23 -37 -23 -67l11 -46 l-11 -22l11 -68v-11h-22v-34l11 -23q-38 0 -45 -79l11 -22q0 -34 -22 -91q11 -61 11 -101v-46l-34 -56l-79 11h-34q0 19 -23 34l-22 -11h-23q-17 0 -45 45zM354 2147l91 146l22 -11h91l67 -102v-22q0 -26 -11 -45v-34q-60 -91 -90 -91h-91q0 20 -56 23v11q0 12 11 12 q-34 97 -34 113z" />
<glyph unicode="j" horiz-adv-x="1490" d="M90 -271q4 23 23 23l-12 22q25 192 91 192q45 -17 45 -33l-11 -23q16 0 33 -34v-68q0 -22 -22 -22l11 -23v-11q0 -23 -22 -23l11 -22q0 -23 -23 -23q12 -34 23 -34q0 -21 -23 -90q34 -317 158 -317q3 -14 136 -33q98 0 136 113q87 79 124 79q0 33 34 79q113 241 147 339 h11q0 11 -11 11q11 135 45 181q0 11 -12 11l12 56q0 12 -12 34q46 128 68 317v11q0 25 -11 45l124 712q0 34 34 34l-34 45v11h34v90q0 38 57 147h33q0 -22 12 -22l22 11q34 0 34 -34h11l34 23h23q0 -29 45 -79q0 -12 -11 -12l11 -22q-54 -271 -102 -271l12 -23 q0 -23 -23 -23l11 -22q-11 -77 -11 -124v-12h-22l11 -79h-11l11 -22q-57 -250 -57 -317v-22h-22l11 -23v-22q0 -23 -22 -23l11 -23v-45l-23 -34l12 -56q-23 0 -57 -192h-11l11 -23l-23 -34q0 -11 12 -11q0 -116 -125 -418q-13 0 -45 -90q-46 -142 -248 -328 q-112 -56 -170 -56q0 11 -11 11q-11 -22 -11 -34l-57 11h-11v-22h-11l-271 101l-34 46q-20 0 -57 67h-11v34q0 12 11 12q-22 41 -34 169h12q-23 51 -23 147v90zM1310 2079v68q37 101 56 101q0 31 136 79q4 23 23 23h22q91 -49 91 -90l-12 -23l12 -57l-23 -11q11 -22 11 -34 q-50 -115 -135 -158h-12l12 -22h-12q-169 0 -169 124z" />
<glyph unicode="k" horiz-adv-x="1221" d="M108 -327h23l-12 79v22h23v12h-23v22q3 225 34 283l-11 22q22 85 22 91l-11 22q23 70 23 91l-12 22q27 284 46 384q-12 22 -12 34q0 61 34 124q0 12 -11 34q11 62 11 91l-11 56q26 203 34 203l-11 23q0 68 22 215q-11 18 -11 56h11l-11 23q0 11 11 11l-11 23v67 q0 40 124 57h34q0 34 23 34h45q0 -26 45 -34q0 -23 23 -23v-45q-37 -60 -57 -531h-11q0 -11 11 -11l-11 -57v-101l-12 -113h23q0 26 192 327q17 48 79 91q0 13 102 181q16 0 147 282q124 -15 124 -102v-11q-20 0 -57 -90q-16 0 -33 -57q-34 -68 -57 -68v-56 q-80 -69 -113 -181q-34 0 -34 -22q34 0 34 -80v-33q0 -12 -11 -12l11 -22q0 -26 -11 -46q11 -19 11 -45h-11q18 -24 56 -463q-11 0 -11 -11q23 -4 23 -23q0 -11 -12 -11l34 -192q-11 -20 -11 -45l45 -215q-11 0 -11 -11q34 0 34 -45l-12 -23q12 -45 46 -45l-12 -57 q12 -119 34 -158q-22 -57 -22 -79h-34v34h-12q0 -56 -33 -56q-44 33 -57 33v34l-11 57h11q-56 168 -102 519h12q-23 37 -23 57q0 11 11 11l-11 57v45q0 11 11 11q-34 53 -34 204v22q0 11 12 11q-23 37 -23 68q0 11 11 11q-22 38 -22 68l11 45l-34 102q12 22 12 34l-12 23 q12 21 12 33h-23q0 -14 -124 -203l11 -22q-44 -68 -79 -68v-79q-42 0 -90 -226q0 -53 -34 -113l11 -23v-34l-23 -34v-22l12 -79h-23q23 -46 23 -68q-14 -102 -34 -102q34 -56 34 -79l-23 -11l11 -57v-33q0 -17 -33 -34l11 -23v-79q0 -56 -79 -90q-38 0 -91 34v-23h-45 q-30 0 -45 181z" />
<glyph unicode="l" horiz-adv-x="763" d="M163 -11q45 107 45 136l-34 56q4 23 23 23l-11 79v34q0 11 11 11q0 11 -11 11l22 113q-11 22 -11 34h11q0 11 -11 11l22 147l-11 23q11 20 11 45l-11 23q20 48 34 146q0 12 -11 12l11 79v56q23 0 23 12q-12 33 -23 33q23 173 34 204l-11 22q7 79 22 79l-22 68q16 0 34 34 v45q0 102 33 192l57 -11q90 18 90 45h23q11 0 11 -11q34 0 34 34h11q46 -20 91 -91q-12 -21 -12 -33q12 -22 12 -34l-23 -12l11 -22v-68q0 -23 -22 -23q22 -37 22 -67q-19 -52 -67 -384l11 -23q0 -22 -23 -79l12 -23q-23 -89 -23 -135q0 -12 11 -12l-11 -56v-34 q0 -25 11 -45q-22 -41 -22 -90v-12l11 -113l-23 -11l12 -23v-11q0 -11 -12 -11q0 -12 12 -12l-12 -79v-79q0 -11 -11 -11l11 -23v-33q-22 -28 -22 -46q0 -12 11 -34q-14 -115 -34 -146q12 -20 12 -46q0 -22 -23 -22l11 -57v-34q0 -22 -22 -22l11 -79v-11q-30 -68 -45 -68 q11 -22 11 -34q110 58 158 124q23 -3 23 -22l22 11h12v-57l34 -45v-22q-15 0 -57 -57l-90 -56q-34 0 -34 -23q-196 0 -260 215q-29 0 -56 226h11l-23 45l23 56z" />
<glyph unicode="m" horiz-adv-x="1960" d="M46 -67q36 175 56 237q0 11 -11 11q23 196 68 384l-11 23q39 268 56 293l-11 23v11q0 12 11 12l-11 22l90 181q37 23 57 23q3 -23 22 -23q37 23 68 23q64 0 79 -125v-11q0 -11 -11 -11l11 -23l-22 -45h11q0 25 248 68v-23l57 11q6 -56 90 -56q96 -57 170 -147h11 q0 29 90 90q30 79 125 79q135 19 169 68q20 -11 45 -11q12 22 12 34h22q0 -57 102 -57q100 -37 147 -169v-203q0 -23 -23 -23l11 -56v-12q0 -22 -22 -22l11 -79q0 -57 -23 -57q0 -11 12 -11l-12 -79v-45q-38 0 -56 -159l23 -45q0 -128 -102 -169q-45 9 -45 22l-23 -11 q-124 7 -124 113q34 0 56 181q12 0 12 11v11l-12 57q30 0 57 147l-11 22v12l22 33v147q0 26 11 45q-11 22 -11 34l11 68q-22 0 -22 23v22l11 23l-45 34h-23q0 -23 -11 -23l-23 12q-237 -101 -237 -147q-30 0 -113 -113h-11v-23h23v-11q0 -23 -34 -23v-56q0 -23 -23 -23 l11 -22v-12q0 -22 -22 -22l11 -23q-23 -41 -23 -90v-91l-22 -34q0 -25 11 -45l-22 -79q33 0 45 -147l-79 -22q-57 22 -79 22v-34h-34v23q-57 -23 -79 -23l-23 12h-34q-22 53 -22 90l-23 -11v34q34 0 34 101q0 34 22 34l-11 23q0 31 23 68q-12 22 -12 34l34 33l-11 23 q23 85 23 90q-12 20 -12 46q14 0 46 79h11q0 12 -11 34l11 56q-11 22 -11 34q15 0 33 68q-15 158 -146 158l-23 -11q-20 11 -45 11q-57 -68 -57 -79h-67l11 -57q-28 0 -45 -293v-12h-23l11 -79l-56 -214l11 -23l-11 -45q11 -20 11 -45q-25 0 -45 -136l-79 11h-45l-45 -34 h-34v23l-23 -11h-23q0 22 -56 56v12z" />
<glyph unicode="n" horiz-adv-x="1345" d="M81 91q68 245 113 531h11l-11 22q11 34 23 34q0 11 -12 11l79 384l-11 23q74 246 102 260h34q11 0 11 -11q37 22 56 22q104 0 125 -79q0 -41 -79 -350v-11q114 122 225 203q147 83 147 102h12l22 -12v23h23q28 0 101 22l12 -22l56 22q0 -22 68 -45q67 -106 79 -113v-135 q0 -26 -11 -45l11 -23l-34 -102q0 -11 12 -11q0 -24 -102 -418l11 -23q-65 -166 -90 -282h-12l-45 34q-11 -22 -11 -34h-34q-34 11 -34 68v11q0 77 68 181l-11 22v12q27 31 45 90l-11 23q22 17 67 282q29 0 57 237h-23l12 23q0 21 -34 90q-238 -42 -238 -90 q-23 -7 -180 -136q-17 0 -45 -45l-80 -79l12 -22q-166 -272 -181 -407h-11q0 -11 11 -11l-11 -79v-57l22 -34v-11l-45 -91l11 -22v-23q-42 0 -113 -22l-22 34q-37 -23 -68 -23h-56l-12 56h12z" />
<glyph unicode="o" horiz-adv-x="1280" d="M64 554q27 203 45 203l-11 23q68 259 113 327l-11 23q28 0 113 226q31 0 135 135q135 68 158 68q12 0 34 -11q52 22 113 22q4 -22 23 -22q0 11 11 11v-22l56 11l46 -45l22 11q165 -117 215 -305h11v-102l11 -79h-11l11 -22v-34q0 -79 -33 -181l11 -23q-30 -30 -124 -327 q-166 -213 -305 -283q-34 0 -91 -45h-45q-80 0 -124 -22q-172 0 -317 214zM358 554q0 -204 124 -237v-12l-11 -22q56 -23 56 -45h23q147 37 147 79q64 0 180 158h23v68q36 0 102 271q11 0 33 214q-11 78 -11 125h-34v22q0 11 12 11q-57 147 -102 147q0 57 -57 57 q0 20 -146 22l-102 -90l11 -23h-22l-23 12l-11 -23l11 -23l-68 -90v-34h-11l-23 12v-12h12q-42 -98 -57 -181q-11 0 -34 -67l12 -23q-34 -96 -34 -282v-34z" />
<glyph unicode="p" horiz-adv-x="1379" d="M34 -700q9 113 23 113q0 11 -12 11q0 22 23 79q-11 20 -11 45q22 0 22 23v57q0 71 45 203q-11 22 -11 34q23 38 45 192q0 11 -11 11q11 71 34 136q-11 19 -11 45q22 0 67 101h-22v68l34 45q-23 0 -23 23v11h23v34q58 243 90 249l-11 22q11 146 34 181q-23 0 -23 23 q0 6 45 56v11h-22q0 57 22 57q0 11 -11 11q34 264 90 452h57q180 -26 180 -45l23 11h68q0 -26 158 -56q22 11 34 11q0 -37 102 -68q0 -25 101 -158q4 -56 45 -56v-23q0 -11 -11 -11q45 -147 45 -283q0 -40 -11 -101q11 -22 11 -34q-20 0 -45 -102q-79 -71 -79 -124l-79 -34 l11 -23v-11h-56q-142 -181 -328 -181q0 -11 -11 -11t-11 11q-102 -22 -147 -22l-57 11q0 -11 -11 -11l11 -57q-47 0 -101 -440q-16 -34 -23 -34l11 -23q-11 -59 -11 -68l11 -22q-40 -116 -67 -260q11 -22 11 -34q-22 -11 -34 -11l11 -23q0 -101 -90 -101l-57 22l-22 -11 q-68 0 -68 79zM475 430q11 0 11 -12l22 12h12q11 0 11 -12l68 23l22 -11q53 22 181 45v11l-11 23q11 0 11 11q22 -11 34 -11q181 102 237 237q-11 0 -11 11q49 0 68 181l-12 22l12 23l-12 45l12 23q-23 46 -23 68h11q-98 241 -225 271h-34q0 22 -23 22l-23 -11 q-84 23 -90 23q-36 -154 -79 -249q-11 -68 -23 -68l12 -22v-34q-26 0 -34 -57l11 -22l-56 -170l11 -22v-23q-59 -235 -68 -237l11 -23l-11 -67l-22 11v-11z" />
<glyph unicode="q" horiz-adv-x="1359" d="M102 791q0 11 11 11l-11 57v101l11 68q-11 22 -11 34q16 0 34 68h11v23q14 112 45 112q-11 22 -11 34l147 260q25 0 34 45q30 0 45 68q31 0 68 57q117 83 282 169h113v23h34q0 -26 147 -91q0 -19 102 -67q0 -16 67 -68l-11 -57q0 -25 11 -45l-22 -56q11 -22 11 -34 q-23 0 -34 -91q-124 -431 -214 -576q-57 -249 -147 -542l11 -23v-11h-23v-34q0 -35 -79 -373l12 -22q-23 -31 -34 -170q34 -101 67 -101h34q0 -23 34 -23v-45q0 -25 12 -45q-12 -22 -12 -34q12 0 12 -11q165 0 305 169q36 14 67 102h12v34l-12 56l46 34h22l57 -11l-12 -23 v-45q34 0 34 -23l-124 -237q-133 -122 -203 -158q-12 0 -12 11q-73 -45 -124 -45v11l-23 -11q-126 23 -225 102q0 49 -125 90q0 34 -34 34l12 56q-23 38 -23 68l11 57l-11 22q45 111 45 136l-11 45q11 21 45 158h-22v23q31 53 67 293l-11 23q23 85 23 90q-12 22 -12 34 q23 0 23 23q-23 0 -23 11q-101 -45 -180 -45h-68q-145 0 -260 305zM238 836q68 -170 124 -214l56 -12h23q56 23 56 45l23 -11h11q68 34 68 68h11l23 -11q99 59 135 226l113 384q0 40 113 406q-67 19 -67 46q-26 0 -46 -12q-11 0 -11 12q-129 0 -282 -170q-53 0 -215 -248 q-90 -207 -90 -260q-15 -6 -45 -204l11 -22z" />
<glyph unicode="r" horiz-adv-x="1306" d="M80 57v11q0 25 11 45l-11 23q11 34 23 34q0 11 -12 11q15 181 57 181l-12 22q9 170 23 170q0 11 -11 11q0 18 34 124q-12 22 -12 34q20 125 57 125q-11 21 -11 33q0 26 79 249l-12 23q34 61 34 101q-11 62 -11 91q11 0 11 11q-22 0 -22 22q0 82 56 102v23h23 q0 -31 34 -45q41 22 90 22q79 0 90 -102q-11 -21 -11 -33v-34h-11v-68h-23q0 -11 11 -11q-26 -177 -45 -204h23q123 161 192 204l-11 22v11l56 -11q0 23 158 91l170 67v-11q11 0 11 11q62 -11 90 -11l23 11q79 -11 79 -90v-34q0 -34 -113 -34l-45 11q-236 -83 -350 -169 q-54 -25 -158 -192q-82 -143 -91 -215q-68 -66 -158 -508q-11 -20 -23 -102q12 -22 12 -34q-26 0 -34 -67h-11q-81 11 -91 11l-22 -11q-108 34 -113 34q0 -12 -12 -12z" />
<glyph unicode="s" horiz-adv-x="1188" d="M23 475q0 60 45 79h11q21 0 102 -34l-11 -23v-11q0 -25 11 -45q-11 -22 -11 -34q22 0 56 -124q57 -34 57 -57q100 12 124 12v-12q294 60 294 170q16 0 79 101h11l-11 23v23q45 0 45 169v45q0 83 -124 192l-158 102q0 20 -79 68q-83 74 -136 169q-42 0 -56 181 q-12 0 -12 11q12 61 12 102v22q26 0 33 68q201 237 339 237l113 23q179 -54 226 -136q29 0 34 -56q79 -90 79 -147q-22 0 -22 -34h-12q-11 0 -11 11l-23 -11q-67 0 -124 158l-79 57h-23q-27 -23 -113 -34l12 -23q-23 -56 -79 -79q-23 -73 -23 -101v-79q51 0 68 -113 q46 -85 90 -215q26 0 45 -68q80 -37 170 -169q11 -72 68 -226l-12 -23l12 -45v-90h22v-23q-72 0 -90 -203q-95 -125 -147 -125h-34q0 -64 -124 -101v-12l-23 12h-90q-11 0 -90 -23v11l-23 -11h-11v34h-68q-23 0 -23 34h-45q-169 0 -226 282z" />
<glyph unicode="t" horiz-adv-x="1340" d="M116 1345l56 56h34q12 0 12 -11l22 11h12q27 -23 45 -23q12 0 34 12l67 -12l57 204q48 436 124 632q0 79 68 79h11q65 -50 79 -113l68 -22v-11q0 -12 -11 -12l11 -22q-23 -178 -56 -192l11 -23l-57 -192l12 -45q-45 -209 -45 -271h11q207 0 542 56h79v-45h-22 q67 -44 67 -56v-23q0 -30 -169 -45q-20 11 -45 11q-26 0 -46 -11l-22 11q-57 0 -57 -34l-56 34h-11l11 -23v-11q-23 0 -23 -11l-56 11q-237 0 -237 -79q0 -22 -23 -22l11 -23v-45q0 -97 -45 -226q0 -11 11 -11q-11 -101 -22 -125l11 -22q-22 -37 -22 -68l11 -45 q-19 -38 -45 -215l-34 -34l11 -22q0 -26 -11 -46q0 -11 11 -11l-11 -56v-23h22q0 -23 -34 -23v-33q0 -31 -22 -68q4 -25 34 -68q0 -36 -45 -90h11q34 0 34 11l56 -11h12q127 19 282 124q20 0 56 90h-22v23l56 11l68 -56v-12h-22v-11l22 -34v-45q-26 0 -56 -56 q-140 -113 -204 -113q-72 -57 -316 -57q0 23 -34 23l-22 -12q-64 0 -159 226q0 125 -22 147q22 181 34 181h11q0 12 -11 34q11 178 56 293q0 12 -11 12l102 576h-12q-17 0 -101 -23h-34v-11h-34q0 34 -68 136z" />
<glyph unicode="u" horiz-adv-x="1626" d="M77 226v23h23v11l-12 57q23 0 23 22v11l-11 57q17 0 33 45q0 11 -11 11l45 249q-11 22 -11 34q23 53 68 327l45 80l-11 22v11q0 17 34 34h79q29 0 45 -90l-68 -203q11 -22 11 -34q-22 -23 -33 -204q-57 -158 -91 -485q23 -4 23 -23q0 -11 -12 -11q30 -136 102 -136 q98 8 294 113q110 95 135 158q79 85 79 102q26 126 91 316q11 147 68 418v45q71 37 248 57q0 -16 45 -57q12 -80 12 -90q-46 0 -159 -486l12 -22q-12 -61 -12 -102v-11l12 -57h-12q12 -87 57 -158v-11h11v22q26 0 45 -11l147 23q0 -45 34 -57l11 -22q-22 0 -22 -12 q11 -22 11 -34h-11l11 -22q-22 -57 -68 -57q-22 12 -34 12q0 -18 -101 -46q0 -14 -113 -45v-11h-23q0 23 -11 23q-165 0 -215 124l-22 11l11 23v11q-22 -11 -34 -11h-34q0 -31 -79 -113q0 -45 -124 -79h-34q0 -29 -136 -45q0 -23 -22 -23q-45 9 -45 23l-23 -12 q-171 0 -203 124q-30 6 -57 102q12 22 12 34q-12 22 -12 34q12 0 12 11h-23z" />
<glyph unicode="v" horiz-adv-x="1335" d="M97 1333q34 0 90 45h57l135 -79q37 -202 57 -237v-11l-11 -23q33 -89 33 -113q0 -12 -11 -34q23 -36 34 -124h-11q34 -93 45 -169l-11 -23l22 -68l-11 -22q23 -100 23 -158h22q0 17 34 45v34q49 0 68 56l101 147q0 23 57 113q-11 0 -11 11q77 54 113 147q56 90 79 90 q0 48 67 125q20 135 91 135h34q16 0 34 -34h-34v-11l45 -11v-11l-11 -23h22v-23q-65 -66 -113 -203q-121 -160 -135 -203q-41 0 -57 -91q-24 0 -56 -79l-34 -34l11 -22v-12q-23 0 -192 -248q-82 -124 -102 -124q-57 -125 -180 -125q-72 0 -113 204q-34 227 -57 316l12 23 l-23 45q11 22 11 34q-34 0 -34 147q12 0 12 11q-23 0 -57 214q-22 0 -22 23l11 79q-23 65 -34 271z" />
<glyph unicode="w" horiz-adv-x="2011" d="M153 938q23 37 23 68v45q0 25 -12 45l12 23q-12 14 -12 56q12 0 23 57l-11 22v158q0 30 113 79q63 -33 203 -79l34 -67l-23 -57q23 -3 23 -23v-11q-32 0 -45 -135v-57h22v-22q-12 0 -34 -12q0 -11 12 -11q-9 -136 -23 -136l11 -22v-91q0 -25 -11 -45q11 -22 11 -34 l-11 -79l11 -22q-11 -20 -11 -45v-12q0 -25 11 -45q-11 -56 -22 -56q11 -42 11 -102h11q86 174 136 181l-11 22q180 342 180 373v34q45 0 102 135h23v12h-34v22q39 0 67 102h12q30 0 68 -23q33 12 112 12q0 -26 46 -34q0 -26 11 -45q-11 -68 -23 -68q23 -37 23 -57 q-11 -34 -23 -34q12 -89 34 -169h-11q37 -250 68 -339q0 -11 -12 -11q12 -84 34 -147h-11q19 -113 34 -113q20 0 113 102q22 0 90 90q57 35 158 282q28 0 102 272q26 0 79 237q22 0 68 169q23 45 34 45h79q0 -30 34 -67v-46q-49 -39 -147 -361q-16 0 -34 -34l11 -22 q-39 -136 -67 -136q11 -22 11 -34q-4 -49 -147 -294q-60 -152 -203 -226q0 -61 -238 -169h-22l-23 11q0 -22 -11 -22q-45 0 -68 45q-62 0 -101 158q-16 0 -46 158q-8 57 -34 57v11q0 11 12 11q-34 64 -57 305q12 20 12 45l-23 12q0 -34 -102 -170q0 -12 -11 -34 q11 -21 11 -33q-106 -107 -124 -204q-62 0 -68 -101q-65 -105 -158 -181q0 -34 -79 -34l-11 22l-57 -11q-60 0 -90 136l11 22l-34 215q12 102 23 102q0 11 -11 11q22 85 22 90q-22 12 -34 12q0 12 12 33q-12 154 -12 215l12 23z" />
<glyph unicode="x" horiz-adv-x="1520" d="M37 396q0 84 147 203q0 45 68 102q0 22 79 90q0 37 90 113q90 147 90 169q-48 55 -135 204q-83 83 -147 90v23q0 11 11 11q-11 22 -11 34q11 80 11 90h34q163 -108 305 -339q26 -33 34 -33q0 30 181 248q0 46 192 192q22 46 22 68h12q39 -34 113 -34q22 11 34 11 q0 -27 113 -90v-34q-34 -79 -125 -147q0 -34 -101 -135q0 -42 -91 -113q0 -33 -34 -57q-14 0 -146 -181h-12l102 -135q125 -158 158 -158q0 -41 124 -113q0 -14 91 -45q25 -68 101 -68q-56 -38 -56 -68q-37 -23 -68 -23q-82 68 -124 68q-22 71 -203 192q-91 79 -91 136 q11 0 11 11q-36 0 -101 68l-158 -136q-31 -64 -102 -124q-34 -37 -34 -90q-29 0 -45 -91q-45 -27 -45 -101l-113 22q-22 -11 -34 -11q0 64 -124 124z" />
<glyph unicode="y" horiz-adv-x="1518" d="M68 -282q19 0 56 34h34q38 -34 68 -34v-45q0 -54 57 -136q95 -169 192 -169q169 17 169 169q0 11 23 11l-12 23q0 35 34 68q0 60 68 294q45 102 90 282q12 0 12 11v12q0 25 -12 45q68 169 80 260q-12 21 -12 33q26 0 34 147q0 29 -79 79q0 31 -56 68q0 49 -113 136 q-34 105 -79 124l-34 45q-113 107 -113 136q-42 0 -170 147q-101 33 -101 90l-12 56q42 23 91 23q52 -57 158 -136q152 -141 169 -180q30 -4 57 -57h11l-11 -22v-12q67 0 67 -67q44 0 102 -91l45 -34q77 -137 113 -158h12q45 230 146 497q68 306 68 339q-22 0 -22 23 q0 66 259 146q0 12 12 12q113 0 113 -124q-12 0 -12 -12q23 -3 23 -22v-12q-12 0 -34 -11l11 -23v-11q-51 0 -79 -135q-31 -48 -79 -294q-22 0 -90 -294q11 0 11 -11q-22 0 -22 -34l11 -23q0 -33 -34 -33l11 -23v-11q-22 -16 -45 -181q-17 0 -34 -45q0 -24 57 -68v-45 l-57 11l-113 -452q-14 0 -79 -169q0 -12 11 -34q-21 -102 -45 -102q12 -22 12 -34l-91 -192q-39 -36 -68 -113q-19 0 -113 -101h-45q0 -34 -67 -34v11q-49 -23 -147 -34q0 20 -102 34q-124 68 -124 102l-147 192v11l11 23q-45 0 -45 34l11 22z" />
<glyph unicode="z" horiz-adv-x="1268" d="M40 215q0 75 192 339q0 38 68 79q17 55 181 237q49 95 124 147v11h-23v34h23l34 -22q0 64 79 146l22 -11q0 72 136 237q0 57 56 57q0 10 46 68v11q-12 0 -12 -11q-67 8 -67 22l-46 -22q-33 0 -180 22q-22 -11 -34 -11l-23 11q-22 -11 -34 -11q0 22 -22 22 q-226 -11 -305 -11q-57 97 -57 124v12q23 0 68 45q26 -23 181 -45q82 11 101 22q15 -11 57 -11v11l34 -22q34 0 34 11q85 -11 113 -23l67 12h113l34 22h11v-22h23l79 11v-11q11 0 11 11q125 -15 125 -90q67 0 67 -102q0 -19 -56 -124q0 -37 -45 -45q-132 -197 -249 -328 q-41 0 -101 -158q-46 0 -68 -91q-20 0 -79 -90q-66 -113 -79 -113q0 -74 -57 -102q-75 -158 -101 -158h-12v-11l68 -11q74 11 147 11h11q11 0 11 -11q26 11 136 34l45 -23l12 23l56 -12h147l22 -79l-22 -11l-23 11v-11l23 -34v-23q-20 0 -34 -33q-34 0 -34 33h-11 q-38 0 -57 -11l-67 11h-34v-22q-68 8 -68 22l-23 -11h-11q-11 0 -11 11l-23 -11q-11 0 -11 11l-23 -11h-56q-41 0 -102 -11l-23 11l-225 -34l-68 12l-23 -12q-144 51 -158 102z" />
<glyph unicode="{" horiz-adv-x="863" d="M60 904q0 45 34 136h11l23 -12q50 107 147 249q34 90 45 90q-31 104 -57 136l12 22l-34 158v57h-12l-22 -11l-11 22q22 0 22 23v124l-11 57q18 0 34 90l-12 23v11q0 11 12 11l-12 23q23 37 23 67q-11 22 -11 34q17 0 56 68l23 23l-11 22v46q42 0 79 101q33 0 56 91 q79 22 79 79h34v22h57l45 34h11q0 -22 45 -68v-34q22 -11 34 -11v-34q0 -19 -124 -56l11 -23q-11 -20 -11 -45q11 -22 11 -34q-46 0 -113 -102q-135 -68 -135 -282l-12 -23l12 -22q-23 -70 -23 -113l11 -79q-11 -22 -11 -34q74 -328 113 -328h11l-11 -56v-11l23 -34 q0 -40 -80 -125q-83 -103 -146 -226h-23q0 -53 79 -124v23q34 -11 34 -23l-11 -56q79 -57 79 -113l-57 -192q12 0 12 -12q-21 0 -57 -79h-11v-67q-23 0 -23 -12l12 -135l-12 -23l68 -339q23 -101 102 -203q0 -60 79 -113l147 -68q33 34 33 79h23q34 -53 34 -90l-11 -68v-79 l-23 -11q-273 91 -339 203q-29 0 -45 45q-24 0 -79 125q-23 33 -45 33v23q0 11 11 11q-68 150 -68 317q-11 0 -34 67q12 22 12 34q-23 85 -23 91q28 259 68 293q0 12 -11 12q0 24 33 113v33h23v23l-23 -11v68l-56 22v11q0 12 11 12q-20 47 -68 68q0 -12 -11 -12q0 68 -45 68 z" />
<glyph unicode="|" horiz-adv-x="377" d="M60 91q11 204 23 248q-23 0 -23 23v56h23l-12 23l23 214l-11 23q11 136 33 203l-22 12q11 208 11 305v56q4 23 23 23l-12 56v57q0 22 34 22v12l-34 56l34 102q-11 20 -11 45h11q0 11 -11 11l11 57v22l-11 68q23 45 23 79l-12 79q12 75 12 147l-12 45q12 19 12 57l-12 22 q23 37 23 68v23q-23 22 -23 68q20 0 57 33h34q56 -29 56 -45v-11q0 -11 -11 -11l11 -23v-79l-11 -68q11 -20 11 -45h-11q0 -11 11 -11q-22 -97 -22 -170l11 -45q-11 -22 -11 -34q0 -11 11 -11l-23 -181l12 -68q-23 -114 -23 -135l11 -23l-22 -56q0 -12 11 -34 q-15 -215 -34 -215l11 -22v-317q0 -11 -11 -11q11 -22 11 -34q0 -79 -33 -79v-45l22 -34q0 -25 -11 -45q11 -96 11 -158v-12l-11 -67l11 -23q-11 -22 -11 -34l11 -22q-11 -22 -11 -34l11 -57h-11l11 -22q-11 -34 -22 -34q22 -37 22 -68v-23q0 -22 -22 -22l22 -45 q0 -12 -11 -34q13 -147 45 -147v-34l-11 -57h-45l-23 12q0 -34 -23 -34q-22 11 -34 11q0 -11 -11 -11q0 30 -34 79l12 22l-12 23l12 23l-12 22q12 82 23 102q-23 37 -23 56l12 23q-12 20 -23 102z" />
<glyph unicode="}" horiz-adv-x="1179" d="M60 -915q30 34 68 34q0 13 68 57q56 0 56 -46h23q90 8 259 147q0 19 181 181q0 30 124 158q0 52 68 147h-22v23q45 0 45 79l-11 22q36 54 45 125q-34 0 -34 79h11l-11 22l11 45q-22 46 -22 80h11q-15 77 -57 135h-34l12 23q-102 30 -102 135q113 96 181 226v34 q-62 113 -170 147v11q0 72 68 147l-11 23q11 56 56 79q46 160 46 180v23l-12 23l34 22l-11 23l11 101q-11 22 -11 34h11l-11 23v56h-11l11 57v23q0 22 -23 22q23 37 23 57q-16 0 -68 146q-61 166 -181 260q-7 42 -90 91q0 29 -147 101l-23 79v12q0 17 46 45h22v-23l23 12h11 q159 -92 283 -238q22 0 90 -135q23 0 34 -91q90 -79 90 -146h-11q68 -134 68 -430q-26 -283 -79 -327l11 -23q0 -29 -34 -79v-11l34 -45q0 -30 -79 -46v-11q78 -45 113 -45l-12 -23q22 -11 34 -11v-11l-11 -23q27 0 45 -79q-73 -202 -147 -282v-23q68 0 125 -282l-12 -23 q12 -99 34 -124h-11q11 -22 11 -34q0 -11 -11 -11l11 -57v-68q0 -11 -11 -11q0 -11 11 -11q-3 -99 -79 -226q-25 -110 -135 -215q0 -53 -226 -237q-12 -52 -215 -169h-11v22q-82 -56 -136 -56v11l-22 -11q-14 11 -68 11v-11h-91q-17 0 -45 45q12 22 12 34q-23 0 -23 22z" />
<glyph unicode="~" horiz-adv-x="2128" d="M60 723q0 100 90 226q159 254 475 350q64 0 124 23q119 0 260 -158q19 -45 45 -45v-12l11 -135q-11 0 -11 -12q22 -11 34 -11l-11 -79q72 -103 135 -124q22 11 34 11l11 -22l57 11h90q26 16 136 45q15 16 147 68q226 210 226 305q56 34 79 34q0 -24 56 -68 q0 -76 -79 -147q0 -31 -34 -45q-77 -170 -282 -249v-22l-23 11q-183 -56 -260 -56h-11v-23q-62 11 -90 11l-45 -22q0 34 -23 34h-34q-119 42 -158 146q0 34 -23 34h-34q-11 20 -11 46h11q-22 54 -22 135h11q0 138 -147 203q-11 0 -11 -11l-57 11h-67q0 -40 -136 -56 q0 -42 -90 -68q-160 -146 -181 -248q-16 -1 -90 -136l11 -23q-11 -21 -11 -33q-102 4 -102 101z" />
<glyph unicode="&#xa2;" horiz-adv-x="1304" d="M60 791h11q0 11 -11 11q0 21 23 91l-12 22q44 190 249 441l192 158q27 0 90 68q146 34 158 34v79l12 56q-23 0 -23 23v11q34 52 34 90q0 12 -11 12q0 339 79 339q46 0 90 -113q-5 -57 -34 -57l12 -56l-23 -136l11 -22l-11 -23q0 -11 11 -11l-11 -79v-79q38 0 56 -12 q22 12 34 12q226 -161 226 -170l-11 -56l11 -57q-11 0 -11 -11q-11 0 -11 11l-57 -11q-70 90 -79 90q-37 -22 -56 -22q0 22 -23 22q-40 -11 -45 -11h-34l-11 -68v-124q0 -11 -12 -11q12 -91 23 -91l-11 -56v-68q0 -25 11 -45q-11 0 -23 -181l12 -56q-28 0 -46 -249l12 -56 q-23 -4 -23 -23v-57h11q203 40 339 170h23q0 -18 23 -45q-37 -192 -181 -192q-30 -30 -181 -68v23h-23q-56 -133 -56 -339q11 -44 11 -91v-56q0 -12 -11 -12l11 -22v-11q0 -73 -11 -147q11 -42 11 -102h-22q-46 19 -46 45h-11l-34 -45v-11h-34q0 25 -11 45q11 20 11 45v11 l-22 34q19 0 34 68q0 11 -12 11l12 113v34q0 26 -12 45l23 102l-11 23q0 12 11 34l-11 67q0 12 11 12q0 11 -11 11l11 56v12q-11 0 -11 -12q-68 9 -68 23q-11 0 -11 -11q-219 0 -373 147l-45 67q-88 255 -102 407zM388 678q0 -164 214 -316v-23l-11 -22l23 -12h67 q9 125 23 125q0 11 -11 11q0 38 45 339q0 11 -12 11q12 83 23 339q-11 22 -11 34h22v22q0 23 -22 23l22 113q-11 0 -11 11q-41 0 -215 -339l-33 -45q-86 -145 -113 -271z" />
<glyph unicode="&#xa3;" horiz-adv-x="1868" d="M60 938v90q0 27 90 34v-11l23 11h68q47 0 124 -11l23 11q44 -11 79 -11q22 11 34 11v34q42 363 146 520q77 83 102 180q114 125 192 125l23 -12q52 23 113 23q90 0 90 -34h11v23h34q181 -44 181 -136q11 0 11 -11q-22 -57 -34 -57q-7 0 -158 57h-79q-217 0 -271 -305 l11 -23l-56 -147q11 -22 11 -34v-112h11l-11 -23v-90h136q274 22 305 22h34q0 -12 11 -34q0 -11 -11 -11l11 -57v-22q0 -23 -23 -23h-11q-41 0 -102 12q-11 0 -11 -12q-173 23 -203 23v-11q-34 0 -34 11q-147 -19 -147 -57l11 -22v-215q0 -45 -34 -192v-11l12 -57h-23v-79 q-23 0 -23 -11q12 -22 12 -34q-19 0 -45 -158q27 -23 45 -23q22 12 34 12v-12l22 12h68q62 0 158 -12l23 12q98 -12 147 -34l22 11q57 -23 57 -34l22 11h34l68 -11q22 11 34 11v-11l22 11q12 0 12 -11l22 11q12 0 12 -11q82 11 203 57q0 56 45 56q45 -76 45 -124v-45 q0 -12 -56 -57l-23 12q-110 -34 -203 -46q-22 12 -34 12l-23 -12q-67 12 -67 23l-23 -11h-11q-23 22 -79 22v-11h-23q-178 45 -237 45q-40 -11 -45 -11l-45 22q0 -22 -23 -22q-34 0 -34 11l-56 -11h-113q0 -23 -12 -23l-22 12q-163 -60 -249 -136q-52 -34 -68 -34 q-36 23 -56 23q-66 -34 -113 -34v45h23v56q69 63 124 204q27 28 45 101q74 171 102 543q11 125 11 226q-23 0 -23 22q-58 -34 -113 -34h-22q-11 0 -11 12q-24 -12 -102 -23v11l-68 -34h-34q0 23 -45 57z" />
<glyph unicode="&#xa4;" horiz-adv-x="1100" d="M60 1503v45q23 27 23 45h90q44 -17 192 -316q295 101 350 101q0 -11 11 -11l12 23v56q56 0 56 91v33q20 0 57 91q47 68 79 68q38 0 56 11q0 -23 34 -45q0 -116 -79 -181q-79 -125 -79 -203q11 -22 11 -34q-36 0 -56 -113l11 -23l-22 -34q36 -2 79 -259q1 -55 79 -136 q11 -59 11 -68q-11 -22 -11 -34h-12l-22 12q0 -57 -34 -57h-11q-85 167 -136 215h-102q0 -34 -22 -34h-34l-23 11q0 -34 -45 -34q-28 0 -124 23q0 -96 -57 -102q0 -17 -45 -45h-22q-34 65 -34 79q42 54 68 147h11q-23 137 -23 271q-24 0 -68 68h-11v45l11 56q-12 0 -67 136 q-82 102 -102 102zM399 1153q45 -227 45 -249q-11 0 -11 -11q45 -23 79 -23q20 11 45 11v-11l169 45q12 0 12 12q-34 76 -45 271h11l-11 22l11 23h-23l-192 -57q0 -33 -90 -33z" />
<glyph unicode="&#xa7;" horiz-adv-x="1191" d="M60 1717h11l-11 23q0 25 68 147q0 26 113 113q0 45 248 124q101 14 125 23q116 -23 293 -136q12 -38 113 -124v-45q0 -68 -68 -68q-25 0 -124 147q-102 113 -271 113q-22 -12 -34 -12q0 12 -11 12l-192 -125q0 -18 -45 -45q-43 0 -79 -181v-22q0 -110 135 -226 q311 -75 463 -147q173 -97 271 -260q0 -20 23 -56q-4 -85 -136 -181l-11 -23l68 -90q79 -24 102 -271v-45q0 -254 -159 -441q-147 -90 -237 -101q-440 65 -440 90v68q52 94 113 113h22v-113q185 -45 271 -45q226 47 226 135q61 31 91 203h11l-11 23v11q0 12 11 12l-11 22 l11 68q-23 37 -23 68q12 0 12 11q-23 0 -34 90q-59 86 -147 125q0 19 -57 34l-67 -12l-46 12q-21 -12 -33 -12q-286 74 -317 136q-102 68 -124 158q-34 11 -34 68v11q0 11 11 11q0 12 -11 12q59 237 102 237q0 20 -79 56q0 8 -91 192zM286 1107q0 -154 248 -237q46 0 46 -22 q22 11 34 11q199 0 271 -45l-12 22v34q0 26 12 45q-12 20 -12 45v23h23q0 -26 45 -45q11 22 11 34q-83 174 -305 260q-124 33 -124 56q-22 -11 -34 -11q-34 0 -90 22q-68 -90 -79 -90l11 -23v-22q-34 0 -34 -11q12 -22 12 -34z" />
<glyph unicode="&#xa8;" horiz-adv-x="721" d="M60 1263q0 13 14 26l71 72q13 12 25 12q11 0 27 -14l69 -73q10 -14 10 -25q0 -13 -12 -27l-69 -75q-17 -17 -25 -17q-14 0 -25 12l-76 86q-9 12 -9 23zM425 1263q0 13 14 26l71 72q13 12 25 12q11 0 27 -13l69 -74q10 -14 10 -25q0 -13 -12 -26l-69 -76q-17 -17 -25 -17 q-14 0 -25 12l-76 87q-9 11 -9 22z" />
<glyph unicode="&#xa9;" horiz-adv-x="2395" d="M262 848v56q0 25 11 45q0 11 -11 11l11 80v33l-11 57h11l-11 23v11l23 34l-12 22q149 417 305 610q121 192 204 192q171 134 519 249q12 0 12 -11q11 0 11 11q305 -38 305 -124l34 22q203 -44 203 -192l316 -463q0 -38 34 -68l-34 -45l23 -11l-11 -57v-113q0 -22 -23 -22 l11 -57l-11 -22q0 -12 11 -12q0 -154 -90 -395l-56 -79h-23l11 -23v-11q-38 -34 -101 -136q-84 -100 -170 -146q0 -25 -124 -91q-180 -113 -260 -113h-45l-23 12q0 -57 -237 -57q0 -11 -23 -11v22h-45q-30 0 -68 23l-45 -11l-169 56q0 -11 -11 -11q0 41 -91 56 q-45 23 -45 68l-23 -11q-158 126 -158 181l-56 11v34l11 22q-22 12 -34 12v45l11 22q-31 0 -56 272zM398 791q18 -47 45 -215q48 -98 68 -101q22 -60 90 -102q0 -76 373 -158q109 0 135 -23q65 34 237 46q0 -12 12 -12q0 22 147 91q35 45 45 45h11v-23h11q0 34 57 45 q4 20 147 113q0 31 135 181q0 27 45 90q46 57 102 351l-11 22q11 34 22 34l-11 23v113q0 11 11 11q-17 121 -33 136q11 21 11 33q-25 2 -68 113q-23 0 -45 57q-23 0 -57 56q-45 0 -45 91q-14 0 -79 124q-115 85 -147 124q-155 68 -192 68q-192 -11 -192 -34q0 23 -11 23 q-34 0 -34 -34l-23 11l-192 -113q0 11 -11 11q-135 -94 -135 -113q-24 -1 -125 -135q-43 0 -56 -79q-27 0 -91 -170q-67 -80 -124 -327q0 -11 11 -11l-22 -147q0 -12 11 -12l-11 -56v-11l11 -79h-11l11 -23q-11 -34 -22 -34zM646 1096q11 20 11 45l-11 45l23 46 q-12 21 -12 33q57 116 57 147l22 -11v11l-11 23q157 282 271 282q0 34 204 79l45 12l22 -12q20 12 46 12q136 -48 169 -147q56 -113 79 -113l-11 -79v-23q-57 0 -57 -34h-34q0 24 -67 91q-20 11 -46 11v56q-11 91 -79 91q-135 -18 -135 -57q11 0 11 -11q-27 0 -68 -68 q-56 -31 -135 -260h-12l12 -22v-23q-23 0 -23 -11q11 -99 11 -113q-33 0 -45 -169q0 -136 147 -136h34q0 -18 23 -45l22 11l23 -11l68 11v-11q188 67 226 102q0 79 90 79q3 30 56 56v11h12q79 -82 79 -146q-26 0 -102 -113l-147 -80q-90 -7 -90 -56l-57 11q-22 -11 -34 -11 q0 11 -11 11q0 -30 -101 -45h-46q-190 0 -339 237l-45 136h12z" />
<glyph unicode="&#xad;" d="M187 960q40 46 79 46v22h11l23 -11q0 11 11 11v-22l23 11q106 -23 169 -23h34q23 -3 23 -22q37 22 68 22q30 0 67 -22q4 22 23 22h79q144 0 294 23v-11l22 11h23l22 -11q0 18 181 56v-11q87 22 463 45q12 -22 12 -34q-27 -135 -91 -135q0 -23 -22 -23h-12q0 34 -33 34 v-23l-80 12h-33q-249 -18 -249 -46l-56 12h-23q-25 0 -45 -12q-20 12 -45 12v-23l-57 11h-11l-45 -33h-12l-22 11l-12 -23l-192 23q-96 -23 -113 -23q-79 8 -79 23l-56 -11h-34l-79 22q0 -22 -34 -22l-45 11q-20 -11 -45 -11v11l-23 -11h-23q-56 25 -56 112z" />
<glyph unicode="&#xae;" horiz-adv-x="2083" d="M60 915q11 22 11 34l-11 23q11 101 23 101l-12 57v102q4 22 23 22l-11 57v11q27 27 56 147q51 82 147 294q47 53 147 214l56 68q505 282 622 282q288 -22 316 -113l56 12h34q158 -96 158 -204q238 -342 238 -361q30 0 90 -147q0 -23 -23 -23q12 -62 12 -90l-34 -316 q11 -22 11 -34q-101 -361 -158 -362q0 -50 -147 -203q-5 -27 -124 -102q-3 -31 -215 -146q-101 -46 -124 -46l-68 -11l-45 23q0 -68 -237 -68q-497 104 -497 192q-57 0 -57 56h-11l-23 -11v34l-22 -11q-49 124 -113 124l11 56q-26 0 -79 339zM196 870q22 -114 22 -135h-11 q28 -142 158 -283q16 0 45 -45q87 -75 316 -124q170 -12 170 -34q96 34 203 56l68 -11l169 113v11l23 -11h23q0 23 158 124q203 228 203 283q102 132 102 339q22 0 22 192v56q0 25 -11 45q11 22 11 34q-22 37 -22 57h11q0 14 -102 169q0 37 -45 45l-56 68q-64 172 -170 249 q-64 56 -135 90q0 15 -113 45q-11 0 -11 -11q-12 0 -34 11q-144 -8 -170 -34q0 23 -11 23q-34 0 -34 -34h-23q-11 0 -11 11q-80 -49 -169 -113q-77 0 -170 -113q-147 -148 -169 -158q0 -33 -79 -169q0 -41 -45 -79q0 -33 -57 -136v-56q-36 0 -45 -238h-11l11 -22v-45 q0 -12 -11 -12l11 -22q0 -12 -11 -12l11 -22v-45q0 -12 -11 -12q0 -11 11 -11q0 -12 -11 -34zM591 689h11q0 12 -11 12l11 56v158l12 68l-12 23l23 79q-11 22 -11 34q8 67 22 67l-11 23v79q0 11 11 11l-11 23q9 113 22 113q0 11 -11 11q15 156 23 192l-23 125q18 56 79 56 q22 -11 34 -11l57 22q11 0 11 -11q21 0 90 23q190 0 418 -204q0 -41 45 -68l-11 -45q11 -100 11 -124q-72 -102 -90 -102q0 -67 -45 -67q-65 -23 -102 -68q80 0 249 -249l90 -180q0 -12 -11 -12q34 -110 34 -147l-91 -22q-35 0 -79 124h-11l11 57q-39 110 -124 225 q-38 0 -57 57l-180 79q-90 -23 -136 -23v-33q0 -57 -22 -57l11 -56q0 -38 -34 -249l11 -23h-22v-56q-12 -34 -68 -34h-34q-79 44 -79 124zM851 1232h22q60 0 249 101q60 55 90 113h12v57q0 11 11 11q0 90 -192 169h-45v12h-23q-25 0 -45 -12q-20 12 -45 12q-22 -12 -34 -12 l22 -33v-34q0 -47 -11 -91q11 -45 11 -79q-22 -128 -22 -181v-33z" />
<glyph unicode="&#xb0;" horiz-adv-x="761" d="M60 2429q68 249 226 249q0 11 34 11l56 -11q4 22 23 22h45q109 0 170 -192q40 -45 67 -215q0 -109 -135 -158q-105 -56 -170 -56v11l-22 -11h-12q-174 0 -214 113q-45 42 -68 237zM196 2395q0 -117 90 -203q6 0 45 11q12 0 34 -11q203 56 203 147q-77 248 -158 248 q-5 -23 -56 -45l-23 11q-82 -13 -113 -79h-11l11 -22q0 -57 -22 -57z" />
<glyph unicode="&#xb1;" horiz-adv-x="1575" d="M60 430q0 38 34 90l135 -11h34q62 0 158 11q20 -11 46 -11q37 22 67 22h12q11 0 11 -11q13 11 68 11v-11h11q0 23 23 23v33q0 50 79 452q-12 45 -12 79q12 0 12 12h-124l-23 11v-34q-11 0 -11 11l-23 -11h-79l-57 -11v11l-146 -45q-20 11 -46 11l-56 -11q0 27 -57 68 q23 37 23 67v34q34 0 79 12v-23h136q25 0 45 11q11 0 11 -11l294 34q22 -11 34 -11q0 11 11 11l-11 22q-12 303 -12 373h12l-12 23v68h-22v34q32 0 56 33v12q113 -23 113 -113q-8 -45 -22 -45l11 -23v-260l-11 -113l22 11h79q79 0 215 23v-11q44 22 124 22h12q0 23 11 23 q14 0 113 11q68 -51 68 -124q-69 -45 -91 -45l-22 11q-20 -11 -46 -11v11q-11 0 -11 -11l-101 22v-22q-12 0 -34 11q-208 -45 -226 -45v-11q-85 22 -91 22q-11 -34 -22 -34l11 -22l-11 -113l11 -45q-23 -37 -23 -68q12 -22 12 -34h-23v-57q-34 -146 -34 -192v-11l57 11 q12 0 34 -11l327 68q34 -93 57 -113q0 -68 -45 -68q-140 11 -147 11v-11l-23 11h-203q-12 0 -12 12q-37 -23 -67 -23l-57 11q-47 -38 -237 -56v11q-52 -22 -102 -22v11q-110 -17 -135 -34l-23 11q-61 -11 -102 -11h-11q0 41 -45 57z" />
<glyph unicode="&#xb4;" horiz-adv-x="601" d="M60 1078l291 297q35 35 55.5 47t40.5 12q33 0 53.5 -20t20.5 -51q0 -22 -15.5 -42t-46.5 -40l-330 -203h-69z" />
<glyph unicode="&#xb6;" horiz-adv-x="1620" d="M60 1593q68 221 68 249q34 9 79 135q18 0 56 57q0 71 633 146l203 46q12 0 12 -12q135 12 158 34l67 -11l23 11q11 0 11 -11l57 11h68q27 -22 45 -22v-12q0 -25 -11 -45l11 -22q-11 -57 -23 -57q-90 0 -90 23l-57 -12h-135q-11 0 -11 12l-23 -12l-23 12q0 -34 -22 -34 q-12 0 -12 11q-79 -5 -79 -113l12 -22q-34 -168 -34 -407q22 -4 22 -23q-18 -36 -34 -101q6 -63 91 -125v-79q0 -25 -57 -34q12 -92 23 -113q-11 -19 -11 -45v-11q0 -38 11 -57q-11 -44 -11 -79q0 -23 22 -158h-11q34 -74 34 -101v-12q0 -11 -11 -11q22 -70 22 -90h-11 l11 -23v-11l-11 -23q56 0 56 -203q-11 -22 -11 -34q34 0 34 -23v-67l11 -136h-11q-23 0 -23 34q-12 0 -56 -68h-11v23h-12l-22 -12v159q0 11 11 11l-23 102q0 11 12 11l-12 56v79l12 23q-23 0 -23 23v22l11 23h-22v22q0 26 11 46q-11 21 -11 33q11 0 11 12q-23 0 -23 22v45 l12 23q-23 0 -34 136l11 22q-22 89 -34 181q12 22 12 34q0 22 -23 79q11 22 11 34h-11q-80 -23 -203 -34v-79q0 -26 -12 -45q12 -22 12 -34h-12l12 -23v-11h-23v-11q23 0 23 -12q0 -47 11 -124q0 -12 -11 -34q11 -268 56 -474h-22q-12 0 -12 11q-56 0 -56 -45h-23 q-16 0 -34 34v11q0 11 12 11l-12 23v181q0 25 12 45q-12 22 -12 34h12l-12 22v136q0 11 12 11l-12 23l12 68q-12 33 -23 33q11 88 34 136l-23 79l-79 -23q-248 31 -248 91q-74 0 -136 124q-53 16 -158 305zM196 1638q22 -37 22 -68h-11l11 -22q-11 -20 -11 -45 q13 0 113 -192q72 -61 181 -113q19 11 45 11l22 -11l113 34l-11 56v68q0 11 11 11q-22 73 -67 418q-46 74 -46 113q26 0 34 57q113 -12 113 -159q11 0 11 -11l-11 -68v-11q4 -79 23 -79l-12 -57q0 -76 46 -327q185 65 203 90q-11 213 -34 350h11q0 12 -11 12q11 121 23 147 h-23v45q0 11 11 11l-11 23v147q-38 0 -56 11v-23h-12l-34 23q0 -34 -45 -34l-22 11l-158 -45h-34q-12 0 -12 11q-45 -34 -113 -56q-203 -107 -203 -237q-20 -4 -56 -91z" />
<glyph unicode="&#xb8;" horiz-adv-x="548" d="M60 -290q85 -52 152 -52q66 0 94.5 21.5t28.5 66.5t-49 64q-40 16 -102 16q-16 0 -34 -2l48 176h63l-37 -104q32 4 62 5q86 0 134 -40.5t48 -113.5q0 -76 -58.5 -120.5t-160.5 -44.5q-109 0 -189 32v96z" />
<glyph unicode="&#x2c6;" horiz-adv-x="722" d="M60 1079l232 355h118l232 -355h-58l-233 216l-233 -216h-58z" />
<glyph unicode="&#x2dc;" horiz-adv-x="714" d="M60 1132q19 106 68 158.5t129 52.5q46 -1 113 -24q64 -23 112 -23h4q36 0 58 20t36 66h54q-20 -103 -68.5 -154t-126.5 -51h-4q-50 0 -113 23q-66 24 -114 24q-39 0 -60.5 -20.5t-33.5 -71.5h-54z" />
<glyph unicode="&#x2000;" horiz-adv-x="1350" />
<glyph unicode="&#x2001;" horiz-adv-x="2700" />
<glyph unicode="&#x2002;" horiz-adv-x="1350" />
<glyph unicode="&#x2003;" horiz-adv-x="2700" />
<glyph unicode="&#x2004;" horiz-adv-x="900" />
<glyph unicode="&#x2005;" horiz-adv-x="675" />
<glyph unicode="&#x2006;" horiz-adv-x="450" />
<glyph unicode="&#x2007;" horiz-adv-x="450" />
<glyph unicode="&#x2008;" horiz-adv-x="337" />
<glyph unicode="&#x2009;" horiz-adv-x="540" />
<glyph unicode="&#x200a;" horiz-adv-x="150" />
<glyph unicode="&#x2010;" d="M187 960q40 46 79 46v22h11l23 -11q0 11 11 11v-22l23 11q106 -23 169 -23h34q23 -3 23 -22q37 22 68 22q30 0 67 -22q4 22 23 22h79q144 0 294 23v-11l22 11h23l22 -11q0 18 181 56v-11q87 22 463 45q12 -22 12 -34q-27 -135 -91 -135q0 -23 -22 -23h-12q0 34 -33 34 v-23l-80 12h-33q-249 -18 -249 -46l-56 12h-23q-25 0 -45 -12q-20 12 -45 12v-23l-57 11h-11l-45 -33h-12l-22 11l-12 -23l-192 23q-96 -23 -113 -23q-79 8 -79 23l-56 -11h-34l-79 22q0 -22 -34 -22l-45 11q-20 -11 -45 -11v11l-23 -11h-23q-56 25 -56 112z" />
<glyph unicode="&#x2011;" d="M187 960q40 46 79 46v22h11l23 -11q0 11 11 11v-22l23 11q106 -23 169 -23h34q23 -3 23 -22q37 22 68 22q30 0 67 -22q4 22 23 22h79q144 0 294 23v-11l22 11h23l22 -11q0 18 181 56v-11q87 22 463 45q12 -22 12 -34q-27 -135 -91 -135q0 -23 -22 -23h-12q0 34 -33 34 v-23l-80 12h-33q-249 -18 -249 -46l-56 12h-23q-25 0 -45 -12q-20 12 -45 12v-23l-57 11h-11l-45 -33h-12l-22 11l-12 -23l-192 23q-96 -23 -113 -23q-79 8 -79 23l-56 -11h-34l-79 22q0 -22 -34 -22l-45 11q-20 -11 -45 -11v11l-23 -11h-23q-56 25 -56 112z" />
<glyph unicode="&#x2012;" d="M187 960q40 46 79 46v22h11l23 -11q0 11 11 11v-22l23 11q106 -23 169 -23h34q23 -3 23 -22q37 22 68 22q30 0 67 -22q4 22 23 22h79q144 0 294 23v-11l22 11h23l22 -11q0 18 181 56v-11q87 22 463 45q12 -22 12 -34q-27 -135 -91 -135q0 -23 -22 -23h-12q0 34 -33 34 v-23l-80 12h-33q-249 -18 -249 -46l-56 12h-23q-25 0 -45 -12q-20 12 -45 12v-23l-57 11h-11l-45 -33h-12l-22 11l-12 -23l-192 23q-96 -23 -113 -23q-79 8 -79 23l-56 -11h-34l-79 22q0 -22 -34 -22l-45 11q-20 -11 -45 -11v11l-23 -11h-23q-56 25 -56 112z" />
<glyph unicode="&#x2013;" horiz-adv-x="1420" d="M187 960q25 46 50 46v22h7l14 -11q0 11 7 11v-22l15 11q66 -23 106 -23h21q15 -3 15 -22q23 22 43 22q18 0 42 -22q2 22 14 22h50q91 0 185 23v-11l14 11h14l14 -11q0 18 114 56v-11q55 22 291 45q8 -22 8 -34q-17 -135 -57 -135q0 -23 -14 -23h-8q0 34 -20 34v-23 l-51 12h-21q-156 -18 -156 -46l-36 12h-14q-16 0 -28 -12q-13 12 -29 12v-23l-36 11h-6l-29 -33h-7l-14 11l-8 -23l-121 23q-60 -23 -71 -23q-49 8 -49 23l-36 -11h-21l-50 22q0 -22 -21 -22l-28 11q-13 -11 -29 -11v11l-14 -11h-15q-35 25 -35 112z" />
<glyph unicode="&#x2014;" horiz-adv-x="2444" d="M187 960q50 46 99 46v22h14l29 -11q0 11 14 11v-22l29 11q133 -23 213 -23h43q29 -3 29 -22q46 22 85 22q38 0 84 -22q5 22 29 22h100q181 0 370 23v-11l28 11h29l27 -11q0 18 228 56v-11q110 22 583 45q15 -22 15 -34q-34 -135 -115 -135q0 -23 -27 -23h-15q0 34 -42 34 v-23l-101 12h-41q-314 -18 -314 -46l-70 12h-29q-31 0 -57 -12q-25 12 -56 12v-23l-72 11h-14l-57 -33h-15l-27 11l-15 -23l-242 23q-121 -23 -142 -23q-100 8 -100 23l-70 -11h-43l-100 22q0 -22 -42 -22l-57 11q-25 -11 -57 -11v11l-29 -11h-29q-70 25 -70 112z" />
<glyph unicode="&#x2018;" horiz-adv-x="908" d="M60 1063q0 47 57 79q0 29 56 79q0 41 102 124q0 56 169 305q208 319 260 350h23v-22l56 11q27 -79 45 -79q0 -73 -67 -79q0 -21 -57 -91q-68 -83 -102 -169q-27 0 -90 -181l11 -22l-11 -23l11 -45l-34 -102q12 0 12 -11q-37 0 -68 -237q-18 0 -45 -79h-34q-31 0 -124 67 q-170 34 -170 125z" />
<glyph unicode="&#x2019;" horiz-adv-x="908" d="M60 961q0 73 67 79q0 21 57 91q68 83 102 169q27 0 90 181l-11 22l11 23l-11 45l34 102q-12 0 -12 11q37 0 68 237q18 0 45 79h34q31 0 124 -67q170 -34 170 -125q0 -47 -57 -79q0 -29 -56 -79q0 -41 -102 -124q0 -56 -169 -305q-208 -319 -260 -350h-23v22l-56 -11 q-27 79 -45 79z" />
<glyph unicode="&#x201c;" horiz-adv-x="1983" d="M60 1063q0 47 57 79q0 29 56 79q0 41 102 124q0 56 169 305q208 319 260 350h23v-22l56 11q27 -79 45 -79q0 -73 -67 -79q0 -21 -57 -91q-68 -83 -102 -169q-27 0 -90 -181l11 -22l-11 -23l11 -45l-34 -102q12 0 12 -11q-37 0 -68 -237q-18 0 -45 -79h-34q-31 0 -124 67 q-170 34 -170 125zM1135 1063q0 47 57 79q0 29 56 79q0 41 102 124q0 56 169 305q208 319 260 350h23v-22l56 11q27 -79 45 -79q0 -73 -67 -79q0 -21 -57 -91q-68 -83 -102 -169q-27 0 -90 -181l11 -22l-11 -23l11 -45l-34 -102q12 0 12 -11q-37 0 -68 -237q-18 0 -45 -79 h-34q-31 0 -124 67q-170 34 -170 125z" />
<glyph unicode="&#x201d;" horiz-adv-x="1983" d="M60 961q0 73 67 79q0 21 57 91q68 83 102 169q27 0 90 181l-11 22l11 23l-11 45l34 102q-12 0 -12 11q37 0 68 237q18 0 45 79h34q31 0 124 -67q170 -34 170 -125q0 -47 -57 -79q0 -29 -56 -79q0 -41 -102 -124q0 -56 -169 -305q-208 -319 -260 -350h-23v22l-56 -11 q-27 79 -45 79zM1135 961q0 73 67 79q0 21 57 91q68 83 102 169q27 0 90 181l-11 22l11 23l-11 45l34 102q-12 0 -12 11q37 0 68 237q18 0 45 79h34q31 0 124 -67q170 -34 170 -125q0 -47 -57 -79q0 -29 -56 -79q0 -41 -102 -124q0 -56 -169 -305q-208 -319 -260 -350h-23 v22l-56 -11q-27 79 -45 79z" />
<glyph unicode="&#x2022;" horiz-adv-x="581" d="M60 1627q0 85 136 215q78 22 135 22h23q49 0 79 -56q12 0 56 -102h12v-34q0 -22 -23 -22q0 -12 11 -12l-11 -79l11 -135q-185 -68 -271 -68q-2 16 -113 68q-34 89 -34 101h12q0 12 -12 12l12 56v11q0 23 -23 23z" />
<glyph unicode="&#x2026;" horiz-adv-x="1925" d="M60 -219q0 66 35 154q97 74 190 74q66 0 131 -37q92 -53 92 -154v-4q10 -6 10 -27q0 -38 -35 -128q-73 -82 -103 -82q-4 0 -8 2q-19 -2 -38 -2q-94 0 -191 56q-83 47 -83 148zM724 -219q0 66 35 154q96 74 190 74q66 0 131 -37q91 -52 91 -152v-6q11 -6 11 -27 q0 -39 -36 -128q-72 -82 -102 -82q-4 0 -8 2q-19 -2 -38 -2q-94 0 -192 56q-82 47 -82 148zM1388 -218q0 65 34 153q97 74 190 74q67 0 132 -37q91 -53 91 -154v-4q10 -6 10 -27q0 -38 -35 -128q-73 -82 -103 -82q-4 0 -8 2q-19 -2 -38 -2q-93 0 -191 56q-82 47 -82 149z " />
<glyph unicode="&#x202f;" horiz-adv-x="540" />
<glyph unicode="&#x205f;" horiz-adv-x="675" />
<glyph unicode="&#x20ac;" horiz-adv-x="2146" d="M86 791l68 11h90q11 0 11 -11q22 11 34 11l23 -11q192 38 192 45q0 215 45 215q0 25 -11 45q11 15 11 57q-11 0 -11 11q-11 0 -11 -11q-63 11 -91 11l-22 -11l-23 11q-20 -11 -45 -11l-11 22q-38 -22 -68 -22l-23 11q-20 -11 -45 -11h-34q-45 75 -45 101q0 39 124 57 q0 -19 23 -34l22 11h91q22 -3 22 -23l45 23q20 0 68 -23l68 12h34v68q36 0 45 113q21 0 90 169l57 23v67q36 0 136 147l158 113q287 79 395 79q12 0 34 -11l23 11q71 0 248 -147q0 -23 124 -146v-46q-22 -27 -22 -45h-102q-48 139 -124 170q0 53 -124 79l-23 -12h-34v23 q-71 0 -136 -102l-45 -22l-22 11q-55 -9 -192 -136q-26 0 -113 -124q-83 -123 -136 -271q9 0 68 -11l158 11v-11q16 11 124 22q12 0 34 -11l68 11h45q68 -7 68 -34l-11 -22l11 -45q-11 -20 -11 -45h-23q-48 0 -124 33v-22h-215q-25 0 -45 11l-23 -11l-22 11q-20 -11 -45 -11 v11q-102 -38 -102 -56q-15 -170 -34 -170q0 -11 11 -11l-11 -57v-22l79 11h124q23 0 23 -34h11v23q-11 0 -11 11l90 23v-12l159 34l45 -11l101 11l113 -34h68q0 -25 45 -33q0 -29 23 -57q0 -23 -23 -23q-11 0 -11 12q-37 -23 -68 -23h-124q-25 0 -45 11l-23 -11 q-90 8 -90 23l-91 -23l-22 11l-68 -11q-12 0 -34 11q-257 -36 -294 -56q0 -34 -11 -34q0 -11 11 -11l-22 -249q91 -429 237 -429q0 -17 147 -34q11 0 11 11l57 -11h11q110 0 282 45l-11 23q123 0 237 79q181 79 181 158h34q0 -15 45 -56h-22v-23q33 -41 33 -79 q-23 0 -192 -124q-32 0 -101 -57q-274 -90 -339 -90h-158l-68 -11l-181 79q-107 0 -181 124q-117 113 -214 350q-23 183 -45 226l11 23l-11 45q11 20 11 45l-34 -23h-68l-56 12v-23h-113q-11 0 -11 11q-42 -22 -91 -22q-45 68 -45 124z" />
<glyph unicode="&#x2122;" horiz-adv-x="1755" d="M60 2158v56l11 23l79 -11h12q30 0 67 22l23 -11q73 23 102 23h11q11 0 11 -12q0 23 260 45q57 -42 57 -113l-34 -22h-68q-181 0 -181 -68l11 -79v-147q46 -5 46 -34q-29 0 -34 -45h-34v23h-11q-23 -4 -23 -23q11 0 11 -11l-56 -11l-23 33v23q0 34 12 34l-12 56 q0 25 12 125q-12 19 -12 45h12l-23 45q-68 -8 -68 -34h-90q-68 0 -68 68zM772 1740v11q41 197 79 237l-12 23q23 45 34 45l-11 23q4 22 23 22l-12 23v11h23v12l-11 56q22 0 22 23h34q76 0 203 -192q15 -12 57 -12q70 116 124 147q0 54 192 102q147 -67 147 -237 q0 -12 -11 -12l11 -56q0 -24 -11 -124q22 -47 22 -68q-11 -20 -11 -45h-34v22h-11q0 -50 -79 -56l-34 169q23 0 23 34l-12 23q12 19 12 45q0 12 -12 34q12 19 12 45q-46 11 -46 56q-48 0 -135 -101h-12l12 -23v-11q-91 -99 -91 -147l-56 -23q-48 17 -170 192h-67 q0 -29 -79 -316h-34l-57 45q0 23 -22 23z" />
<glyph unicode="&#x25fc;" horiz-adv-x="1660" d="M0 0v1660h1660v-1660h-1660z" />
</font>
</defs>
</svg>
