<?xml version="1.0" standalone="no"?>
<!DOCTYPE svg PUBLIC "-//W3C//DTD SVG 1.1//EN" "http://www.w3.org/Graphics/SVG/1.1/DTD/svg11.dtd" >
<svg xmlns="http://www.w3.org/2000/svg">
<metadata></metadata>
<defs>
<font id="will_retrymedium" horiz-adv-x="489" >
<font-face units-per-em="2048" ascent="1638" descent="-410" />
<missing-glyph horiz-adv-x="733" />
<glyph horiz-adv-x="2048" />
<glyph horiz-adv-x="2048" />
<glyph unicode="&#xd;" horiz-adv-x="2048" />
<glyph unicode=" "  horiz-adv-x="733" />
<glyph unicode="&#x09;" horiz-adv-x="733" />
<glyph unicode="&#xa0;" horiz-adv-x="733" />
<glyph unicode="!" horiz-adv-x="225" d="M65 64.5q-10 28.5 13 41.5q59 41 59 -32q0 -31 -5 -37t-28 -2q-29 1 -39 29.5zM72 279q3 207 12 413q9 207 18 228q4 11 9 18t9 8t7 -2q7 -7 10 -127q3 -119 -6 -244q-10 -182 -10 -208q0 -60 -8 -185q-41 0 -41 99z" />
<glyph unicode="&#x22;" horiz-adv-x="493" d="M45 748q0 64 6 143q6 83 6 86q0 33 4 42t21 9t20 -24q5 -37 2 -150q-3 -175 -14 -182q-12 -9 -29 8q-13 5 -16 68zM354 967q-15 100 0 112q9 4 16 4.5t12.5 -2t9 -7t6.5 -12t4.5 -14.5t2.5 -17.5t1.5 -18.5t1.5 -19.5t2 -19.5q6 -40 8 -59.5t0 -32t-7 -15t-16 -2.5 q-17 0 -23.5 17.5t-17.5 85.5z" />
<glyph unicode="#" horiz-adv-x="1705" />
<glyph unicode="$" horiz-adv-x="528" d="M55 117q9 18 43 12q43 -7 189 -49q2 -2 6 -2q27 -9 45 22q40 64 61 213q21 151 -6 201q-13 30 -44.5 58.5t-43.5 23.5q-10 -3 -4 -248q6 -246 -4 -256q-14 -14 -14 0q-2 8 -11 115l-18 229l-12 174q-106 12 -162 121q-14 35 -14 90.5t14 93.5q10 33 55 72q47 41 70 41 q17 0 30 26.5t13 63.5q0 41 8 49q25 35 38 -25q2 -7 3 -14q6 -38 6 -81q64 -8 95 -21t67 -49q73 -70 45 -98q-11 -8 -39.5 7.5t-52.5 43.5q-29 32 -72 48t-53 -1q-9 -18 -6 -162q3 -99 6 -123q3 -25 20 -28q36 -8 80.5 -41.5t57.5 -65.5q19 -49 16 -139q0 -94 -18 -168 q-41 -158 -74 -197q-27 -30 -60 -30q-21 0 -100 20q-83 21 -104 18q-29 -1 -46 16t-10 40zM122.5 842q-2.5 -55 29.5 -99q7 -10 12.5 -19.5t6.5 -13.5t5.5 -7.5t10.5 -5.5t20 -5q21 -6 24 13q5 30 5 120q0 141 -23 144q-13 3 -53 -37q-35 -35 -37.5 -90z" />
<glyph unicode="%" horiz-adv-x="1120" d="M61 762q10 65 41 131q34 73 64 96q31 24 72 21q46 0 49 -23q2 -12 -3 -15t-24 1q-35 6 -72 -37q-60 -60 -73.5 -143.5t22.5 -142.5t105 -54q86 0 135 55q31 34 76 131q45 91 45 125q0 31 -6.5 37t-42.5 6q-52 0 -82 -24q-30 -27 -43 -8q-20 32 6 50.5t110 30.5q38 6 53 3 t35 -21q25 -22 31 -66q6 -43 -12 -55q-12 -9 -12 -26q0 -26 -56 -115q-60 -95 -92 -125q-77 -74 -192 -47q-69 17 -106.5 77t-27.5 138zM183 112q2 12 22 50q20 44 84 133q227 311 368 590q53 110 113 127q13 -2 15.5 -8.5t-2.5 -15t-11.5 -16.5t-12 -15.5t-3.5 -10.5 q-2 -14 -31 -51q-30 -43 -31 -45q-69 -121 -155 -258q-105 -170 -164 -254q-81 -117 -105 -158q-24 -39 -25.5 -48.5t15.5 -20.5q23 -17 13.5 -37.5t-35.5 -12.5q-14 3 -45 27q-12 12 -10 24zM635.5 307.5q17.5 88.5 116.5 206.5q26 31 38.5 41.5t39 16.5t73.5 3 q71 -11 97.5 -21t43.5 -36q51 -75 -81 -231q-145 -174 -277 -103q-68 35 -50.5 123.5zM694 258q13 -30 34.5 -36.5t64.5 5.5t94 60.5t82 105.5q30 56 31 73t-25 36q-72 52 -168 -17q-46 -32 -88 -114q-40 -79 -25 -113z" />
<glyph unicode="&#x26;" horiz-adv-x="780" d="M12.5 148.5q0.5 46.5 44.5 113.5q52 82 107.5 144.5t89.5 80.5q41 18 41 27q0 23 -33 90q-44 120 -12 220.5t117 146.5q53 27 112 -2q74 -41 68 -160q-6 -85 -27 -135q-21 -45 -80 -111q-52 -55 -60 -73t7 -35q47 -63 82 -93q25 -21 31.5 -21.5t25.5 17.5q33 33 66 86 q35 56 35 74q0 26 19.5 40.5t39.5 2.5t17.5 -43.5t-25.5 -56.5q-26 -23 -79.5 -95t-31.5 -87q25 -31 67.5 -69.5t67.5 -51.5q27 -14 44.5 -38t7.5 -34q-36 -36 -150 78l-86 88l-92 -92q-86 -86 -137 -115q-56 -29 -123 -29q-45 0 -63.5 7t-47.5 36q-43 43 -42.5 89.5z M65 153q0 -12 19 -36q36 -47 97.5 -42.5t135.5 58.5q43 32 97 86q53 53 53 66q-5 12 -59 63q-52 52 -58 72q-26 39 -31 39q-37 -3 -114 -86q-75 -81 -117 -166q-23 -42 -23 -54zM291 762q-8 -36 14 -123q24 -82 45 -82q17 0 49.5 38.5t57.5 88.5q25 49 28 125q3 79 -18 94 q-59 35 -108 -6t-68 -135z" />
<glyph unicode="'" horiz-adv-x="178" d="M61 784q3 149 9 168q3 15 24 15q19 0 19 -31q1 -11 -9 -186q-9 -120 -20 -123h-6q-12 5 -15 33t-2 124z" />
<glyph unicode="(" horiz-adv-x="428" d="M61 604q0 110 7 168q9 76 77 203t136 201q56 59 71 14q6 -17 -41 -70q-28 -28 -80 -100q-47 -65 -47 -76q0 -4 -26 -63q-50 -106 -41 -334q9 -221 69 -332q29 -51 88 -86q103 -56 91 -90q-8 -20 -33 -18.5t-39 22.5q-16 22 -43 31q-32 10 -78 57q-49 52 -49 72 q0 23 -10 30q-21 15 -45 203q-7 61 -7 168z" />
<glyph unicode=")" horiz-adv-x="479" d="M63 55q-21 64 107 176q189 168 192 490q3 251 -133 405q-44 47 -41 68q8 14 33 14q29 0 74 -63q52 -68 78 -135q74 -183 28 -437t-165 -352q-108 -82 -117 -143q-9 -42 -33 -45q-14 0 -23 22z" />
<glyph unicode="*" horiz-adv-x="698" d="M70 205q-2 2 11 12.5t34.5 26.5t47.5 35t53 37.5t49 34t36 25.5t14 11q4 4 -22.5 24.5t-55 35.5t-30.5 4q-15 -34 -24 16q-1 2 -1 4q0 13 -2 23q-2 12 -2 22q-3 32 23 29q34 -3 78 -47q48 -45 57 -39q3 3 6 16q2 5 8 86q6 77 17 92q17 17 25.5 9.5t10.5 -41.5 q3 -18 0 -46q-1 -35 -8 -112q-3 -17 0 -24t13 -2.5t22 18.5q14 14 68 39t67 38q9 15 45 15q35 0 34 -20q-2 -21 -42 -42q-70 -34 -117 -65q-59 -38 -59 -43q3 -12 61 -55q68 -45 95 -52q41 -12 44.5 -32t-30.5 -29q-43 -12 -125 49q-78 61 -88 66q-7 -5 -16 -88 q-10 -86 -7 -136q3 -80 -20 -77q-8 0 -21 10q-18 12 -12 76l21 219q-135 -103 -160 -117q-23 -10 -39 -23q-17 -12 -38 -6t-21 23z" />
<glyph unicode="+" horiz-adv-x="991" d="M174 262.5q5 11.5 31 22.5q13 6 47 14q143 28 221 41q-9 276 -6 285q11 10 31 7t22 -14q2 -42 -4 -260l135 23q140 24 183 35q12 11 32 -7t19 -38q-5 -19 -15 -23t-53 0q-121 9 -289 -49l7 -106q6 -92 1 -115t-30 -23q-22 0 -25 15t0 102q2 85 -8.5 100.5t-64.5 3.5 l-89 -22l-81 -18q-30 -9 -50 4q-19 11 -14 22.5z" />
<glyph unicode="," horiz-adv-x="206" d="M19 -182q11 20 24 22q8 0 43 35q34 34 47 57q9 15 12 54q2 21 -4.5 33t-29.5 32q-42 31 -45 31q-9 0 -9 22q0 43 52 13q8 -5 38 -31q33 -30 39.5 -42t6.5 -48q0 -84 -107 -178q-33 -31 -42.5 -36t-20.5 5q-15 11 -4 31z" />
<glyph unicode="-" d="M63 545q9 9 39 6q20 0 174 -16q109 -9 115 -5q37 6 37 -30q0 -40 -29 -56q-9 -6 -20 -2q-107 43 -205 43q-74 0 -96 25t-15 35z" />
<glyph unicode="." horiz-adv-x="212" d="M61 89.5q-2 25.5 7 37.5q15 25 57 -6q39 -34 18 -58q-9 -9 -20 -12q-22 -19 -41 -3t-21 41.5z" />
<glyph unicode="/" horiz-adv-x="419" d="M41 41q-35 21 0 92q34 66 156 344q110 253 122 293q21 59 33 74q1 1 8.5 28.5t16.5 32.5q35 27 35 -28q0 -13 -21 -66q-28 -70 -53 -119q-36 -80 -41 -98q-3 -4 -57 -125q-59 -131 -99 -227q-47 -112 -47 -131q0 -47 -15.5 -64t-37.5 -6z" />
<glyph unicode="0" horiz-adv-x="729" d="M45 221q-2 16 8 131q8 94 19 146q8 41 55 143q42 103 99.5 189.5t95.5 107.5q24 14 50 8.5t72 -35.5q64 -37 68 -37q84 -38 141 -135q58 -94 49 -180q-10 -73 -34 -151q-24 -84 -52 -136q-49 -94 -157 -174q-106 -81 -185 -84q-56 -2 -112.5 38.5t-93.5 107.5 q-20 33 -23 61zM111 348q-3 -102 8 -145q12 -43 71 -84q62 -45 82 -45q33 0 97 37q74 46 112 82q100 97 144 258q47 154 6 219q-19 28 -19 43q3 31 -94 100q-97 72 -147 72q-21 0 -68 -47q-46 -46 -67 -93q-51 -94 -103 -249q-16 -50 -22 -148z" />
<glyph unicode="1" horiz-adv-x="217" d="M68 592q3 374 12 401q13 17 25 19t19 -13t3 -45q-3 -15 -6 -419q-3 -219 2 -318q3 -58 20 -92q19 -35 19 -42.5t-19 -19.5q-44 -30 -59 54q-19 104 -16 475z" />
<glyph unicode="2" horiz-adv-x="704" d="M74 655q-36 15 16 76q116 131 287 152q35 4 78 -16.5t55 -45.5q14 -23 8 -121q-6 -91 -31 -178q-36 -136 -98 -219q-12 -17 -21 -32.5t-13.5 -22t-16.5 -21t-37 -41.5q-70 -76 -47 -73q11 0 27 8q75 34 176 37q102 3 137 -27q61 -58 41 -102q-25 -60 -98 57 q-128 44 -254 -20q-37 -22 -99 -31q-63 -9 -73 4q-20 17 -13.5 32t45.5 40q59 35 121 104t98 139q63 117 87 254q27 139 -5 185q-10 23 -69 20t-111 -27q-21 0 -80 -65q-61 -68 -75 -70q-18 -3 -35 4z" />
<glyph unicode="3" horiz-adv-x="681" d="M80 840q-32 37 52 74q30 13 75 28q34 9 135 6q104 -3 135 -14q97 -38 90.5 -122t-116.5 -194l-76 -75h27.5h28t24 -0.5t24.5 -1t21.5 -2t22.5 -3.5t20 -5t21 -7.5t17.5 -9.5t18.5 -12q25 -20 28.5 -34t-1.5 -71q-3 -46 -17 -75q-10 -23 -47 -72q-106 -135 -254 -217 q-170 -92 -170 12q0 35 29 35q30 0 33 -33q0 -31 90 19q3 1 8 4.5t6 3.5q56 33 121 92q65 62 100 115q29 46 37 100q9 60 -6 78q-25 37 -215 22q-144 -15 -147 17q0 7 6 16q9 25 63 31q39 -9 133 88q96 101 99 139q17 50 5 70t-67 39q-53 20 -162 8q-104 -12 -137 -41 q-23 -23 -32.5 -24t-22.5 16z" />
<glyph unicode="4" horiz-adv-x="559" d="M53 567q6 55 56 213q51 159 61 162q32 10 29 -14q0 -30 -66 -240q-23 -74 -20 -104q7 -29 54 -27.5t114 31.5q88 42 102 69q15 35 18 166q3 151 19 164q13 8 29 4q10 -3 10 -84q3 -79 -6 -149q-3 -27 -1 -51.5t1 -53.5t-9 -47q-15 -53 -24 -239q-6 -187 6 -230 q9 -42 37 -45q24 -5 27 -24t-17 -45q-29 -46 -80 45q-21 44 -24 213q0 178 14 284l-78 -30q-74 -31 -133.5 -37.5t-91.5 12t-27 57.5z" />
<glyph unicode="5" horiz-adv-x="647" d="M49 76q0 20 20 32.5t37 2.5q20 -10 86 5t134 46q62 30 113 77.5t63 88.5q35 111 -17.5 169t-167.5 35q-88 -14 -119 -11t-48 28q-28 41 2 139q38 109 75 174q27 2 146 21q116 19 127 20q25 2 33 -3.5t8 -25.5q0 -32 -18.5 -44t-47.5 1q-40 9 -57 7q-14 0 -64 -13 q-43 -12 -49 -12q-34 -5 -69 -59q-33 -50 -33 -107q0 -38 4.5 -45.5t25.5 -5.5q309 35 336 -152q34 -222 -250 -333q-214 -83 -262 -50q-8 3 -8 15z" />
<glyph unicode="6" horiz-adv-x="675" d="M80 319q0 99 6 134q11 43 45 120q128 303 252 330q30 6 51 -0.5t21 -23.5q0 -10 -39 -19q-54 -12 -125 -104q-72 -94 -121 -215q-39 -88 -39 -234q0 -135 90 -198q32 -24 93.5 -28t93.5 15q79 42 137 164q61 121 26 168q-33 39 -129 12q-89 -25 -157 -100 q-33 -38 -35 -51q-4 -19 2 -82q9 -93 -10 -90q-14 5 -27 28q-20 30 -25 84t7 84q20 50 118 117q93 64 172 76q73 10 114.5 -38t29.5 -130q-10 -50 -53 -127q-48 -85 -80 -117q-41 -41 -117 -59q-76 -15 -131 0q-53 16 -70 28q-12 9 -59 66l-33 74z" />
<glyph unicode="7" horiz-adv-x="708" d="M41 952q9 22 43 13q68 -16 129 -13q61 6 199 37q77 18 106 21q31 3 98 -13q31 -18 -18 -88q-74 -109 -223 -405q-152 -302 -166 -383l7 -3q7 -3 13.5 -7t11.5 -13t3 -20q-6 -29 -26 -37.5t-40 8.5q-38 30 6 154q54 144 213 454q33 64 54.5 108t36.5 76t22.5 50.5t10 30 t0.5 15.5t-7 5q-33 3 -162 -27q-227 -52 -297 -6q-23 15 -14 43z" />
<glyph unicode="8" horiz-adv-x="815" d="M63.5 762q14.5 31 86.5 72q196 113 296 143q52 15 93 0q32 -12 26 -29.5t-41 -11.5q-23 3 -88 -21t-74 -24q-14 0 -100 -47q-80 -45 -112 -70q-37 -29 -27 -49q16 -28 102 -66q87 -38 150 -47q32 -3 178 146q147 150 168 209q9 22 20 22q34 0 -12 -76l-12 -20 q-37 -52 -37 -64q4 -4 -53 -63q-111 -117 -113 -119q-19 -19 -32 -32.5t-18.5 -20t-4.5 -6.5q0 -8 71 -35q68 -31 121.5 -83.5t59.5 -94.5q15 -83 -41 -172q-55 -87 -146 -135q-53 -29 -74 -32.5t-61 7.5q-59 16 -141 72q-87 62 -103 92q-53 95 123 276q64 63 66 76 q5 5 -17 13q-21 7 -59 14l-20 4q-34 9 -86 43q-54 35 -70 57q-33 41 -18.5 72zM201 285q-11 -39 10 -72t86 -80q71 -53 121 -53q63 0 129 59t98 144q25 63 -3 113.5t-116 99.5q-83 47 -110 41q-26 -3 -94 -74q-62 -62 -85 -95.5t-36 -82.5z" />
<glyph unicode="9" horiz-adv-x="593" d="M62 610.5q-2 49.5 10 91.5q18 59 90 152q75 97 114 111q38 10 89 10q102 3 102 -68q0 -19 -10 -27t-24 -2t-25 25q-20 33 -69.5 21.5t-100.5 -60.5q-6 -6 -16.5 -16t-15 -15t-11 -12.5t-11.5 -15.5l-14 -23q-3 -4 -9.5 -16t-14.5 -27t-11 -20q-20 -38 -22.5 -83.5 t14.5 -68.5q12 -15 59 -24t56 6q7 10 26 10q33 3 109 94q78 96 78 133q-3 10 14 17q41 9 59 -12q13 -13 -2 -33q-72 -366 -98 -572q-11 -75 -10 -95t18 -30q20 -13 14.5 -33t-28.5 -20q-82 0 -35 256q8 43 22 141.5t21 133.5q12 76 6 79q-5 5 -53 -43q-130 -130 -256 -77 q-35 14 -49 39q-14 24 -16 73.5z" />
<glyph unicode=":" horiz-adv-x="229" d="M61 532q10 14 33 10.5t33 -20.5q17 -42 0 -69q-12 -21 -35 -7q-19 8 -30 38.5t-1 47.5zM111 33q-12 22 10 41q23 17 35.5 7t7.5 -40q-1 -17 -10.5 -24.5t-21.5 -3t-21 19.5z" />
<glyph unicode=";" horiz-adv-x="325" d="M63 578q7 19 27 14.5t39 -29.5q13 -13 8 -26.5t-16.5 -23t-26.5 -15.5q-12 0 -24.5 31.5t-6.5 48.5zM91 -147.5q5 18.5 32 26.5q50 17 72.5 59.5t-0.5 79.5q-14 20 -33 -2q-21 -30 -56 0q-31 31 -10 56q9 9 25 12q19 4 35.5 28.5t27.5 28.5q16 5 24.5 6t13.5 -6.5 t6 -14.5t3 -19t5 -19q58 -107 -13 -215q-52 -81 -114 -51q-23 12 -18 30.5z" />
<glyph unicode="=" horiz-adv-x="1073" d="M68 485q-13 23 6 29q21 6 209 12q438 15 684 68q14 2 29.5 -7.5t15.5 -19.5q0 -12 -27.5 -37.5t-66.5 -50.5q-23 -13 -42 -14.5t-28 8.5t-4 27q4 13 1 16.5t-14 1.5q-3 -3 -131 -18q-603 -71 -632 -15zM215 184q3 17 23 25q21 9 180 33q146 25 227 32q15 1 36.5 5t25.5 4 q36 4 47 4q14 2 88 2q86 0 106 -4q16 -3 23 -27q11 -41 -16.5 -59.5t-53.5 12.5q-10 13 -37 15t-114 -3q-152 -10 -199 -18q-8 -1 -20.5 -3.5t-33 -6.5t-36.5 -7l-109 -18q-103 -18 -119 -10q-18 9 -18 24z" />
<glyph unicode="&#x3e;" horiz-adv-x="993" d="M63 758q17 30 82 -35q8 -4 11 -10q27 -27 59 -51q41 -8 70 -21q28 -25 196 -80q171 -56 312 -86q56 -12 87 -23t46 -23.5t4 -28t-40.5 -35t-84.5 -46.5q-248 -119 -375 -194q-146 -85 -156 -117q-6 -26 -32.5 -33.5t-34.5 15.5q-13 36 26 69q46 39 191 119 q299 168 410 225q-20 5 -113 31q-66 20 -121 33q-174 45 -317 106q-137 58 -185 109q-50 53 -35 76z" />
<glyph unicode="?" horiz-adv-x="559" d="M66 827q12 61 120 88q93 25 191 -14q100 -37 115 -100q21 -77 -35 -142q-28 -38 -74 -38q-40 0 -49 -27q-14 -44 -64 -139q-50 -93 -59 -93q-49 0 25 144q55 101 55 123q2 6 -25 47q-24 41 -10 55q12 25 18 25q13 0 39.5 -17t36.5 -34q14 -23 27 -22.5t37 24.5 q33 35 19.5 83t-64.5 74q-37 19 -131 10q-95 -9 -109 -34q-10 -23 -10 -43q0 -26 -14 -34t-31 9q-17 14 -8 55zM137 25q12 47 53 20q17 -10 11.5 -40.5t-25.5 -31.5q-25 -4 -36 11t-3 41z" />
<glyph unicode="@" horiz-adv-x="1290" d="M61 467q-3 74 5 113q5 28 28 79q66 132 219 244q157 118 295 133q214 30 314 -75q50 -51 66.5 -97.5t15.5 -128.5q-3 -95 -39 -207q-37 -116 -66 -116q-10 0 -78 -68q-98 -100 -207.5 -119.5t-191.5 49.5q-27 24 -32 39t-1 58q9 105 121 182q69 49 160 61q91 15 112 -22 q12 -22 -10 -41q-25 -16 -37 -4q-16 14 -68 11t-92 -21q-42 -19 -94 -74q-72 -80 -39 -134.5t148 -47.5q74 3 123 43q115 93 112 120q-2 17 10.5 41.5t22.5 24.5q55 0 82 154q30 157 -10 227q-49 84 -154 110.5t-223 -12.5q-163 -54 -287 -172q-127 -118 -151 -231 q-26 -121 6 -245t110 -202q54 -54 101 -69q43 -14 143 -11q118 6 211 51.5t193 145.5q95 100 98 123q3 28 31 31q17 4 22.5 -2t5.5 -27q0 -30 -71 -113q-55 -62 -99 -106q-24 -21 -94 -62q-192 -109 -352 -99.5t-252 134.5q-63 89 -82 152q-22 74 -25 180z" />
<glyph unicode="A" horiz-adv-x="663" d="M39 2q0 99 63 309q69 228 119 348q63 159 103 209q28 35 59 35q10 0 20 -4t15 -14.5t2 -19.5t-14 -9q-15 0 -54 -45q-41 -47 -41 -57q-144 -323 -147 -389q0 -20 6 -21.5t35 12.5q68 38 88 88q10 20 65 170q35 94 66 199q47 157 63 168q8 7 18 7q11 0 25 -9q15 -9 15 -67 v-21q-2 -31 -2 -416h49q42 0 54 -11q8 -7 8 -22q0 -9 -3 -20q-63 -8 -90 -8q-13 0 -12 -32q0 -15 2 -38q18 -185 57 -244q23 -35 24 -63.5t-20 -34.5q-23 -7 -39 12t-28 64q-21 72 -23 84l-10 90q-5 33 -9.5 66.5t-5 48t-5 29t-6 17t-12.5 2.5t-19 -4.5t-31.5 -13.5 t-44.5 -16q-72 -26 -97 -56.5t1 -54.5q14 -12 -2 -16q-4 -1 -7 -2q-12 4 -35.5 -34t-45.5 -86.5t-43.5 -92.5t-28.5 -49q-17 -20 -25 -23q-3 -1 -6 -1q-8 0 -20 5q-25 15 -31 31zM92 29q5 15 29 65l80 160h-11q-69 0 -69 -35q-30 -88 -30 -164q0 -13 1 -26zM339.5 432.5 q0.5 -0.5 3.5 -0.5q11 0 65 12q60 14 75 25q9 -10 11 57q1 27 1 65q0 65 -3 163q-3 81 -7 77q-22 -39 -32 -69q-13 -31 -38 -106t-32 -93q-44 -111 -44 -128q0 -2 0.5 -2.5z" />
<glyph unicode="B" horiz-adv-x="788" d="M6 682q20 48 209 119q181 68 295 84q33 5 64 5q50 0 96 -12q74 -20 100 -61q10 -17 10 -37q0 -53 -71 -131q-56 -59 -187 -123q-122 -58 -131 -67q20 3 46 3q51 0 124 -11q101 -15 156 -43q65 -32 65 -78t-67 -107q-99 -94 -365 -200q-65 -27 -151 -39q-41 -6 -66 -6 q-29 0 -37 8q-15 11 -15 22q0 14 28 27q19 8 22 28q5 38 8 127q7 233 7 361q0 145 -9 154q-10 10 -51 -25q-23 -19 -41.5 -25.5t-28.5 1t-10 26.5zM182 227q0 -57 4 -84q4 -35 8.5 -43t30.5 -34q28 -26 34 -28q2 -1 6 -1q9 0 28 4q53 11 188 86q133 74 178 119q54 51 54 75 q0 22 -35 48q-31 25 -178 28q-33 1 -61 1q-101 0 -126 -9l-75 -10q-25 5 -31 -4t-12 -58q-1 -19 -7 -55zM197 719q2 1 5 -63t6 -127t5 -60q0 -9 16 -9q23 0 81 20q96 34 151 61q74 35 149 98q83 70 107 117q5 8 5 16q0 17 -24 31q-26 16 -96 22q-31 3 -56 3q-33 0 -54 -5 q-270 -68 -295 -100q-1 -1 -1 -2t1 -2z" />
<glyph unicode="C" horiz-adv-x="901" d="M23 106q-5 16 -5 38q0 65 48 175q65 150 180 302q131 169 203 190q24 6 46 6q69 0 126 -55q33 -31 33 -46q0 -6 -5 -9q-15 -10 -52 17q-5 3 -9 7q-39 35 -85 35q-53 0 -114 -47q-77 -65 -170 -201q-68 -101 -115 -223q-30 -76 -30 -134q0 -42 16 -75q12 -27 66 -55 q56 -27 100 -27q112 0 319 100q207 98 250 109q23 7 39 7q22 0 27 -15q1 -3 1 -5q0 -6 -5 -12q-7 -8 -29.5 -18.5t-49.5 -21.5t-79 -33t-102 -45q-133 -65 -172 -76q-69 -20 -152 -27q-40 -4 -71 -4q-30 -1 -50 3q-44 8 -90 38q-33 21 -44.5 37.5t-24.5 64.5z" />
<glyph unicode="D" horiz-adv-x="980" d="M16 780q0 27 39 41q31 13 130 13h40q128 0 228 -17q117 -21 245 -82q131 -61 205 -129q45 -42 57.5 -60t12.5 -42q0 -39 -90 -123q-89 -80 -371 -197q-154 -66 -195 -86q-43 -21 -43 -41q0 -25 -19 -38t-36 -1q-5 4 -14 4q-17 0 -47 -20q-42 -26 -58 -28q-2 0 -4 -1 q-15 0 -37 15q-16 11 -16 22q0 23 72 47q42 13 53 28.5t-2 41.5q-12 27 -39 211q-25 195 -31 356q0 57 21 60q14 3 18 -9q7 -30 35 -253l14 -130q20 -173 43 -239q3 -3 10 -3q27 0 115 42q115 53 127 53q24 3 148 64q133 65 182 98q105 69 105 122q0 10 -3 19 q-14 45 -133 113q-109 68 -235 110q-92 28 -271 37q-47 2 -84 2q-102 0 -122 -18q-19 -14 -34.5 -9.5t-15.5 27.5z" />
<glyph unicode="E" horiz-adv-x="749" d="M29 385q0 9 51 35q38 19 46.5 29.5t14.5 46.5q3 27 3 54q0 32 -4 66q-7 62 -25 93q-19 35 -10.5 44.5t69.5 29.5q1 0 2 0.5t2 0.5q169 53 404 90q38 6 66 6q54 0 77 -22q13 -14 13 -24q0 -14 -29 -15q-15 -3 -39 4q-10 2 -27 2q-56 0 -184 -26q-172 -35 -285 -64 q14 -110 15 -185q0 -13 -1 -26q-3 -59 9 -59q4 0 10 2q52 18 223 27q78 4 125 4q57 0 68 -6q17 -14 11.5 -27.5t-28.5 -13.5q-128 0 -260 -15q-139 -16 -156 -28q-13 -3 -28 -148q-13 -118 -23.5 -156t-29.5 -38q-26 0 -26 32q0 20 11 54q12 39 27 135q10 68 10 92 q0 12 -2 14q-4 7 -25 -8q-21 -9 -47.5 -9.5t-27.5 9.5zM39 20q0 14 37 17q38 6 178 12q184 6 184 8q5 5 38 5q14 0 34 -1q63 -3 68 -10q4 -5 4 -10t-5 -10q-9 -9 -32 -13q-35 -8 -172 -14l-226 -12q-12 -2 -25 -2q-21 0 -45 6q-38 10 -38 24z" />
<glyph unicode="F" horiz-adv-x="673" d="M16 655q-1 2 -1 4q0 5 5 13q8 22 185 63q180 42 389 62q106 10 185 10t130 -10q20 -12 20 -27q0 -4 -1 -8q-4 -13 -27 -16q-14 -2 -53 -2q-26 0 -64 1h-22q-194 0 -455 -49q-98 -19 -114 -32q-17 -17 -23 -84q-3 -35 -12 -95l-13 -73q2 -2 7 -2q17 0 73 14q82 17 187 25 q56 4 93 4t54 -4q35 -9 29 -43q-2 -20 -6 -24t-21 -3q-36 6 -97 6q-37 0 -83 -2q-121 -6 -182 -23q-51 -13 -63 -23.5t-17 -41.5l-15 -66q-18 -81 -18 -141q0 -28 4 -51q8 -25 3.5 -50.5t-17.5 -25.5q-45 15 -45 66q0 45 28 227q4 21 5.5 53t4.5 54t11 34q12 32 26 117 q19 97 19 131q0 16 -43 4q-22 -6 -37 -6q-23 0 -29 14z" />
<glyph unicode="G" horiz-adv-x="776" d="M16 150q-7 27 -7 59q0 55 20 125q32 113 104 235q89 150 191 203q54 28 104 28q53 0 102 -32q48 -31 76 -76q18 -27 18 -44q0 -11 -6 -17q-9 -9 -19 -9q-23 0 -48 54q-24 58 -98 67q-14 2 -27 2q-61 0 -111 -34q-81 -56 -161 -201q-83 -148 -95 -260q-1 -13 -1 -25 q0 -127 141 -194q50 -23 106 -23q59 0 125 27q126 52 150 162q0 20 -50 55q-48 36 -98 47q-98 27 -98 59q0 26 27 26q25 0 73 -22q54 -23 122 -23t114 19q35 28 30 33q45 50 80 50q6 0 11 -1q14 -3 14 -22q-6 -19 -45.5 -53t-44.5 -41q5 -1 -12 -7l-111 -30q27 -27 37 -45 t5 -50t-34 -79q-60 -99 -167 -136q-53 -19 -111 -19t-119 19q-62 19 -118 70.5t-69 102.5z" />
<glyph unicode="H" horiz-adv-x="946" d="M27 270q-4 6 -4 12q0 10 13 18q21 12 77 24l69 12q9 405 17 438q7 10 30 10q17 0 20 -9.5t-1 -47.5q-9 -61 -12 -213q-2 -76 -2 -116t2 -44q6 -1 14 -1q27 1 77 13q65 16 85 19q32 5 87.5 20.5t78.5 18.5q68 9 77 29q8 18 8 100q0 25 -1 55q-3 120 -15 197q-12 42 0 57 q7 17 25 20q3 1 7 1q13 0 19 -11q4 0 13 -196q9 -197 12 -197q3 -3 17 -3q22 0 73 9q81 17 109 17h4q26 -2 26 -25q0 -25 -45 -31q-179 -27 -190 -38q-12 -12 -12 -146q0 -129 20 -162q17 -26 12 -50.5t-28 -24.5q-32 0 -41 34q-8 30 -11 166q0 166 -10 166 q-242 -51 -403 -100q-5 -7 -5 -62q0 -23 1 -55q3 -115 10 -135q5 -15 9.5 -21.5t10.5 -5.5q9 0 9 19q0 12 12 16.5t24.5 -1.5t14.5 -21q5 -25 -19 -51q-19 -21 -39 -20q-5 0 -10 1q-63 20 -69 174q-2 44 -4 72t-5 45t-5.5 23t-6.5 5q-76 -10 -113 -10q-28 0 -32 6z" />
<glyph unicode="I" horiz-adv-x="198" d="M51 432q9 266 25 430v7q0 17 1 24t7 13q4 4 12 4q4 0 8 -1q16 -3 19 -32v-9q0 -31 -8 -147q-10 -147 -13 -344q-1 -54 -1 -97q0 -71 3 -110q3 -37 25 -74t22 -61q0 -15 -8 -25q-5 -8 -13 -8q-12 0 -30 18q-50 50 -50 322q0 42 1 90z" />
<glyph unicode="J" horiz-adv-x="657" d="M23 178q0 29 14 29q18 0 35 -39t75 -57q56 -17 68 -29q6 -9 51 -9q12 0 27 1q69 3 96 18q31 18 58 55.5t34 77.5q7 30 7 102q0 23 -1 52q0 110 -10 137q-5 15 -43 258q-211 -9 -274 -41q-39 -21 -62 -21q-15 0 -24 9q-15 15 24 41q53 36 154 51q119 18 352 29 q138 9 139 10q2 2 6 2q9 0 24 -12q22 -18 22 -31q0 -31 -13.5 -40t-48.5 1q-35 6 -82 8q-82 6 -123 6q-34 0 -41 -4l27 -192q27 -170 27 -254q0 -309 -230 -309q-42 0 -90 10q-88 19 -143 58t-55 83z" />
<glyph unicode="K" horiz-adv-x="817" d="M59 913q34 0 43 -51q5 -27 5 -133q0 -45 -1 -104l-4 -238q37 37 68 64l61 57q52 52 203 166q265 197 297 200q17 0 17 -26q0 -27 -17.5 -43.5t-87.5 -50.5q-93 -44 -410 -310q43 -58 89 -125q44 -65 141 -137q88 -67 287 -73q62 -1 90.5 -5.5t37.5 -13t9 -27.5 q0 -13 -4.5 -17t-23 -4t-59.5 4q-5 1 -7 1q-236 21 -314 62q-57 28 -121 85t-112 148q-40 40 -51 44.5t-27 -9.5q-47 -44 -68 -154q-13 -77 -13 -147q0 -33 3 -64q-5 -52 -18 -52h-2q-4 1 -9 7q-15 21 -18 51q-1 6 -1 18q0 38 5 134q6 225 6 442q1 46 1 84q0 140 -9 178 q-5 20 -5 29q0 10 19 10z" />
<glyph unicode="L" horiz-adv-x="899" d="M39 143q0 261 84 670q8 48 30 48q11 0 25 -11q15 -9 8 -23q-5 -8 -36 -143q-29 -142 -29 -154q0 -16 -10 -94q-9 -70 -13 -78q-9 -14 -9 -96q0 -22 1 -49q3 -126 14 -141q16 -16 58 -13q29 2 217 39q365 76 471 76q25 0 35 -4q4 -1 4 -4q0 -12 -104 -47l-5 -2 q-281 -42 -452 -86q-160 -37 -217 -37q-17 1 -28.5 5t-19.5 14.5t-12 18t-6.5 30t-3.5 34.5t-2 47z" />
<glyph unicode="M" horiz-adv-x="964" d="M37 16q4 38 26 136q40 169 60 280q29 166 45 230q2 6 14 118q12 105 19 127q7 9 16 9h1q10 0 22 -13.5t16 -32.5q17 -90 31 -239q47 -435 96 -506q21 -37 27 -10q93 357 102 477q9 130 68 201q36 42 46 42q5 0 5 -8q39 -17 82 -374q48 -171 86 -232q44 -66 125 -92 q61 -18 71 -18h2q9 9 31 -9q25 -19 25 -34q0 -16 -10 -30t-21 -16.5t-18 3.5q-6 13 -62 22q-55 10 -115 59q-68 55 -96 107q-9 16 -57 260q-44 239 -64 262q-15 21 -30 -4q-16 -22 -43 -211l-56 -377q-21 -153 -67 -153q-23 0 -64 78q-41 77 -59 157q-17 80 -43 269 q-20 147 -36 147h-1q-7 -4 -10 -51q-2 -32 -45 -248q-39 -198 -39 -287q0 -29 -11 -53q-12 -24 -27 -30q-6 -2 -11 -2l-19 7q-13 10 -13 30q0 5 1 9z" />
<glyph unicode="N" horiz-adv-x="800" d="M12 33q23 90 23 100q10 18 20 74q79 574 158 665q26 25 49 25q10 0 18 -4q30 -13 44 -62q64 -209 120 -423q89 -313 146 -342q7 -3 11.5 -4t8 5.5t6 18t5.5 33.5q7 54 26 137q18 79 29 164q6 56 33 252l30 213q0 10 27 10q14 0 18 -5q2 -2 2 -8t-2 -14q-28 -186 -59 -444 q-18 -168 -59 -377q-6 -31 -13.5 -41.5t-27.5 -11.5h-6q-33 0 -70 37q-40 41 -70 110q-33 73 -92 281q-52 195 -80 268q-3 7 -14 43t-14 43q-12 39 -27 39q-16 0 -33 -47q-25 -86 -41 -162l-117 -639q-29 -23 -43 -23q-3 0 -6 1q-10 3 -10 25t10 63z" />
<glyph unicode="O" horiz-adv-x="524" d="M31 465q41 189 127 246q19 8 47 30q25 19 58 19q52 0 126 -47q62 -35 89 -151q18 -78 18 -159q0 -41 -4 -83q-14 -124 -58 -189q-48 -77 -130 -103q-34 -11 -68 -10q-48 0 -95 21q-44 20 -65 45t-41 82q-22 60 -22 140q0 72 18 159zM59 358q-1 -24 -2 -47q0 -119 41 -180 q46 -70 133 -70q91 0 146 70q63 77 72 256q1 24 1 47q0 100 -25 164q-31 78 -106 115q-43 22 -61 22q-12 0 -14 -10q0 -5 10.5 -10t9.5 -10q0 -11 -12 -11q-29 0 -67.5 -26.5t-59.5 -59.5q-57 -94 -66 -250z" />
<glyph unicode="P" horiz-adv-x="729" d="M51 768q-3 6 -3 12q0 26 50 54q19 8 55.5 7.5t90.5 -7.5q98 -13 227 -43q82 -19 162 -76q84 -57 84 -92q0 -75 -87.5 -130t-275.5 -98q-110 -26 -139 -39q-28 -9 -31 -34q-2 -3 -12 -152q-2 -22 -2 -56t2 -79q2 -28 2 -47q0 -45 -10 -45q-31 0 -43 110q-5 45 -5 90 q0 67 11 133q6 41 3.5 49t-19.5 13q-29 3 -29.5 24t24.5 27q19 6 29 31q10 29 27 133q23 140 37 184q15 37 41 31q27 -6 18 -27q-9 -20 -43 -202q-7 -39 -18 -87q-9 -39 -3 -42q3 -1 18 2q6 1 9 2l68 12q86 14 215 70q123 56 141 90q6 11 6 22q0 41 -82 82q-129 66 -272 84 q-79 11 -127 11q-57 0 -72 -15q-35 -35 -47 -2z" />
<glyph unicode="Q" horiz-adv-x="708" d="M20 289q11 66 84 221q71 145 142 238q47 61 114 122q68 62 101 76q20 8 38 8q20 0 38 -10q27 -15 24 -35q-3 -14 -24 -8q-6 2 -14 2q-21 0 -51 -13q-42 -16 -62 -40q-18 -21 -4 -27q24 -8 51 -14q70 -13 106 -36.5t60 -67.5q32 -65 32 -158q0 -51 -10 -111 q-27 -166 -104 -250q-43 -46 -43 -55q0 -10 30 -57q26 -40 56 -74q31 -31 69 -45q41 -17 41 -34q0 -4 -2 -7q-6 -12 -33 -12q-32 0 -90 43q-56 41 -59 65q-16 37 -59 80l-33 -29q-37 -29 -103 -46q-45 -12 -81 -12q-18 0 -33 3q-119 20 -161 87q-28 43 -28 113q0 38 8 83z M68 223q0 -67 21 -99.5t75 -51.5q27 -9 60 -9q40 0 89 13q92 25 107 65q7 17 -14 52q-36 56 -68 116q-37 73 -37 88q0 10 12.5 15.5t24.5 2.5t12 -14q0 -13 58 -114q59 -103 65 -103q15 0 76 117q45 73 57 191q5 41 5 74q0 61 -17 98q-24 46 -45 63q-25 23 -74 39 q-36 12 -61 12q-9 0 -17 -2q-35 -6 -35 6q0 10 -6 10q-18 0 -96 -110l-39 -57q-48 -71 -139 -287q-14 -32 -14 -115z" />
<glyph unicode="R" horiz-adv-x="729" d="M33 772q-18 39 -18 61q0 29 30 29q44 0 82 -221q11 -73 21 -75v-1q10 0 30 62q4 7 17 41q73 224 217 309q58 37 124 37q26 0 54 -6q97 -21 112 -97q3 -15 3 -32q1 -39 -17 -85q-26 -67 -76 -116q-40 -40 -161 -125q-120 -84 -197 -129q-56 -32 -64 -51q-7 -19 4 -28.5 t72 -43.5q10 -3 15 -8q397 -203 448 -225q41 -17 53 -41q4 -8 5 -15q0 -14 -17 -26q-1 -1 -4 -1q-18 0 -111 40q-97 42 -147 75q-60 44 -168 97q-107 55 -131 55h-3q-15 0 -15 -37q0 -8 1 -18q3 -41 17 -113q9 -47 10 -47q13 -28 4 -51q-9 -25 -29 -25q-2 0 -6 1 q-24 5 -36 36q-10 30 -25 121q-12 95 -12 129q2 27 -27 65q-17 20 -17.5 32.5t13.5 29.5q15 18 12 47l-18 145q-25 154 -45 205zM205 449h2q13 0 59 38q51 39 60 39q15 0 110 80q85 72 133 123q37 41 57 93q15 37 15 62q0 10 -2 17q-4 18 -39 35q-34 18 -70 18 q-65 0 -135 -61q-107 -93 -166 -293q-29 -102 -29 -135q0 -14 5 -16z" />
<glyph unicode="S" horiz-adv-x="765" d="M25 -14q9 6 24 10q20 9 53 12q26 4 125 29q88 22 150 31q67 10 155 41q104 35 127 53q31 25 29 41t-37 51q-47 44 -92 70q-54 32 -158 75q-141 60 -178 86q-35 24 -35 62q0 42 30.5 78t115.5 92q88 60 178 112q111 64 135 70q26 7 48 7q7 0 14 -1q20 -1 29 -5.5t7 -12.5 q-3 -20 -61 -35q-62 -14 -139 -57l-88 -50q-37 -22 -86 -57q-128 -94 -128 -133q0 -3 1 -6q11 -19 194 -111q143 -72 228.5 -133t85.5 -92q0 -27 -29 -66.5t-59 -52.5q-46 -22 -256 -65q-178 -33 -254 -54q-64 -20 -100 -20q-25 0 -36 10q-4 4 -4 8q0 6 11 13z" />
<glyph unicode="T" horiz-adv-x="1050" d="M18 702q-1 3 -1 5q0 8 10 12q17 10 143 31q129 21 184 24l357 21q223 14 341 13q40 0 68 -1q246 -12 246 -41q0 -9 -78 -12h-110q-43 2 -97 2q-75 0 -172 -4l-168 -7q-38 0 -108 -4q-13 -1 -30 -1.5t-27 -1t-15 -1.5l-86 -8q-89 -8 -121 -10q-42 -3 -143.5 -20 t-140.5 -17q-46 0 -52 20zM555 272q9 209 31 324q17 102 47 125q12 8 23.5 7.5t21.5 -7.5q11 -6 11 -14q0 -7 -7 -15q-34 -40 -50.5 -161t-27.5 -388q-1 -14 -1 -25q0 -43 9 -63q9 -12 6 -59q-1 -38 -19 -38h-3q-20 2 -33 37q-2 5 -4 11q-8 26 -8 114q0 61 4 152z" />
<glyph unicode="U" horiz-adv-x="747" d="M37 379q-4 58 -4 109q0 157 35 251q12 31 22 42.5t27 11.5q26 0 28.5 -7t-16.5 -36q-30 -50 -39 -215q-3 -44 -3 -84q0 -104 17 -187q34 -146 119 -192q40 -22 80 -22q44 0 86 28q19 11 78 100t59 107q0 8 19 30q24 31 63 138q42 108 58 182q12 55 12 86q0 14 -2 23 q-8 30 -51 47q-37 15 -37 32q0 11 4 15q3 4 8 4h2q9 0 64 -25l57 -22q1 -14 1 -29q0 -113 -40 -264q-15 -72 -139 -295q-62 -108 -90 -141q-62 -72 -145 -72q-48 0 -103 24q-82 35 -120.5 118t-49.5 243z" />
<glyph unicode="V" horiz-adv-x="761" d="M35 670q-16 29 -16 46q0 23 30 23q34 0 92 -174q51 -148 117 -295q68 -151 125 -217q119 406 262 682q44 77 164 191q48 45 72 45q16 0 21 -21q1 -2 1 -4q2 -4 2 -14q0 -26 -55 -41q-54 -15 -160 -189q-53 -86 -131 -278q-71 -183 -86 -285q-13 -51 -20 -88 q-24 -100 -52 -100q-11 0 -53 51t-69 94q-64 122 -152 355q-64 171 -92 219z" />
<glyph unicode="W" horiz-adv-x="946" d="M0 893q14 10 26 10q27 0 37 -55q3 -22 43 -152q44 -141 46 -159q0 -27 12 -48q5 -9 53 -180q47 -170 62 -170q6 0 6 31q0 63 8 115q7 48 31 149q13 56 28 137q26 149 48 207t51 58q18 0 27.5 -20t27.5 -91q25 -99 31 -131q36 -183 86 -356q55 -181 75 -181q17 0 52 250 l14 105q2 16 7.5 49.5t6.5 46.5q13 91 31 147q20 77 78 189q60 113 108 127q33 0 33 -17q0 -18 -41 -57q-52 -52 -106 -188q-52 -130 -64 -252q-9 -108 -35 -285q-21 -141 -37 -174q-9 -21 -29 -22h-1q-19 0 -41 19q-23 20 -39 56q-17 38 -55 152q-37 118 -43 153 q-14 71 -48 203q-38 159 -45 170q-9 15 -17 -16q-1 -2 -1 -4q-17 -56 -35 -177q-32 -167 -45 -333q-12 -145 -27 -160q-19 -21 -49.5 4t-48.5 78q-33 80 -139 473q-13 39 -35 94q-48 131 -48 191q0 7 1 14z" />
<glyph unicode="X" horiz-adv-x="655" d="M35 -2q-1 3 -1 7q0 26 46 106q51 91 115 165l71 86q-60 123 -198 369q-20 31 -25 71.5t8 51.5q10 10 21.5 -1t23.5 -44l6 -16q16 -47 84 -170q70 -123 76 -138q38 -77 45 -77t154 172q150 172 180 213q33 48 53 61q16 10 36 10h10q26 -4 28 -26q0 -16 -12 -25 q-36 0 -254 -252q-143 -162 -180 -199q48 -98 174 -221q113 -108 113 -132q0 -4 -3 -5q-15 -15 -59 10q-42 24 -148 146q-100 115 -110 145q-3 7 -8 7q-14 0 -45 -48q-9 -12 -47.5 -58.5t-47.5 -60.5l-8 -15q-8 -14 -23 -46t-30 -74q0 -26 -19 -30q-3 -1 -6 -1q-14 0 -20 19 z" />
<glyph unicode="Y" horiz-adv-x="712" d="M31 799q0 8 10 22q17 13 22 11.5t23 -25.5q103 -130 229 -249q72 -69 87 -69q3 0 4 3l92 155q85 142 116 184q19 29 46 37q8 2 15 2q18 0 32 -14q11 -14 11 -48v-18q-4 -49 -22 -90q-21 -49 -39 -49q-11 4 -2 37q11 58 12.5 85t-5.5 28q-16 0 -107 -137l-123 -238 q-24 -34 -51 -84q-41 -70 -94 -231q-31 -93 -31 -140q0 -28 12 -39q3 -11 -18 -14q-31 0 -37 21q-3 10 -3 25q0 92 116 349q51 114 51 129q0 10 -35 31q-21 11 -127 113q-112 117 -152 166q-32 41 -32 47z" />
<glyph unicode="Z" horiz-adv-x="1019" d="M16 -35q0 22 222 205q203 163 409 297q441 293 441 333q0 2 -1 3q-6 9 -125 9q-32 0 -73 -1q-234 -3 -594 -27q-42 -3 -65.5 -3.5t-39.5 2.5t-21 10t-5 20q0 6 1.5 9t11 6t27 5t52.5 5q88 8 180 10l344 14q85 3 151 3q188 0 222 -25q21 -15 22 -25q0 -9 -10 -29 q3 -8 -30.5 -35.5t-72.5 -55.5t-40 -29q-10 -10 -39 -25q-143 -79 -494 -338q-350 -256 -399 -319l-6 -9q216 76 424 127.5t293 65.5q77 14 104 14t68 -14q35 -17 40 -26.5t-12 -26.5q-15 -15 -38 0q-17 9 -63 9q-48 0 -132 -10q-160 -20 -315 -69q-210 -63 -244 -82 q-44 -21 -119 -21q-19 0 -41 1q-1 1 -17 8t-16 14z" />
<glyph unicode="_" horiz-adv-x="1703" />
<glyph unicode="`" horiz-adv-x="575" d="M72 614q-18 -12 24 -51q56 -51 101 -86q17 -12 106 -63q96 -54 137.5 -68t61.5 0q13 10 10 21q-9 34 -61 43q-48 9 -125 53q-85 52 -142 98q-70 57 -78 60q-13 8 -34 -7zM1178 1247z" />
<glyph unicode="a" horiz-adv-x="559" d="M10 233q0 66 49 142q47 73 117 112q35 22 72 22q27 0 55 -11q45 -18 52 -46q4 -13 -5 -24q-10 -20 -21 -20q-12 0 -26 26q-9 27 -49 27q-88 0 -158 -101q-48 -68 -48 -122q0 -26 11 -50q12 -31 46.5 -56.5t72.5 -31.5q17 -4 33 -4q103 0 172 148l27 53l-21 33 q-22 36 -22 55q0 23 30 23q21 0 40.5 -22t19.5 -46q0 -25 59 -164q61 -137 82 -158q2 -19 2 -32q0 -27 -10 -28q-1 0 -3 1q-10 3 -26 27q-3 6 -53 94q-31 67 -31 76q-9 34 -45 82q-65 -151 -172 -191q-29 -12 -59 -12l-109 41q-82 61 -82 157z" />
<glyph unicode="b" horiz-adv-x="589" d="M41 825q5 27 30 27h5q23 -3 26 -98q3 -120 41 -385q39 -251 39 -269q6 -25 13 -12l22 55q70 190 209 240q32 11 55 11q68 0 68 -91t-170 -217q-124 -87 -131 -119q0 -12 -6.5 -19t-21 -9.5t-25.5 -2.5q-4 0 -9 -1q-10 0 -25 1q-23 1 -32 1q-6 116 -47 432 q-38 291 -41 456zM254 70q-1 -4 1 -4q11 0 83 57q105 84 117 110q18 27 18 70q0 37 -18 37q-24 0 -63 -31t-64 -69q-23 -38 -49 -97q-25 -61 -25 -73z" />
<glyph unicode="c" horiz-adv-x="653" d="M9 147q5 59 48 138q38 69 101 145q78 91 108 109q27 19 54 19q12 0 22 -4q38 -10 37 -46q0 -24 -7 -64q-3 -38 -16 -38t-21.5 20t-2.5 37q4 13 1 20t-14 6q-21 0 -49 -22q-32 -24 -108 -119q-66 -84 -88 -135q-17 -35 -18 -71q0 -10 2 -22q8 -46 40 -59q33 -14 73 -13 q37 0 79 11q87 23 258 113q108 58 143 58q12 0 15 -7q1 -3 1 -8q0 -17 -12 -55q-8 -21 -14 -24.5t-25 3.5q-9 3 -20 3q-28 0 -64 -21l-147 -70q-33 -12 -192 -49q-16 -2 -33 -2l-125 33q-27 47 -27 98q0 8 1 16z" />
<glyph unicode="d" horiz-adv-x="585" d="M23 211q24 96 100 166q69 63 108 82q36 20 88 20q53 0 77 -16.5t38 -56.5q0 -13 -12.5 -17t-27.5 3t-21 22q-13 25 -45 25q-17 0 -38 -7q-63 -20 -126 -86q-98 -98 -101 -192v-8q0 -41 20 -60q22 -21 79 -27q10 -1 19 -1q43 0 74 16q37 18 101 82q70 70 84 110 q14 35 14 91q0 18 -1 38q-6 85 -6 167q0 95 8 186q15 170 45 194q5 3 9 3q10 0 11 -23v-11q0 -30 -8 -86q-16 -110 -17 -225q0 -18 1 -37q5 -125 16 -266q15 -181 43 -217q30 -39 30 -57q0 -11 -12 -13q-4 -2 -14 -2q-3 -1 -6 -1q-13 0 -25 11q-14 13 -23.5 40t-14 44.5 t-9.5 43.5q-1 7 -2 10l-8 43q-175 -169 -195 -179q-38 -14 -94 -14q-19 0 -39 2q-83 6 -104 41q-25 42 -25 95q0 31 9 67z" />
<glyph unicode="e" horiz-adv-x="473" d="M-2 209q11 44 49 108t78 101q67 64 190 112q41 19 73 19q21 0 38 -8q21 -11 21 -30q0 -29 -48 -79q-30 -34 -59 -59q-55 -48 -64 -64q-18 -27 -79 -57q-59 -30 -105 -33l-59 -6v-21q0 -48 8 -70q10 -26 51 -52q19 -14 54 -14q26 0 60 8q80 18 169 67q124 46 129 47 q12 5 20 -5q5 -6 5 -12q0 -5 -3 -11q-3 -15 -32 -25q-21 -5 -82 -29q-57 -23 -62 -28q-18 -18 -110 -41q-76 -17 -106 -17q-10 0 -15 2q-57 11 -95 69q-29 43 -29 93q0 17 3 35zM59 264q7 -2 16 -2q13 0 31 4q32 6 56 16.5t22 16.5q0 6 27 18q27 15 106 91q81 78 78 86 q-1 9 -12 11q-3 1 -7 1q-10 0 -25 -4q-21 -6 -50 -19q-88 -42 -129 -75q-20 -15 -70 -76q-43 -52 -43 -68z" />
<glyph unicode="f" horiz-adv-x="528" d="M18 465q-11 9 -11 15q0 9 16 14q3 1 9 1q16 0 56 -6q38 -7 63 -7q29 0 39 10q18 18 33 129l6 65l19 119q8 48 28 92q22 44 60 66q20 12 44 12q21 0 45 -9q52 -19 71 -63q26 -64 35 -99q8 -32 8 -69v-8q-3 -40 -31 -102q-27 -56 -16 -56q3 -3 18 6q26 13 29 -10 q2 -5 2 -10q0 -15 -13 -31q-18 -20 -43 -20q-28 0 -92 -25q-72 -25 -82 -26q-60 -15 -63 -31q-8 -29 -23 -371l39 -39q31 -31 31 -45q0 -9 -10 -12q-4 -2 -10 -2q-9 0 -21 4q-47 15 -59 76q-7 49 -7 142q0 50 2 114q2 56 2 87.5t-2 39.5q-3 14 -47 14q-78 0 -125 35z M260 555q-2 -21 -2 -34q0 -18 4 -21q2 -1 5 -1q14 0 55 17q1 0 15 5t33.5 11t30.5 9q5 2 13 4t11.5 3t8.5 2.5t7 3t5.5 3.5t4.5 5t3 6.5t2.5 9t2 11.5t2.5 15q26 44 26 114q0 19 -2 40q-9 97 -53 135q-26 23 -43 25q-3 1 -5 1q-16 0 -36 -12q-24 -15 -51 -119 q-26 -110 -37 -233z" />
<glyph unicode="g" horiz-adv-x="475" d="M2 -422q-6 14 -6 23q0 16 18 18q24 3 52 -25q16 -16 69 -49q13 -8 33 -8h6q23 0 96 10q115 18 131 41q16 20 16 156q0 56 -3 131q-9 266 -13 266t-63 -47q-103 -71 -188 -74q-83 0 -127 72q-22 38 -22 86q0 42 17 92q28 76 109 160q83 89 137 98q9 2 18 2q36 0 76 -28 q50 -35 60 -64l14 -49q7 -18 10 -82q8 -45 8 -250q0 -61 -1 -137q14 -190 14 -277q0 -46 -4 -63q-12 -53 -74 -65q-2 -1 -12 -3t-25.5 -6t-32.5 -8q-57 -14 -59 -12l-53 -12q-49 0 -103.5 28.5t-97.5 75.5zM66 117q50 -40 104 -40q82 0 172 89q45 42 51 82q2 13 2 29 q0 32 -8 75q-9 68 -37 99q-31 26 -63 26l-23 -4q-43 -13 -100 -76q-69 -75 -98 -159q-14 -41 -14 -71.5t14 -49.5z" />
<glyph unicode="h" horiz-adv-x="493" d="M20 545q-2 168 -2 271q0 154 5 163q7 10 30 10q18 0 21 -16q3 -15 3 -82q0 -40 -1 -100v-31q-2 -138 -2 -271.5t2 -261.5q3 -80 8 -80q1 0 2 1.5t3.5 4.5t4.5 5q19 28 19 43q0 20 59 180q60 160 88 211q23 40 54.5 60.5t45.5 6.5q9 -6 15 -53q5 -38 10 -53q4 -31 14 -168 q10 -136 17 -180q13 -102 20 -123q9 -27 27 -45q23 -22 23 -41q0 -4 -1 -6q-4 -22 -36 -21q-26 0 -40.5 33.5t-35.5 132.5q-11 75 -21 193q-15 172 -30 237q-6 25 -28 -15l-7 -15q-91 -199 -129 -363q-22 -99 -35 -125q-11 -25 -28 -28t-32.5 16t-23.5 53q-10 46 -19 457z " />
<glyph unicode="i" horiz-adv-x="217" d="M96 53q-2 8 -2 33q0 55 10 193q0 9 4 68t5 99l8 146q44 6 47 -2q2 -3 2 -26.5t-2 -67.5q-21 -214 -21 -445q0 -19 -17 -19q-4 0 -9 1q-22 3 -25 20zM116 902q-3 7 -3 13q0 20 28 33q16 7 29 7q22 0 33 -21q7 -13 7 -24q0 -10 -4 -18q-10 -18 -36 -18q-42 0 -54 28z" />
<glyph unicode="j" horiz-adv-x="178" d="M-354 -217q10 10 19 8.5t9 -12.5q0 -31 49.5 -58.5t106.5 -27.5q146 0 216 121q51 88 51 226q0 49 -7 105l-14 95q-19 145 -19 205q0 19 2 30q6 35 43 14q18 -12 21 -106q3 -109 16 -193q11 -65 11 -127q0 -95 -25 -182q-41 -147 -139 -194q-63 -30 -135 -33h-11 q-65 0 -112 27q-37 23 -62 57q-22 26 -22 38q0 4 2 7zM23 856q9 12 38 12q20 0 25 -6q3 -5 3 -19q0 -6 -1 -14q-3 -40 -18 -43h-3q-12 0 -32 25q-15 21 -15 35q0 6 3 10z" />
<glyph unicode="k" horiz-adv-x="483" d="M12 694q-2 4 -2 9q0 10 10 22q12 15 22 15q27 0 34 -110q2 -34 2 -79t-2 -100q-3 -74 -3 -112.5t3 -43.5q2 -3 6 -3q15 0 61 42l41 35q82 70 183 139q39 32 61 32q7 0 12 -3q23 -12 20 -38.5t-28 -31.5q-75 -13 -211 -125q-126 -101 -126 -137q0 -3 1 -6q3 -12 107 -47 q112 -38 203 -54q3 1 6 1q20 0 61 -36q11 -9 11 -15q0 -7 -19 -7q-26 3 -29 0q-43 17 -98 20q-92 9 -250 74q-15 9 -18 -14q-2 -10 -2 -37.5t2 -71.5q0 -18 1 -33q0 -104 -18 -104q-9 0 -18 6q-17 15 -17 472v147q1 44 1 78q0 102 -7 116z" />
<glyph unicode="l" horiz-adv-x="147" d="M25 373q-1 35 -1 66q0 115 9 182q35 284 43 297q7 7 18 7q4 0 8 -1q22 -3 19 -37q0 -34 -21 -172q-20 -139 -21 -329q0 -25 1 -50q3 -227 29 -277q11 -20 13 -38q1 -5 1 -9q0 -12 -5 -20q-7 -10 -20 -10q-23 0 -35.5 30.5t-25.5 122.5q-9 65 -12 238z" />
<glyph unicode="m" horiz-adv-x="612" d="M14 489q0 15 14 21q16 6 25 -12q8 -19 8 -201q-1 -63 -1 -110q0 -124 6 -126q3 0 18 35q9 23 17.5 52.5t15.5 44.5q22 51 43 116q38 110 76 173q36 59 62 59h3q18 -3 21 -9q2 -8 2 -71t-2 -182q-2 -67 -2 -102t2 -38q3 -3 6 4q0 9 2 17q0 29 6 26q7 4 31 62 q66 161 92 219q19 44 47 76q0 2 4 6q20 25 35 34q9 5 22 5q9 0 19 -2q3 -2 3 -31t-3 -86q-10 -184 -18 -446q0 -16 -15 -3q-15 6 -18 25q-1 4 -1 13q0 28 5 106l16 285q3 42 3 62.5t-3 20.5q-8 0 -49 -59q-40 -62 -53 -98q-4 -4 -50 -129q-47 -126 -55 -164q-12 -49 -33 -49 q-23 0 -32 45q-5 26 -5 113q0 37 1 85q1 43 1 75v31q0 42 -2 62t-4 19q-19 -14 -90 -199q-69 -181 -69 -223q0 -11 -23 -49q-14 -21 -20 -24q-2 -1 -4 -1q-6 0 -17 8q-22 9 -28 54q-5 73 -5 225z" />
<glyph unicode="n" horiz-adv-x="458" d="M16 203q0 174 11 207q12 34 12 55q0 7 11 8.5t22.5 -1.5t13.5 -9q6 -15 -8 -53q-17 -49 -17 -165v-36q1 -19 3 -32t4.5 -18.5t5.5 -4.5q3 4 38.5 62t51.5 79q30 51 35 70q3 9 15 19.5t13 18.5q0 14 52 60q38 35 50 41q4 2 9 1q10 0 22 -7q10 -10 7 -37q-3 -28 -27 -166 q-4 -22 -4.5 -53.5t4.5 -73.5q9 -85 22 -98q8 -13 46 -21q40 -9 43 -33q-19 -23 -44 -23q-13 0 -27 6q-43 17 -71 67q-19 37 -22 129q-1 20 -1 37q0 77 11 124q9 41 9 57q0 9 -3 9q-2 0 -6 -2q-32 -29 -107 -164q-71 -130 -100 -213q-19 -57 -39 -57q-12 0 -24 20 q-11 22 -11 197z" />
<glyph unicode="o" horiz-adv-x="419" d="M23 268q52 211 145 267q20 11 35 11q19 0 30 -18q9 -12 5.5 -16t-25.5 -4q-36 -1 -73 -52t-58.5 -119t-27.5 -137q-1 -12 0 -22q0 -53 22 -84q20 -30 55 -47q24 -12 49 -13q49 0 99 50q67 70 85 144q6 25 6 48q0 45 -24 80q-36 46 -77 62q-17 7 -32 7q-20 0 -36 -13 q-18 -15 -27 -4q-21 18 12 38q20 14 45 13q11 0 23 -2q23 -6 60.5 -29t56.5 -43q37 -37 37 -97q0 -22 -5 -48q-12 -63 -30 -97q-14 -32 -62 -80q-45 -45 -69 -57q-21 -12 -59 -12h-4q-36 0 -58 10q-65 24 -93 100q-15 41 -15 86q0 38 10 78z" />
<glyph unicode="p" horiz-adv-x="651" d="M0 454q5 27 35 40q52 22 166 28q24 -6 82 -12q226 -21 325 -88q28 -13 33 -42q2 -10 2 -20q0 -19 -7 -36q-10 -26 -26 -48q-20 -23 -116 -71q-111 -52 -172 -72l-113 -37q-52 -15 -59 -22q-5 -2 -15 -33q-12 -40 -12 -197q0 -155 10 -178q12 -23 -10 -45q-17 -13 -23 -13 t-18 13q-16 24 -16 131q0 65 6 160q15 248 59 448q10 53 10 75q0 11 -2 14q-8 4 -26.5 3.5t-36.5 -8t-15 -18.5q1 -5 -1 -8t-7 -4t-13 0.5t-20 5.5q-21 6 -21 26q0 4 1 8zM143 123q106 23 211 72q116 52 178 102q42 40 42 60q0 6 -3 10q-20 33 -114 57q-89 25 -183 35 q-12 2 -22 2q-27 0 -39 -12q-13 -16 -37 -130q-24 -115 -33 -196z" />
<glyph unicode="q" horiz-adv-x="514" d="M27 152q-1 8 -1 18q0 39 14 94q18 67 46 119q28 45 33 63q2 12 53 66q52 52 82 70q33 21 62 21q28 0 53 -19q38 -30 38 -87q0 -8 -1 -16q-3 -50 -31 -47q-8 0 -10 2q-17 7 -17 49q0 72 -45 72q-18 0 -70 -49q-49 -46 -83 -98q-40 -59 -54 -105t-14 -117q0 -67 11.5 -96 t43.5 -41q16 -6 34 -6q92 0 214 176q44 65 53 150q6 56 11.5 68t25.5 12t24.5 -7t4.5 -38q0 -77 -25 -250q-24 -164 -24 -287q0 -89 4 -135q3 -33 20 -60q20 -30 20 -46q0 -13 -12 -17q-4 -1 -8 -1q-9 0 -18 5q-57 30 -57 255q0 96 10 228l6 76q-35 -49 -92 -106 q-54 -54 -84 -64q-33 -13 -64 -13q-43 0 -81 26q-65 44 -72 135z" />
<glyph unicode="r" horiz-adv-x="440" d="M41 426v6q0 23 20 29q23 4 33 -14.5t10 -65.5q-3 -50 13 -53q6 -3 12 18q0 20 27 96q45 129 114 156q21 4 30 5q3 0 5 -1q5 0 31 -8.5t35 -9.5q35 -8 53 -29q12 -14 12 -23q0 -13 -22 -18q-9 -3 -19 -3q-26 0 -57 17q-20 11 -38 11q-49 0 -85 -80q-51 -120 -80 -309 q-18 -129 -39 -138q-7 -3 -12 -3q-18 0 -26 30q-11 43 -11 176q-3 193 -6 211z" />
<glyph unicode="s" horiz-adv-x="419" d="M14 -2q4 11 86 41q79 33 109 33q53 0 100 30q49 30 49 62q0 29 -31 54t-106 56q-149 58 -149 134q0 41 46.5 83t114.5 66q54 17 95 17q30 0 53 -9q22 -9 16 -24q-10 -16 -51 -13q-9 1 -18 1q-36 0 -84 -17q-98 -37 -116 -81q-4 -9 -4 -18q0 -33 54 -61q14 -7 48.5 -28 t62.5 -35q66 -31 84 -46t30 -50q5 -16 5 -32q0 -46 -39 -89q-28 -28 -121 -43q-84 -11 -121 -23q-64 -22 -93 -22q-15 0 -20 6q-2 2 -2 4t2 4z" />
<glyph unicode="t" horiz-adv-x="524" d="M-82 283q-1 0 -1 2q0 3 3 10q3 10 98 45q93 34 158 43q39 5 64 23q15 21 24 116q8 85 25 180q16 86 47 89q14 -5 14 -26t-14 -93q-9 -42 -29 -246q147 17 221 41q20 3 39 3q24 0 45 -5q38 -9 35 -31q-6 -22 -131 -28q-80 -6 -135.5 -20t-69.5 -28q-5 -5 -8 -143 q-10 -153 -16 -178q-6 -33 -27 -33q-15 0 -15 100q0 43 3 105v133q-50 -7 -199 -51q-67 -21 -98.5 -23t-32.5 15z" />
<glyph unicode="u" horiz-adv-x="440" d="M23 340q-1 54 -1 89q0 58 3 63q12 21 21 -19l1 -4q13 -35 16 -129q9 -123 15 -162q6 -38 31 -84q24 -42 45 -42h2q22 2 73 57q79 79 113 180q24 75 24 152q0 50 -10 100q7 2 12 2q25 0 35 -41q7 -30 7 -68q0 -54 -15 -125q-20 -84 -92 -188q-68 -99 -119 -117 q-14 -5 -28 -5q-35 0 -67 31q-44 43 -56 122q-7 56 -10 188z" />
<glyph unicode="v" horiz-adv-x="512" d="M9 504q-1 2 -1 5q0 9 10 13q19 6 35 0q41 -15 105 -229q55 -184 75 -184q15 11 48 96l59 153q32 76 43 113q22 61 61 152q12 12 34 13h3q20 0 27 -11q1 -1 1 -3q0 -18 -50 -98q-3 -3 -56 -133q-40 -97 -77 -213q-47 -149 -68 -170q-6 -5 -13 -5q-27 0 -69 85 q-31 71 -53 139q-53 164 -88 224q-23 41 -26 53z" />
<glyph unicode="w" horiz-adv-x="727" d="M20 156q-3 19 -3 42q0 66 26 160q35 127 74 127q10 -1 9.5 -14t-11.5 -43q-22 -60 -39 -156q-7 -45 -7 -77q0 -41 11 -62q13 -26 56 -43q26 -10 46 -10q13 0 23 4q36 14 73 54t50 81q15 47 53 47q31 3 31 -35q0 -25 35 -56.5t77 -43.5q19 -5 35 -6q17 1 29 9q22 14 47 71 q30 66 30 143q0 24 -3 49q-2 27 -2 46.5t2 31.5q4 21 18 21h4q26 -3 29 -13q5 -7 8 -94q0 -108 -29.5 -191.5t-75.5 -123.5q-16 -13 -45 -13q-17 0 -37 4q-56 11 -104 44q-51 34 -60 34h-1q-3 0 -37 -34l-25 -23q-57 -54 -99 -66q-15 -4 -31 -4q-31 0 -66 15q-76 34 -91 125 z" />
<glyph unicode="x" horiz-adv-x="522" d="M20 66q0 44 15 81q10 26 76 132l24 38q0 3 -26 54q-45 88 -45 113q0 8 4 10q18 8 29.5 0.5t31.5 -43.5q43 -75 47 -76h1q12 0 61 43q42 37 65 53q65 43 152 43q43 0 54 -4t11 -18t-9.5 -18.5t-45.5 -4.5q-61 0 -100 -17.5t-95 -70.5q-76 -58 -76 -100q0 -18 13 -33 l45 -70q27 -64 47 -84q27 -23 53 -39q35 -18 8 -35q-13 -4 -22 -2q-64 0 -135 150q-38 86 -47 86q-8 0 -45 -57q-39 -62 -39 -125q2 -45 -2 -55.5t-23 -10.5t-23 9.5t-4 50.5z" />
<glyph unicode="y" horiz-adv-x="497" d="M-31 -453q-30 0 -30 41q0 52 49 170q25 62 51 113q31 62 96 205q-43 71 -82 170q-39 101 -39 166q0 32 5.5 40.5t25.5 8.5q22 0 26.5 -6.5t2.5 -34.5v-8q0 -49 30 -136q36 -94 72 -137l82 125q53 79 107 148q30 34 75 49q41 18 53 18h3q14 -5 14 -14t-14 -23 q-1 -1 -9 -6.5t-14 -9.5q-68 -36 -194 -233l-113 -175l-66 -135q-103 -201 -106 -289q0 -4 -1 -10t-1 -9t-0.5 -7.5t-1 -6l-1.5 -4.5t-2.5 -4t-3 -2.5t-3.5 -2t-4.5 -1t-6.5 -0.5z" />
<glyph unicode="z" horiz-adv-x="608" d="M-12 92q0 45 235 219q23 18 51.5 39.5t42 32t27.5 21.5t19 15t4 5q-2 3 -24 3q-36 0 -126 -9q-53 -4 -89 -4q-59 0 -67 12q-11 13 -11 23q0 20 48 24q28 4 54 5l38 -2q82 0 181 20q121 24 133 39q9 9 29 9q7 0 16 -2q33 -4 33 -18q0 -18 -162 -137q-173 -127 -197 -151 q-162 -134 -162 -148q9 -15 58 -12q52 5 132 26.5t134 47.5q49 18 107 26q34 4 56 4t32 -4q7 -3 7 -8q1 -9 -31 -23q-46 -21 -171 -65q-218 -76 -294 -76q-13 0 -21 2q-23 8 -52.5 38.5t-29.5 47.5z" />
<glyph horiz-adv-x="305" d="M16 705q0 41 37 165q41 127 53 134q26 5 36 -14t-7 -54q-30 -52 -45 -133q-12 -80 0 -107q12 -29 1 -42t-42 -5q-20 4 -26.5 15.5t-6.5 40.5zM176 735q3 243 72 271q24 10 35.5 -1t-2.5 -30q-17 -24 -35 -105q-16 -90 -19 -151q-2 -58 -5.5 -69.5t-20.5 -10.5 q-18 5 -22 20.5t-3 75.5z" />
<glyph horiz-adv-x="276" d="M29 1020q9 36 37 8q16 -19 24 -51q11 -43 16 -80q9 -43 6 -96.5t-22 -65.5q-25 -10 -41 18.5t-10 71.5q2 15 -8 97q-9 74 -2 98zM159 984q0 20 7 40q28 28 49 -47l25 -103q21 -87 6 -102q-18 -12 -35.5 7.5t-20.5 58.5q-6 30 -14 59q-10 37 -13.5 52t-3.5 35z" />
<glyph unicode="&#xad;" d="M63 545q9 9 39 6q20 0 174 -16q109 -9 115 -5q37 6 37 -30q0 -40 -29 -56q-9 -6 -20 -2q-107 43 -205 43q-74 0 -96 25t-15 35z" />
<glyph unicode="&#x2000;" horiz-adv-x="682" />
<glyph unicode="&#x2001;" horiz-adv-x="1365" />
<glyph unicode="&#x2002;" horiz-adv-x="682" />
<glyph unicode="&#x2003;" horiz-adv-x="1365" />
<glyph unicode="&#x2004;" horiz-adv-x="455" />
<glyph unicode="&#x2005;" horiz-adv-x="341" />
<glyph unicode="&#x2006;" horiz-adv-x="227" />
<glyph unicode="&#x2007;" horiz-adv-x="227" />
<glyph unicode="&#x2008;" horiz-adv-x="170" />
<glyph unicode="&#x2009;" horiz-adv-x="273" />
<glyph unicode="&#x200a;" horiz-adv-x="75" />
<glyph unicode="&#x2010;" d="M63 545q9 9 39 6q20 0 174 -16q109 -9 115 -5q37 6 37 -30q0 -40 -29 -56q-9 -6 -20 -2q-107 43 -205 43q-74 0 -96 25t-15 35z" />
<glyph unicode="&#x2011;" d="M63 545q9 9 39 6q20 0 174 -16q109 -9 115 -5q37 6 37 -30q0 -40 -29 -56q-9 -6 -20 -2q-107 43 -205 43q-74 0 -96 25t-15 35z" />
<glyph unicode="&#x2012;" d="M63 545q9 9 39 6q20 0 174 -16q109 -9 115 -5q37 6 37 -30q0 -40 -29 -56q-9 -6 -20 -2q-107 43 -205 43q-74 0 -96 25t-15 35z" />
<glyph unicode="&#x2013;" horiz-adv-x="1146" d="M66 545q25 9 109 6q55 0 486 -16q304 -9 321 -5q103 6 103 -30q0 -40 -81 -56q-25 -6 -56 -2q-299 43 -572 43q-207 0 -268.5 25t-41.5 35z" />
<glyph unicode="&#x2014;" horiz-adv-x="2170" d="M70 545q51 9 218 6q112 0 972 -16q609 -9 642 -5q207 6 207 -30q0 -40 -162 -56q-50 -6 -112 -2q-597 43 -1145 43q-413 0 -536 25t-84 35z" />
<glyph unicode="&#x202f;" horiz-adv-x="273" />
<glyph unicode="&#x205f;" horiz-adv-x="341" />
<glyph unicode="&#x25fc;" horiz-adv-x="512" d="M0 0v512h512v-512h-512z" />
</font>
</defs>
</svg>
